<svg width="520" height="520" viewBox="0 0 520 520" fill="none" xmlns="http://www.w3.org/2000/svg">
<g clip-path="url(#clip0_105_947)" filter="url(#filter0_dd_105_947)">
<path d="M260 512C401.385 512 516 397.385 516 256C516 114.615 401.385 0 260 0C118.615 0 4 114.615 4 256C4 397.385 118.615 512 260 512Z" fill="#FCFCFC"/>
<path d="M109.739 237.449L81.9131 186.966L109.739 137.275L137.565 186.966L109.739 237.449Z" fill="#A2001D"/>
<path d="M54.0872 237.449L26.2612 186.966L54.0872 137.275L81.9132 186.966L54.0872 237.449Z" fill="#A2001D"/>
<path d="M109.739 374.725L81.9131 324.242L109.739 274.551L137.565 324.242L109.739 374.725Z" fill="#A2001D"/>
<path d="M54.0872 374.725L26.2612 324.242L54.0872 274.551L81.9132 324.242L54.0872 374.725Z" fill="#A2001D"/>
<path d="M137.565 49.692L129.687 35.624C115.557 43.996 102.304 53.689 90.0933 64.533L109.739 100.174L137.565 49.692Z" fill="#A2001D"/>
<path d="M109.739 411.826L89.8853 447.282C102.085 458.14 115.329 467.848 129.453 476.237L137.566 461.518L109.739 411.826Z" fill="#A2001D"/>
<path d="M159.826 322.783V491.646C190.595 504.743 224.448 512 260 512C370.071 512 463.906 442.528 500.077 345.043L159.826 322.783Z" fill="#6DA544"/>
<path d="M500.077 345.043C510.368 317.31 516 287.314 516 256C516 114.616 401.384 0 260 0C224.451 0 190.595 7.253 159.826 20.348V345.044H500.077V345.043Z" fill="#A2001D"/>
</g>
<defs>
<filter id="filter0_dd_105_947" x="0" y="0" width="520" height="520" filterUnits="userSpaceOnUse" color-interpolation-filters="sRGB">
<feFlood flood-opacity="0" result="BackgroundImageFix"/>
<feColorMatrix in="SourceAlpha" type="matrix" values="0 0 0 0 0 0 0 0 0 0 0 0 0 0 0 0 0 0 127 0" result="hardAlpha"/>
<feOffset dy="4"/>
<feGaussianBlur stdDeviation="2"/>
<feComposite in2="hardAlpha" operator="out"/>
<feColorMatrix type="matrix" values="0 0 0 0 0 0 0 0 0 0 0 0 0 0 0 0 0 0 0.25 0"/>
<feBlend mode="normal" in2="BackgroundImageFix" result="effect1_dropShadow_105_947"/>
<feColorMatrix in="SourceAlpha" type="matrix" values="0 0 0 0 0 0 0 0 0 0 0 0 0 0 0 0 0 0 127 0" result="hardAlpha"/>
<feOffset dy="4"/>
<feGaussianBlur stdDeviation="2"/>
<feComposite in2="hardAlpha" operator="out"/>
<feColorMatrix type="matrix" values="0 0 0 0 0 0 0 0 0 0 0 0 0 0 0 0 0 0 0.25 0"/>
<feBlend mode="normal" in2="effect1_dropShadow_105_947" result="effect2_dropShadow_105_947"/>
<feBlend mode="normal" in="SourceGraphic" in2="effect2_dropShadow_105_947" result="shape"/>
</filter>
<clipPath id="clip0_105_947">
<rect width="512" height="512" fill="white" transform="translate(4)"/>
</clipPath>
</defs>
</svg>
