<svg width="520" height="520" viewBox="0 0 520 520" fill="none" xmlns="http://www.w3.org/2000/svg">
<g clip-path="url(#clip0_105_958)" filter="url(#filter0_dd_105_958)">
<path d="M349.043 15.923C321.31 5.633 291.314 0 260 0C228.686 0 198.69 5.633 170.957 15.923L148.696 256L170.957 496.077C198.69 506.368 228.686 512 260 512C291.314 512 321.31 506.368 349.043 496.077L371.304 256L349.043 15.923Z" fill="#FFDA44"/>
<path d="M516 256C516 145.93 446.528 52.0941 349.043 15.9241V496.079C446.528 459.906 516 366.072 516 256Z" fill="#D80027"/>
<path d="M4 256C4 366.072 73.472 459.906 170.957 496.078V15.9241C73.472 52.0941 4 145.93 4 256Z" fill="black"/>
</g>
<defs>
<filter id="filter0_dd_105_958" x="0" y="0" width="520" height="520" filterUnits="userSpaceOnUse" color-interpolation-filters="sRGB">
<feFlood flood-opacity="0" result="BackgroundImageFix"/>
<feColorMatrix in="SourceAlpha" type="matrix" values="0 0 0 0 0 0 0 0 0 0 0 0 0 0 0 0 0 0 127 0" result="hardAlpha"/>
<feOffset dy="4"/>
<feGaussianBlur stdDeviation="2"/>
<feComposite in2="hardAlpha" operator="out"/>
<feColorMatrix type="matrix" values="0 0 0 0 0 0 0 0 0 0 0 0 0 0 0 0 0 0 0.25 0"/>
<feBlend mode="normal" in2="BackgroundImageFix" result="effect1_dropShadow_105_958"/>
<feColorMatrix in="SourceAlpha" type="matrix" values="0 0 0 0 0 0 0 0 0 0 0 0 0 0 0 0 0 0 127 0" result="hardAlpha"/>
<feOffset dy="4"/>
<feGaussianBlur stdDeviation="2"/>
<feComposite in2="hardAlpha" operator="out"/>
<feColorMatrix type="matrix" values="0 0 0 0 0 0 0 0 0 0 0 0 0 0 0 0 0 0 0.25 0"/>
<feBlend mode="normal" in2="effect1_dropShadow_105_958" result="effect2_dropShadow_105_958"/>
<feBlend mode="normal" in="SourceGraphic" in2="effect2_dropShadow_105_958" result="shape"/>
</filter>
<clipPath id="clip0_105_958">
<rect width="512" height="512" fill="white" transform="translate(4)"/>
</clipPath>
</defs>
</svg>
