<svg width="520" height="520" viewBox="0 0 520 520" fill="none" xmlns="http://www.w3.org/2000/svg">
<g clip-path="url(#clip0_105_997)" filter="url(#filter0_dd_105_997)">
<path d="M516 256.001C516 224.687 510.368 194.69 500.077 166.958L260 155.827L19.923 166.957C9.632 194.69 4 224.687 4 256.001C4 287.315 9.632 317.312 19.923 345.044L260 356.175L500.077 345.045C510.368 317.312 516 287.315 516 256.001Z" fill="#FFDA44"/>
<path d="M260 512.001C370.071 512.001 463.906 442.529 500.077 345.044H19.923C56.094 442.529 149.929 512.001 260 512.001Z" fill="#6DA544"/>
<path d="M19.923 166.958H500.078C463.906 69.473 370.071 0.000976562 260 0.000976562C149.929 0.000976562 56.094 69.473 19.923 166.958Z" fill="#D80027"/>
</g>
<defs>
<filter id="filter0_dd_105_997" x="0" y="0.000976562" width="520" height="520" filterUnits="userSpaceOnUse" color-interpolation-filters="sRGB">
<feFlood flood-opacity="0" result="BackgroundImageFix"/>
<feColorMatrix in="SourceAlpha" type="matrix" values="0 0 0 0 0 0 0 0 0 0 0 0 0 0 0 0 0 0 127 0" result="hardAlpha"/>
<feOffset dy="4"/>
<feGaussianBlur stdDeviation="2"/>
<feComposite in2="hardAlpha" operator="out"/>
<feColorMatrix type="matrix" values="0 0 0 0 0 0 0 0 0 0 0 0 0 0 0 0 0 0 0.25 0"/>
<feBlend mode="normal" in2="BackgroundImageFix" result="effect1_dropShadow_105_997"/>
<feColorMatrix in="SourceAlpha" type="matrix" values="0 0 0 0 0 0 0 0 0 0 0 0 0 0 0 0 0 0 127 0" result="hardAlpha"/>
<feOffset dy="4"/>
<feGaussianBlur stdDeviation="2"/>
<feComposite in2="hardAlpha" operator="out"/>
<feColorMatrix type="matrix" values="0 0 0 0 0 0 0 0 0 0 0 0 0 0 0 0 0 0 0.25 0"/>
<feBlend mode="normal" in2="effect1_dropShadow_105_997" result="effect2_dropShadow_105_997"/>
<feBlend mode="normal" in="SourceGraphic" in2="effect2_dropShadow_105_997" result="shape"/>
</filter>
<clipPath id="clip0_105_997">
<rect width="512" height="512" fill="white" transform="translate(4 0.000976562)"/>
</clipPath>
</defs>
</svg>
