<svg width="520" height="520" viewBox="0 0 520 520" fill="none" xmlns="http://www.w3.org/2000/svg">
<g clip-path="url(#clip0_105_1019)" filter="url(#filter0_dd_105_1019)">
<path d="M260 512C401.385 512 516 397.385 516 256C516 114.615 401.385 0 260 0C118.615 0 4 114.615 4 256C4 397.385 118.615 512 260 512Z" fill="#6DA544"/>
<path d="M260 100.174L471.478 256L260 411.826L48.522 256L260 100.174Z" fill="#FFDA44"/>
<path d="M260 345.043C309.177 345.043 349.043 305.177 349.043 256C349.043 206.823 309.177 166.957 260 166.957C210.823 166.957 170.957 206.823 170.957 256C170.957 305.177 210.823 345.043 260 345.043Z" fill="#F0F0F0"/>
<path d="M215.478 250.435C199.994 250.435 185.051 252.79 170.985 257.16C171.608 305.8 211.212 345.044 260 345.044C290.168 345.044 316.812 330.027 332.919 307.076C305.362 272.579 262.961 250.435 215.478 250.435Z" fill="#0052B4"/>
<path d="M347.393 273.06C348.465 267.536 349.044 261.837 349.044 256C349.044 206.822 309.178 166.957 260.001 166.957C223.307 166.957 191.807 189.158 178.175 220.856C190.225 218.359 202.701 217.044 215.48 217.044C267.197 217.043 313.983 238.541 347.393 273.06Z" fill="#0052B4"/>
</g>
<defs>
<filter id="filter0_dd_105_1019" x="0" y="0" width="520" height="520" filterUnits="userSpaceOnUse" color-interpolation-filters="sRGB">
<feFlood flood-opacity="0" result="BackgroundImageFix"/>
<feColorMatrix in="SourceAlpha" type="matrix" values="0 0 0 0 0 0 0 0 0 0 0 0 0 0 0 0 0 0 127 0" result="hardAlpha"/>
<feOffset dy="4"/>
<feGaussianBlur stdDeviation="2"/>
<feComposite in2="hardAlpha" operator="out"/>
<feColorMatrix type="matrix" values="0 0 0 0 0 0 0 0 0 0 0 0 0 0 0 0 0 0 0.25 0"/>
<feBlend mode="normal" in2="BackgroundImageFix" result="effect1_dropShadow_105_1019"/>
<feColorMatrix in="SourceAlpha" type="matrix" values="0 0 0 0 0 0 0 0 0 0 0 0 0 0 0 0 0 0 127 0" result="hardAlpha"/>
<feOffset dy="4"/>
<feGaussianBlur stdDeviation="2"/>
<feComposite in2="hardAlpha" operator="out"/>
<feColorMatrix type="matrix" values="0 0 0 0 0 0 0 0 0 0 0 0 0 0 0 0 0 0 0.25 0"/>
<feBlend mode="normal" in2="effect1_dropShadow_105_1019" result="effect2_dropShadow_105_1019"/>
<feBlend mode="normal" in="SourceGraphic" in2="effect2_dropShadow_105_1019" result="shape"/>
</filter>
<clipPath id="clip0_105_1019">
<rect width="512" height="512" fill="white" transform="translate(4)"/>
</clipPath>
</defs>
</svg>
