<svg width="521" height="520" viewBox="0 0 521 520" fill="none" xmlns="http://www.w3.org/2000/svg">
<g clip-path="url(#clip0_105_1123)" filter="url(#filter0_dd_105_1123)">
<path d="M4.98828 256.001C4.98828 114.617 119.604 0.000976562 260.988 0.000976562C402.372 0.000976562 516.988 114.617 516.988 256.001C505.858 256.001 260.988 289.392 260.988 289.392L4.98828 256.001Z" fill="#D80027"/>
<path d="M516.988 256.001C516.988 397.385 402.372 512.001 260.988 512.001C119.604 512.001 4.98828 397.385 4.98828 256.001" fill="#6DA544"/>
<path d="M260.987 166.958L280.324 226.476H342.911L292.279 263.262L311.617 322.784L260.987 285.999L210.356 322.784L229.697 263.262L179.064 226.476H241.648L260.987 166.958Z" fill="#FFDA44"/>
</g>
<defs>
<filter id="filter0_dd_105_1123" x="0.988281" y="0.000976562" width="520" height="520" filterUnits="userSpaceOnUse" color-interpolation-filters="sRGB">
<feFlood flood-opacity="0" result="BackgroundImageFix"/>
<feColorMatrix in="SourceAlpha" type="matrix" values="0 0 0 0 0 0 0 0 0 0 0 0 0 0 0 0 0 0 127 0" result="hardAlpha"/>
<feOffset dy="4"/>
<feGaussianBlur stdDeviation="2"/>
<feComposite in2="hardAlpha" operator="out"/>
<feColorMatrix type="matrix" values="0 0 0 0 0 0 0 0 0 0 0 0 0 0 0 0 0 0 0.25 0"/>
<feBlend mode="normal" in2="BackgroundImageFix" result="effect1_dropShadow_105_1123"/>
<feColorMatrix in="SourceAlpha" type="matrix" values="0 0 0 0 0 0 0 0 0 0 0 0 0 0 0 0 0 0 127 0" result="hardAlpha"/>
<feOffset dy="4"/>
<feGaussianBlur stdDeviation="2"/>
<feComposite in2="hardAlpha" operator="out"/>
<feColorMatrix type="matrix" values="0 0 0 0 0 0 0 0 0 0 0 0 0 0 0 0 0 0 0.25 0"/>
<feBlend mode="normal" in2="effect1_dropShadow_105_1123" result="effect2_dropShadow_105_1123"/>
<feBlend mode="normal" in="SourceGraphic" in2="effect2_dropShadow_105_1123" result="shape"/>
</filter>
<clipPath id="clip0_105_1123">
<rect width="512" height="512" fill="white" transform="translate(4.98828 0.000976562)"/>
</clipPath>
</defs>
</svg>
