<svg width="520" height="520" viewBox="0 0 520 520" fill="none" xmlns="http://www.w3.org/2000/svg">
<g clip-path="url(#clip0_105_1178)" filter="url(#filter0_dd_105_1178)">
<path d="M516 256C516 397.384 401.384 512 260 512C118.616 512 4 397.384 4 256C4 256.061 260 0.028 260 0C401.384 0 516 114.616 516 256Z" fill="#0052B4"/>
<path d="M259.315 256H260C260 255.77 260 255.546 260 255.315C259.772 255.544 259.544 255.772 259.315 256Z" fill="#F0F0F0"/>
<path d="M260 133.565C260 88.52 260 59.005 260 0H259.957C118.591 0.024 4 114.629 4 256H137.565V180.789L212.776 256H259.316C259.544 255.772 259.772 255.544 260.001 255.315C260.001 238.068 260.001 222.679 260.001 208.778L184.788 133.565H260Z" fill="#F0F0F0"/>
<path d="M371.304 189.218C395.893 189.218 415.826 169.285 415.826 144.696C415.826 120.107 395.893 100.174 371.304 100.174C346.715 100.174 326.782 120.107 326.782 144.696C326.782 169.285 346.715 189.218 371.304 189.218Z" fill="#6DA544"/>
<path d="M133.515 33.391C93.4761 56.19 60.1891 89.476 37.3911 129.515V256H104.174V100.176V100.174H260C260 79.111 260 59.045 260 33.391H133.515Z" fill="#D80027"/>
<path d="M260 224.519L169.045 133.566H137.565V133.568L259.998 256H260C260 256 260 234.293 260 224.519Z" fill="#D80027"/>
<path d="M293.391 133.565H449.217V200.348H293.391V133.565Z" fill="#D80027"/>
<path d="M293.391 300.522V345.044H316.815C330.86 358.808 350.085 367.305 371.304 367.305C392.523 367.305 411.748 358.808 425.793 345.044H426.956H449.217V300.522H293.391Z" fill="#FFDA44"/>
<path d="M293.391 189.217V256C293.391 315.639 371.304 333.913 371.304 333.913C371.304 333.913 449.217 315.639 449.217 256V189.217H293.391Z" fill="#338AF3"/>
<path d="M371.3 224.889C351.823 224.889 351.823 242.698 332.346 242.698C312.869 242.698 312.869 224.889 293.392 224.889V256.054C312.869 256.054 312.869 273.863 332.346 273.863C351.823 273.863 351.823 256.054 371.3 256.054C390.779 256.054 390.779 273.863 410.259 273.863C429.739 273.863 429.738 256.054 449.218 256.054V224.889C429.739 224.889 429.739 242.698 410.259 242.698C390.779 242.698 390.779 224.889 371.3 224.889Z" fill="#F3F3F3"/>
<path d="M371.3 162.504C351.823 162.504 351.823 180.313 332.346 180.313C312.869 180.313 312.869 162.504 293.392 162.504V193.669C312.869 193.669 312.869 211.478 332.346 211.478C351.823 211.478 351.823 193.669 371.3 193.669C390.779 193.669 390.779 211.478 410.259 211.478C429.739 211.478 429.738 193.669 449.218 193.669V162.504C429.739 162.504 429.739 180.313 410.259 180.313C390.779 180.313 390.779 162.504 371.3 162.504Z" fill="#F3F3F3"/>
</g>
<defs>
<filter id="filter0_dd_105_1178" x="0" y="0" width="520" height="520" filterUnits="userSpaceOnUse" color-interpolation-filters="sRGB">
<feFlood flood-opacity="0" result="BackgroundImageFix"/>
<feColorMatrix in="SourceAlpha" type="matrix" values="0 0 0 0 0 0 0 0 0 0 0 0 0 0 0 0 0 0 127 0" result="hardAlpha"/>
<feOffset dy="4"/>
<feGaussianBlur stdDeviation="2"/>
<feComposite in2="hardAlpha" operator="out"/>
<feColorMatrix type="matrix" values="0 0 0 0 0 0 0 0 0 0 0 0 0 0 0 0 0 0 0.25 0"/>
<feBlend mode="normal" in2="BackgroundImageFix" result="effect1_dropShadow_105_1178"/>
<feColorMatrix in="SourceAlpha" type="matrix" values="0 0 0 0 0 0 0 0 0 0 0 0 0 0 0 0 0 0 127 0" result="hardAlpha"/>
<feOffset dy="4"/>
<feGaussianBlur stdDeviation="2"/>
<feComposite in2="hardAlpha" operator="out"/>
<feColorMatrix type="matrix" values="0 0 0 0 0 0 0 0 0 0 0 0 0 0 0 0 0 0 0.25 0"/>
<feBlend mode="normal" in2="effect1_dropShadow_105_1178" result="effect2_dropShadow_105_1178"/>
<feBlend mode="normal" in="SourceGraphic" in2="effect2_dropShadow_105_1178" result="shape"/>
</filter>
<clipPath id="clip0_105_1178">
<rect width="512" height="512" fill="white" transform="translate(4)"/>
</clipPath>
</defs>
</svg>
