<svg width="520" height="520" viewBox="0 0 520 520" fill="none" xmlns="http://www.w3.org/2000/svg">
<g clip-path="url(#clip0_105_1280)" filter="url(#filter0_dd_105_1280)">
<path d="M516 256C516 397.384 401.384 512 260 512C118.616 512 4 397.384 4 256C4 256.061 260 0.028 260 0C401.384 0 516 114.616 516 256Z" fill="#0052B4"/>
<path d="M259.315 256H260C260 255.77 260 255.546 260 255.315C259.772 255.544 259.544 255.772 259.315 256Z" fill="#F0F0F0"/>
<path d="M260 133.565C260 88.52 260 59.005 260 0H259.957C118.591 0.024 4 114.629 4 256H137.565V180.789L212.776 256H259.316C259.544 255.772 259.772 255.544 260.001 255.315C260.001 238.068 260.001 222.679 260.001 208.778L184.788 133.565H260Z" fill="#F0F0F0"/>
<path d="M133.515 33.391C93.4761 56.19 60.1891 89.476 37.3911 129.515V256H104.174V100.176V100.174H260C260 79.111 260 59.045 260 33.391H133.515Z" fill="#D80027"/>
<path d="M260 224.519L169.045 133.566H137.565V133.568L259.998 256H260C260 256 260 234.293 260 224.519Z" fill="#D80027"/>
<path d="M349.043 256L353.781 270.576H369.106L356.708 279.584L361.444 294.161L349.043 285.152L336.644 294.161L341.38 279.584L328.982 270.576H344.307L349.043 256Z" fill="#F0F0F0"/>
<path d="M286.081 282.081L299.736 289.038L310.574 278.201L308.176 293.339L321.832 300.297L306.694 302.693L304.297 317.833L297.338 304.176L282.201 306.574L293.04 295.737L286.081 282.081Z" fill="#F0F0F0"/>
<path d="M260 345.043L274.576 340.307L274.578 324.983L283.584 337.38L298.161 332.643L289.152 345.043L298.161 357.444L283.584 352.708L274.578 365.106V349.781L260 345.043Z" fill="#F0F0F0"/>
<path d="M286.081 408.006L293.038 394.35L282.201 383.514L297.339 385.911L304.297 372.255L306.694 387.393L321.832 389.789L308.176 396.748L310.574 411.887L299.736 401.047L286.081 408.006Z" fill="#F0F0F0"/>
<path d="M349.043 434.087L344.307 419.51H328.981L341.38 410.502L336.644 395.926L349.043 404.934L361.444 395.926L356.708 410.502L369.106 419.51H353.781L349.043 434.087Z" fill="#F0F0F0"/>
<path d="M412.006 408.006L398.35 401.05L387.514 411.887L389.911 396.748L376.255 389.791L391.393 387.393L393.791 372.255L400.748 385.911L415.886 383.514L405.047 394.351L412.006 408.006Z" fill="#F0F0F0"/>
<path d="M438.087 345.043L423.51 349.781V365.106L414.502 352.707L399.926 357.444L408.935 345.043L399.926 332.643L414.502 337.38L423.51 324.983V340.307L438.087 345.043Z" fill="#F0F0F0"/>
<path d="M412.006 282.082L405.05 295.737L415.886 306.574L400.748 304.176L393.791 317.833L391.393 302.693L376.255 300.296L389.911 293.339L387.514 278.202L398.351 289.038L412.006 282.082Z" fill="#F0F0F0"/>
</g>
<defs>
<filter id="filter0_dd_105_1280" x="0" y="0" width="520" height="520" filterUnits="userSpaceOnUse" color-interpolation-filters="sRGB">
<feFlood flood-opacity="0" result="BackgroundImageFix"/>
<feColorMatrix in="SourceAlpha" type="matrix" values="0 0 0 0 0 0 0 0 0 0 0 0 0 0 0 0 0 0 127 0" result="hardAlpha"/>
<feOffset dy="4"/>
<feGaussianBlur stdDeviation="2"/>
<feComposite in2="hardAlpha" operator="out"/>
<feColorMatrix type="matrix" values="0 0 0 0 0 0 0 0 0 0 0 0 0 0 0 0 0 0 0.25 0"/>
<feBlend mode="normal" in2="BackgroundImageFix" result="effect1_dropShadow_105_1280"/>
<feColorMatrix in="SourceAlpha" type="matrix" values="0 0 0 0 0 0 0 0 0 0 0 0 0 0 0 0 0 0 127 0" result="hardAlpha"/>
<feOffset dy="4"/>
<feGaussianBlur stdDeviation="2"/>
<feComposite in2="hardAlpha" operator="out"/>
<feColorMatrix type="matrix" values="0 0 0 0 0 0 0 0 0 0 0 0 0 0 0 0 0 0 0.25 0"/>
<feBlend mode="normal" in2="effect1_dropShadow_105_1280" result="effect2_dropShadow_105_1280"/>
<feBlend mode="normal" in="SourceGraphic" in2="effect2_dropShadow_105_1280" result="shape"/>
</filter>
<clipPath id="clip0_105_1280">
<rect width="512" height="512" fill="white" transform="translate(4)"/>
</clipPath>
</defs>
</svg>
