<svg width="520" height="521" viewBox="0 0 520 521" fill="none" xmlns="http://www.w3.org/2000/svg">
<g clip-path="url(#clip0_105_1377)" filter="url(#filter0_dd_105_1377)">
<path d="M260 512.989C401.385 512.989 516 398.374 516 256.989C516 115.604 401.385 0.989258 260 0.989258C118.615 0.989258 4 115.604 4 256.989C4 398.374 118.615 512.989 260 512.989Z" fill="#F0F0F0"/>
<path d="M310.087 508.076C411.29 488 491.011 408.278 511.087 307.076H310.087V508.076Z" fill="#496E2D"/>
<path d="M8.91296 307.076C28.988 408.278 108.71 488 209.913 508.076V307.076H8.91296Z" fill="#496E2D"/>
<path d="M511.087 206.902C491.011 105.7 411.29 25.9783 310.087 5.90225V206.902H511.087Z" fill="#496E2D"/>
<path d="M209.913 5.90225C108.71 25.9783 28.988 105.7 8.91296 206.902H209.913V5.90225Z" fill="#496E2D"/>
<path d="M243.304 307.076H209.913V508.076C220.81 510.237 231.957 511.701 243.304 512.432V307.076Z" fill="#FFDA44"/>
<path d="M243.304 206.902V1.54626C231.957 2.27626 220.809 3.74126 209.913 5.90226V206.902H243.304Z" fill="#FFDA44"/>
<path d="M276.696 1.54626C271.174 1.18926 265.611 0.989258 260 0.989258C254.389 0.989258 248.826 1.18926 243.304 1.54626V206.903H276.695V1.54626H276.696Z" fill="black"/>
<path d="M243.304 512.432C248.826 512.789 254.389 512.989 260 512.989C265.611 512.989 271.174 512.789 276.696 512.432V307.076H243.305V512.432H243.304Z" fill="black"/>
<path d="M209.913 240.293V206.902H8.91301C6.75101 217.8 5.28701 228.946 4.55701 240.293H209.913Z" fill="#FFDA44"/>
<path d="M310.087 240.293H515.444C514.714 228.946 513.249 217.8 511.088 206.902H310.088V240.293H310.087Z" fill="#FFDA44"/>
<path d="M310.087 273.685H515.444C515.8 268.164 516 262.6 516 256.989C516 251.378 515.8 245.814 515.443 240.293H310.087V273.685Z" fill="black"/>
<path d="M4.557 240.293C4.201 245.814 4 251.378 4 256.989C4 262.6 4.201 268.164 4.557 273.685H209.914V240.294H4.557V240.293Z" fill="black"/>
<path d="M260 379.424C327.619 379.424 382.435 324.608 382.435 256.989C382.435 189.37 327.619 134.554 260 134.554C192.381 134.554 137.565 189.37 137.565 256.989C137.565 324.608 192.381 379.424 260 379.424Z" fill="#D80027"/>
<path d="M287.894 270.649C278.787 252.436 266.95 233.976 266.95 233.976C266.95 233.976 267.244 225.571 267.244 220.563C267.244 213.019 261.128 206.903 253.584 206.903C246.437 206.903 240.581 212.394 239.984 219.385C234.364 219.752 229.917 224.414 229.917 230.126C229.917 234.279 232.27 237.878 235.714 239.677C237.426 235.673 240.778 232.547 244.924 231.122C245.6 231.675 246.326 232.169 247.101 232.588L248.851 233.426C248.851 233.426 242.362 251.717 242.362 261.543C242.362 289.167 260.576 297.686 260.576 297.686V297.971L251.469 307.077H269.682V288.863L278.789 297.97C278.869 297.799 296.039 286.94 287.894 270.649Z" fill="#496E2D"/>
<path d="M260 156.815L264.144 169.569H277.554L266.705 177.452L270.85 190.206L260 182.324L249.15 190.206L253.295 177.452L242.446 169.569H255.856L260 156.815Z" fill="#496E2D"/>
<path d="M201.12 175.947L211.968 183.83L222.818 175.946L218.674 188.702L229.524 196.583L216.113 196.584L211.969 209.338L207.824 196.584L194.414 196.583L205.263 188.7L201.12 175.947Z" fill="#496E2D"/>
<path d="M164.729 226.034H178.138L182.283 213.28L186.427 226.034L199.838 226.033L188.989 233.917L193.134 246.671L182.283 238.788L171.434 246.67L175.577 233.916L164.729 226.034Z" fill="#496E2D"/>
<path d="M164.729 287.944L175.577 280.063L171.433 267.308L182.283 275.191L193.133 267.308L188.989 280.062L199.839 287.945L186.427 287.946L182.283 300.699L178.138 287.944H164.729Z" fill="#496E2D"/>
<path d="M201.12 338.031L205.263 325.279L194.413 317.396H207.824L211.969 304.641L216.113 317.395H229.524L218.674 325.279L222.818 338.032L211.968 330.149L201.12 338.031Z" fill="#496E2D"/>
<path d="M260 357.163L255.856 344.411H242.446L253.295 336.527L249.15 323.773L260 331.654L270.849 323.772L266.705 336.527L277.554 344.41L264.144 344.411L260 357.163Z" fill="#496E2D"/>
<path d="M318.88 338.031L308.032 330.149L297.183 338.033L301.326 325.279L290.476 317.396L303.887 317.395L308.03 304.641L312.176 317.396H325.586L314.737 325.279L318.88 338.031Z" fill="#496E2D"/>
<path d="M355.271 287.944H341.862L337.717 300.699L333.573 287.946H320.161L331.011 280.062L326.866 267.309L337.717 275.191L348.565 267.309L344.423 280.063L355.271 287.944Z" fill="#496E2D"/>
<path d="M355.271 226.034L344.423 233.916L348.566 246.67L337.717 238.788L326.867 246.672L331.011 233.917L320.161 226.035L333.573 226.033L337.716 213.281L341.862 226.034H355.271Z" fill="#496E2D"/>
<path d="M318.88 175.947L314.737 188.7L325.586 196.583H312.176L308.032 209.338L303.887 196.584L290.476 196.585L301.326 188.7L297.182 175.948L308.032 183.829L318.88 175.947Z" fill="#496E2D"/>
</g>
<defs>
<filter id="filter0_dd_105_1377" x="0" y="0.989258" width="520" height="520" filterUnits="userSpaceOnUse" color-interpolation-filters="sRGB">
<feFlood flood-opacity="0" result="BackgroundImageFix"/>
<feColorMatrix in="SourceAlpha" type="matrix" values="0 0 0 0 0 0 0 0 0 0 0 0 0 0 0 0 0 0 127 0" result="hardAlpha"/>
<feOffset dy="4"/>
<feGaussianBlur stdDeviation="2"/>
<feComposite in2="hardAlpha" operator="out"/>
<feColorMatrix type="matrix" values="0 0 0 0 0 0 0 0 0 0 0 0 0 0 0 0 0 0 0.25 0"/>
<feBlend mode="normal" in2="BackgroundImageFix" result="effect1_dropShadow_105_1377"/>
<feColorMatrix in="SourceAlpha" type="matrix" values="0 0 0 0 0 0 0 0 0 0 0 0 0 0 0 0 0 0 127 0" result="hardAlpha"/>
<feOffset dy="4"/>
<feGaussianBlur stdDeviation="2"/>
<feComposite in2="hardAlpha" operator="out"/>
<feColorMatrix type="matrix" values="0 0 0 0 0 0 0 0 0 0 0 0 0 0 0 0 0 0 0.25 0"/>
<feBlend mode="normal" in2="effect1_dropShadow_105_1377" result="effect2_dropShadow_105_1377"/>
<feBlend mode="normal" in="SourceGraphic" in2="effect2_dropShadow_105_1377" result="shape"/>
</filter>
<clipPath id="clip0_105_1377">
<rect width="512" height="512" fill="white" transform="translate(4 0.989258)"/>
</clipPath>
</defs>
</svg>
