<svg width="520" height="520" viewBox="0 0 520 520" fill="none" xmlns="http://www.w3.org/2000/svg">
<g clip-path="url(#clip0_105_1512)" filter="url(#filter0_dd_105_1512)">
<path d="M260 512C401.385 512 516 397.385 516 256C516 114.615 401.385 0 260 0C118.615 0 4 114.615 4 256C4 397.385 118.615 512 260 512Z" fill="#F0F0F0"/>
<path d="M513.833 222.609H204.349H204.348V6.08496C180.69 11.331 158.261 19.834 137.565 31.127V222.607V222.608H6.167C4.742 233.539 4 244.683 4 256C4 267.317 4.742 278.461 6.167 289.391H137.564H137.565V480.872C158.261 492.164 180.69 500.669 204.348 505.914V289.394V289.392H513.833C515.256 278.461 516 267.317 516 256C516 244.683 515.256 233.539 513.833 222.609Z" fill="#0052B4"/>
</g>
<defs>
<filter id="filter0_dd_105_1512" x="0" y="0" width="520" height="520" filterUnits="userSpaceOnUse" color-interpolation-filters="sRGB">
<feFlood flood-opacity="0" result="BackgroundImageFix"/>
<feColorMatrix in="SourceAlpha" type="matrix" values="0 0 0 0 0 0 0 0 0 0 0 0 0 0 0 0 0 0 127 0" result="hardAlpha"/>
<feOffset dy="4"/>
<feGaussianBlur stdDeviation="2"/>
<feComposite in2="hardAlpha" operator="out"/>
<feColorMatrix type="matrix" values="0 0 0 0 0 0 0 0 0 0 0 0 0 0 0 0 0 0 0.25 0"/>
<feBlend mode="normal" in2="BackgroundImageFix" result="effect1_dropShadow_105_1512"/>
<feColorMatrix in="SourceAlpha" type="matrix" values="0 0 0 0 0 0 0 0 0 0 0 0 0 0 0 0 0 0 127 0" result="hardAlpha"/>
<feOffset dy="4"/>
<feGaussianBlur stdDeviation="2"/>
<feComposite in2="hardAlpha" operator="out"/>
<feColorMatrix type="matrix" values="0 0 0 0 0 0 0 0 0 0 0 0 0 0 0 0 0 0 0.25 0"/>
<feBlend mode="normal" in2="effect1_dropShadow_105_1512" result="effect2_dropShadow_105_1512"/>
<feBlend mode="normal" in="SourceGraphic" in2="effect2_dropShadow_105_1512" result="shape"/>
</filter>
<clipPath id="clip0_105_1512">
<rect width="512" height="512" fill="white" transform="translate(4)"/>
</clipPath>
</defs>
</svg>
