<svg width="520" height="520" viewBox="0 0 520 520" fill="none" xmlns="http://www.w3.org/2000/svg">
<g clip-path="url(#clip0_105_1975)" filter="url(#filter0_dd_105_1975)">
<path d="M371.304 25.402C337.648 9.128 299.89 0 260 0C220.11 0 182.352 9.128 148.696 25.402L126.435 256L148.696 486.598C182.352 502.872 220.11 512 260 512C299.89 512 337.648 502.872 371.304 486.598L393.565 256L371.304 25.402Z" fill="#FFDA44"/>
<path d="M148.696 25.4109C63.066 66.8179 4 154.507 4 256C4 357.493 63.066 445.182 148.696 486.589V25.4109Z" fill="#0052B4"/>
<path d="M371.304 25.4109V486.589C456.934 445.182 516 357.493 516 256C516 154.507 456.934 66.8179 371.304 25.4109Z" fill="#D80027"/>
<path d="M349.043 201.419H287.826C287.826 186.051 275.368 173.593 260 173.593C244.632 173.593 232.174 186.051 232.174 201.419H170.957C170.957 216.55 184.138 228.815 199.267 228.815H198.355C198.355 243.947 210.621 256.214 225.753 256.214C225.753 269.611 235.375 280.743 248.083 283.123L226.493 331.865C236.838 336.07 248.144 338.407 260 338.407C271.855 338.407 283.162 336.07 293.506 331.865L271.917 283.123C284.625 280.743 294.247 269.611 294.247 256.214C309.379 256.214 321.645 243.947 321.645 228.815H320.732C335.863 228.815 349.043 216.549 349.043 201.419Z" fill="#FF9811"/>
<path d="M260 239.304L223.826 256V289.391L260 311.652L296.174 289.391V256L260 239.304Z" fill="#0052B4"/>
<path d="M223.826 222.609H296.174V256H223.826V222.609Z" fill="#D80027"/>
</g>
<defs>
<filter id="filter0_dd_105_1975" x="0" y="0" width="520" height="520" filterUnits="userSpaceOnUse" color-interpolation-filters="sRGB">
<feFlood flood-opacity="0" result="BackgroundImageFix"/>
<feColorMatrix in="SourceAlpha" type="matrix" values="0 0 0 0 0 0 0 0 0 0 0 0 0 0 0 0 0 0 127 0" result="hardAlpha"/>
<feOffset dy="4"/>
<feGaussianBlur stdDeviation="2"/>
<feComposite in2="hardAlpha" operator="out"/>
<feColorMatrix type="matrix" values="0 0 0 0 0 0 0 0 0 0 0 0 0 0 0 0 0 0 0.25 0"/>
<feBlend mode="normal" in2="BackgroundImageFix" result="effect1_dropShadow_105_1975"/>
<feColorMatrix in="SourceAlpha" type="matrix" values="0 0 0 0 0 0 0 0 0 0 0 0 0 0 0 0 0 0 127 0" result="hardAlpha"/>
<feOffset dy="4"/>
<feGaussianBlur stdDeviation="2"/>
<feComposite in2="hardAlpha" operator="out"/>
<feColorMatrix type="matrix" values="0 0 0 0 0 0 0 0 0 0 0 0 0 0 0 0 0 0 0.25 0"/>
<feBlend mode="normal" in2="effect1_dropShadow_105_1975" result="effect2_dropShadow_105_1975"/>
<feBlend mode="normal" in="SourceGraphic" in2="effect2_dropShadow_105_1975" result="shape"/>
</filter>
<clipPath id="clip0_105_1975">
<rect width="512" height="512" fill="white" transform="translate(4)"/>
</clipPath>
</defs>
</svg>
