<svg width="521" height="520" viewBox="0 0 521 520" fill="none" xmlns="http://www.w3.org/2000/svg">
<g clip-path="url(#clip0_105_2088)" filter="url(#filter0_dd_105_2088)">
<path d="M260.988 512C402.373 512 516.988 397.385 516.988 256C516.988 114.615 402.373 0 260.988 0C119.603 0 4.98828 114.615 4.98828 256C4.98828 397.385 119.603 512 260.988 512Z" fill="#F0F0F0"/>
<path d="M260.988 0C159.494 0 71.7981 59.065 30.3901 144.696H491.585C450.178 59.065 362.481 0 260.988 0Z" fill="#338AF3"/>
<path d="M260.988 512C362.481 512 450.178 452.935 491.586 367.304H30.3901C71.7981 452.935 159.494 512 260.988 512Z" fill="#338AF3"/>
<path d="M260.988 178.087C217.958 178.087 183.075 212.97 183.075 256C183.075 299.03 217.958 333.913 260.988 333.913C304.018 333.913 338.901 299.03 338.901 256C338.901 212.97 304.018 178.087 260.988 178.087ZM260.988 300.522C236.4 300.522 216.466 280.59 216.466 256C216.466 231.41 236.399 211.478 260.988 211.478C285.577 211.478 305.51 231.41 305.51 256C305.51 280.59 285.576 300.522 260.988 300.522Z" fill="#FFDA44"/>
<path d="M299.546 267.13L260.988 256L222.43 267.13L209.578 289.391H312.397L299.546 267.13Z" fill="#0052B4"/>
<path d="M260.988 200.348L235.283 244.87L260.988 256L286.693 244.87L260.988 200.348Z" fill="#338AF3"/>
<path d="M222.43 267.13H299.546L286.693 244.87H235.283L222.43 267.13Z" fill="#6DA544"/>
</g>
<defs>
<filter id="filter0_dd_105_2088" x="0.988281" y="0" width="520" height="520" filterUnits="userSpaceOnUse" color-interpolation-filters="sRGB">
<feFlood flood-opacity="0" result="BackgroundImageFix"/>
<feColorMatrix in="SourceAlpha" type="matrix" values="0 0 0 0 0 0 0 0 0 0 0 0 0 0 0 0 0 0 127 0" result="hardAlpha"/>
<feOffset dy="4"/>
<feGaussianBlur stdDeviation="2"/>
<feComposite in2="hardAlpha" operator="out"/>
<feColorMatrix type="matrix" values="0 0 0 0 0 0 0 0 0 0 0 0 0 0 0 0 0 0 0.25 0"/>
<feBlend mode="normal" in2="BackgroundImageFix" result="effect1_dropShadow_105_2088"/>
<feColorMatrix in="SourceAlpha" type="matrix" values="0 0 0 0 0 0 0 0 0 0 0 0 0 0 0 0 0 0 127 0" result="hardAlpha"/>
<feOffset dy="4"/>
<feGaussianBlur stdDeviation="2"/>
<feComposite in2="hardAlpha" operator="out"/>
<feColorMatrix type="matrix" values="0 0 0 0 0 0 0 0 0 0 0 0 0 0 0 0 0 0 0.25 0"/>
<feBlend mode="normal" in2="effect1_dropShadow_105_2088" result="effect2_dropShadow_105_2088"/>
<feBlend mode="normal" in="SourceGraphic" in2="effect2_dropShadow_105_2088" result="shape"/>
</filter>
<clipPath id="clip0_105_2088">
<rect width="512" height="512" fill="white" transform="translate(4.98828)"/>
</clipPath>
</defs>
</svg>
