<svg width="520" height="520" viewBox="0 0 520 520" fill="none" xmlns="http://www.w3.org/2000/svg">
<g clip-path="url(#clip0_105_2393)" filter="url(#filter0_dd_105_2393)">
<path d="M500.077 345.042C510.368 317.309 516 287.313 516 255.999C516 224.685 510.368 194.689 500.077 166.956L260 144.695L19.923 166.956C9.632 194.689 4 224.685 4 255.999C4 287.313 9.632 317.309 19.923 345.042L260 367.303L500.077 345.042Z" fill="#F0F0F0"/>
<path d="M260 511.999C370.07 511.999 463.906 442.527 500.076 345.042H19.9219C56.0939 442.527 149.928 511.999 260 511.999Z" fill="#338AF3"/>
<path d="M260 -0.000976562C149.928 -0.000976562 56.0939 69.471 19.9219 166.956H500.077C463.906 69.471 370.07 -0.000976562 260 -0.000976562Z" fill="#6DA544"/>
</g>
<defs>
<filter id="filter0_dd_105_2393" x="0" y="-0.000976562" width="520" height="520" filterUnits="userSpaceOnUse" color-interpolation-filters="sRGB">
<feFlood flood-opacity="0" result="BackgroundImageFix"/>
<feColorMatrix in="SourceAlpha" type="matrix" values="0 0 0 0 0 0 0 0 0 0 0 0 0 0 0 0 0 0 127 0" result="hardAlpha"/>
<feOffset dy="4"/>
<feGaussianBlur stdDeviation="2"/>
<feComposite in2="hardAlpha" operator="out"/>
<feColorMatrix type="matrix" values="0 0 0 0 0 0 0 0 0 0 0 0 0 0 0 0 0 0 0.25 0"/>
<feBlend mode="normal" in2="BackgroundImageFix" result="effect1_dropShadow_105_2393"/>
<feColorMatrix in="SourceAlpha" type="matrix" values="0 0 0 0 0 0 0 0 0 0 0 0 0 0 0 0 0 0 127 0" result="hardAlpha"/>
<feOffset dy="4"/>
<feGaussianBlur stdDeviation="2"/>
<feComposite in2="hardAlpha" operator="out"/>
<feColorMatrix type="matrix" values="0 0 0 0 0 0 0 0 0 0 0 0 0 0 0 0 0 0 0.25 0"/>
<feBlend mode="normal" in2="effect1_dropShadow_105_2393" result="effect2_dropShadow_105_2393"/>
<feBlend mode="normal" in="SourceGraphic" in2="effect2_dropShadow_105_2393" result="shape"/>
</filter>
<clipPath id="clip0_105_2393">
<rect width="512" height="512" fill="white" transform="translate(4 -0.000976562)"/>
</clipPath>
</defs>
</svg>
