<svg width="521" height="520" viewBox="0 0 521 520" fill="none" xmlns="http://www.w3.org/2000/svg">
<g clip-path="url(#clip0_105_2531)" filter="url(#filter0_dd_105_2531)">
<path d="M383.013 31.128C346.642 11.284 304.928 0.000976562 260.578 0.000976562C216.228 0.000976562 174.514 11.284 138.143 31.128L115.882 256.001L138.143 480.874C174.514 500.718 216.228 512.001 260.578 512.001C304.928 512.001 346.642 500.718 383.013 480.874L405.274 256.001L383.013 31.128Z" fill="#FFDA44"/>
<path d="M138.143 480.872V31.127C58.5671 74.547 4.57812 158.966 4.57812 256.001C4.57812 353.036 58.5671 437.455 138.143 480.872Z" fill="#338AF3"/>
<path d="M516.578 256.001C516.578 158.966 462.589 74.547 383.013 31.127V480.872C462.589 437.455 516.578 353.036 516.578 256.001Z" fill="#6DA544"/>
<path d="M204.926 322.784L160.403 256.001L204.925 189.218L249.449 256.001L204.926 322.784Z" fill="#6DA544"/>
<path d="M316.23 322.784L271.708 256.001L316.23 189.218L360.752 256.001L316.23 322.784Z" fill="#6DA544"/>
<path d="M260.578 411.827L216.056 345.044L260.578 278.262L305.1 345.044L260.578 411.827Z" fill="#6DA544"/>
</g>
<defs>
<filter id="filter0_dd_105_2531" x="0.578125" y="0.000976562" width="520" height="520" filterUnits="userSpaceOnUse" color-interpolation-filters="sRGB">
<feFlood flood-opacity="0" result="BackgroundImageFix"/>
<feColorMatrix in="SourceAlpha" type="matrix" values="0 0 0 0 0 0 0 0 0 0 0 0 0 0 0 0 0 0 127 0" result="hardAlpha"/>
<feOffset dy="4"/>
<feGaussianBlur stdDeviation="2"/>
<feComposite in2="hardAlpha" operator="out"/>
<feColorMatrix type="matrix" values="0 0 0 0 0 0 0 0 0 0 0 0 0 0 0 0 0 0 0.25 0"/>
<feBlend mode="normal" in2="BackgroundImageFix" result="effect1_dropShadow_105_2531"/>
<feColorMatrix in="SourceAlpha" type="matrix" values="0 0 0 0 0 0 0 0 0 0 0 0 0 0 0 0 0 0 127 0" result="hardAlpha"/>
<feOffset dy="4"/>
<feGaussianBlur stdDeviation="2"/>
<feComposite in2="hardAlpha" operator="out"/>
<feColorMatrix type="matrix" values="0 0 0 0 0 0 0 0 0 0 0 0 0 0 0 0 0 0 0.25 0"/>
<feBlend mode="normal" in2="effect1_dropShadow_105_2531" result="effect2_dropShadow_105_2531"/>
<feBlend mode="normal" in="SourceGraphic" in2="effect2_dropShadow_105_2531" result="shape"/>
</filter>
<clipPath id="clip0_105_2531">
<rect width="512" height="512" fill="white" transform="translate(4.57812 0.000976562)"/>
</clipPath>
</defs>
</svg>
