<svg width="521" height="520" viewBox="0 0 521 520" fill="none" xmlns="http://www.w3.org/2000/svg">
<g clip-path="url(#clip0_105_2539)" filter="url(#filter0_dd_105_2539)">
<path d="M29.9801 144.696C13.7061 178.352 4.57812 216.109 4.57812 256C4.57812 295.891 13.7061 333.648 29.9801 367.304L260.578 389.565L491.176 367.304C507.45 333.648 516.578 295.891 516.578 256C516.578 216.109 507.45 178.352 491.176 144.696L260.578 122.435L29.9801 144.696Z" fill="#F0F0F0"/>
<path d="M29.9893 367.304C71.3953 452.935 159.084 512 260.578 512C362.072 512 449.761 452.935 491.167 367.304H29.9893Z" fill="black"/>
<path d="M29.9893 144.696H491.167C449.761 59.065 362.072 0 260.578 0C159.084 0 71.3953 59.065 29.9893 144.696Z" fill="#D80027"/>
<path d="M79.5581 74.98C-20.4159 174.954 -20.4159 337.045 79.5581 437.02C120.871 395.707 160.604 355.974 260.578 256L79.5581 74.98Z" fill="#496E2D"/>
</g>
<defs>
<filter id="filter0_dd_105_2539" x="0.578125" y="0" width="520" height="520" filterUnits="userSpaceOnUse" color-interpolation-filters="sRGB">
<feFlood flood-opacity="0" result="BackgroundImageFix"/>
<feColorMatrix in="SourceAlpha" type="matrix" values="0 0 0 0 0 0 0 0 0 0 0 0 0 0 0 0 0 0 127 0" result="hardAlpha"/>
<feOffset dy="4"/>
<feGaussianBlur stdDeviation="2"/>
<feComposite in2="hardAlpha" operator="out"/>
<feColorMatrix type="matrix" values="0 0 0 0 0 0 0 0 0 0 0 0 0 0 0 0 0 0 0.25 0"/>
<feBlend mode="normal" in2="BackgroundImageFix" result="effect1_dropShadow_105_2539"/>
<feColorMatrix in="SourceAlpha" type="matrix" values="0 0 0 0 0 0 0 0 0 0 0 0 0 0 0 0 0 0 127 0" result="hardAlpha"/>
<feOffset dy="4"/>
<feGaussianBlur stdDeviation="2"/>
<feComposite in2="hardAlpha" operator="out"/>
<feColorMatrix type="matrix" values="0 0 0 0 0 0 0 0 0 0 0 0 0 0 0 0 0 0 0.25 0"/>
<feBlend mode="normal" in2="effect1_dropShadow_105_2539" result="effect2_dropShadow_105_2539"/>
<feBlend mode="normal" in="SourceGraphic" in2="effect2_dropShadow_105_2539" result="shape"/>
</filter>
<clipPath id="clip0_105_2539">
<rect width="512" height="512" fill="white" transform="translate(4.57812)"/>
</clipPath>
</defs>
</svg>
