<svg width="520" height="520" viewBox="0 0 520 520" fill="none" xmlns="http://www.w3.org/2000/svg">
<g clip-path="url(#clip0_105_2645)" filter="url(#filter0_dd_105_2645)">
<path d="M260 511.999C401.385 511.999 516 397.384 516 255.999C516 114.614 401.385 -0.000976562 260 -0.000976562C118.615 -0.000976562 4 114.614 4 255.999C4 397.384 118.615 511.999 260 511.999Z" fill="#F0F0F0"/>
<path d="M170.957 133.564V100.173H137.565V133.564H104.174V166.956H137.565V200.347H170.957V166.956H204.348V133.564H170.957Z" fill="#D80027"/>
<path d="M260 -0.000976562V255.999C118.616 256 62.425 255.999 4 256C4 397.383 118.616 511.999 260 511.999C401.384 511.999 516 397.383 516 255.999C516 114.615 401.384 -0.000976562 260 -0.000976562Z" fill="#D80027"/>
</g>
<defs>
<filter id="filter0_dd_105_2645" x="0" y="-0.000976562" width="520" height="520" filterUnits="userSpaceOnUse" color-interpolation-filters="sRGB">
<feFlood flood-opacity="0" result="BackgroundImageFix"/>
<feColorMatrix in="SourceAlpha" type="matrix" values="0 0 0 0 0 0 0 0 0 0 0 0 0 0 0 0 0 0 127 0" result="hardAlpha"/>
<feOffset dy="4"/>
<feGaussianBlur stdDeviation="2"/>
<feComposite in2="hardAlpha" operator="out"/>
<feColorMatrix type="matrix" values="0 0 0 0 0 0 0 0 0 0 0 0 0 0 0 0 0 0 0.25 0"/>
<feBlend mode="normal" in2="BackgroundImageFix" result="effect1_dropShadow_105_2645"/>
<feColorMatrix in="SourceAlpha" type="matrix" values="0 0 0 0 0 0 0 0 0 0 0 0 0 0 0 0 0 0 127 0" result="hardAlpha"/>
<feOffset dy="4"/>
<feGaussianBlur stdDeviation="2"/>
<feComposite in2="hardAlpha" operator="out"/>
<feColorMatrix type="matrix" values="0 0 0 0 0 0 0 0 0 0 0 0 0 0 0 0 0 0 0.25 0"/>
<feBlend mode="normal" in2="effect1_dropShadow_105_2645" result="effect2_dropShadow_105_2645"/>
<feBlend mode="normal" in="SourceGraphic" in2="effect2_dropShadow_105_2645" result="shape"/>
</filter>
<clipPath id="clip0_105_2645">
<rect width="512" height="512" fill="white" transform="translate(4 -0.000976562)"/>
</clipPath>
</defs>
</svg>
