<svg width="520" height="520" viewBox="0 0 520 520" fill="none" xmlns="http://www.w3.org/2000/svg">
<g clip-path="url(#clip0_105_2650)" filter="url(#filter0_dd_105_2650)">
<path d="M507.181 189.217C477.805 80.221 378.279 0 260 0C141.721 0 42.1953 80.221 12.8193 189.217L260 200.348L507.181 189.217Z" fill="#A2001D"/>
<path d="M12.8193 322.783C42.1953 431.778 141.721 512 260 512C378.279 512 477.805 431.779 507.181 322.783L260 311.652L12.8193 322.783Z" fill="#A2001D"/>
<path d="M507.181 189.217H12.819C7.08 210.51 4 232.893 4 256C4 279.107 7.08 301.49 12.819 322.783H507.182C512.92 301.49 516 279.107 516 256C516 232.893 512.92 210.51 507.181 189.217Z" fill="#6DA544"/>
</g>
<defs>
<filter id="filter0_dd_105_2650" x="0" y="0" width="520" height="520" filterUnits="userSpaceOnUse" color-interpolation-filters="sRGB">
<feFlood flood-opacity="0" result="BackgroundImageFix"/>
<feColorMatrix in="SourceAlpha" type="matrix" values="0 0 0 0 0 0 0 0 0 0 0 0 0 0 0 0 0 0 127 0" result="hardAlpha"/>
<feOffset dy="4"/>
<feGaussianBlur stdDeviation="2"/>
<feComposite in2="hardAlpha" operator="out"/>
<feColorMatrix type="matrix" values="0 0 0 0 0 0 0 0 0 0 0 0 0 0 0 0 0 0 0.25 0"/>
<feBlend mode="normal" in2="BackgroundImageFix" result="effect1_dropShadow_105_2650"/>
<feColorMatrix in="SourceAlpha" type="matrix" values="0 0 0 0 0 0 0 0 0 0 0 0 0 0 0 0 0 0 127 0" result="hardAlpha"/>
<feOffset dy="4"/>
<feGaussianBlur stdDeviation="2"/>
<feComposite in2="hardAlpha" operator="out"/>
<feColorMatrix type="matrix" values="0 0 0 0 0 0 0 0 0 0 0 0 0 0 0 0 0 0 0.25 0"/>
<feBlend mode="normal" in2="effect1_dropShadow_105_2650" result="effect2_dropShadow_105_2650"/>
<feBlend mode="normal" in="SourceGraphic" in2="effect2_dropShadow_105_2650" result="shape"/>
</filter>
<clipPath id="clip0_105_2650">
<rect width="512" height="512" fill="white" transform="translate(4)"/>
</clipPath>
</defs>
</svg>
