<svg width="520" height="520" viewBox="0 0 520 520" fill="none" xmlns="http://www.w3.org/2000/svg">
<g clip-path="url(#clip0_105_2672)" filter="url(#filter0_dd_105_2672)">
<path d="M259.999 0C240.885 0 222.266 2.113 204.348 6.085L193.218 255.999L204.348 505.914C222.267 509.886 240.886 512 259.999 512C401.384 512 515.999 397.384 515.999 255.999C515.998 114.615 401.384 0 259.999 0V0Z" fill="#496E2D"/>
<path d="M70.783 83.5708C29.299 129.067 4.00098 189.577 4.00098 255.999C4.00098 322.421 29.3 382.931 70.784 428.429L81.914 255.999L70.783 83.5708Z" fill="#496E2D"/>
<path d="M378.421 193.099C391.016 157.993 376.866 119.812 346.499 100.796C351.961 101.507 357.429 102.793 362.825 104.728C403.328 119.26 424.382 163.872 409.85 204.374C395.318 244.879 350.706 265.931 310.203 251.399C304.806 249.463 299.767 246.978 295.1 244.055C330.63 248.682 365.826 228.205 378.421 193.099Z" fill="#F0F0F0"/>
<path d="M308.564 91.1729L297.619 105.315L280.79 99.2759L290.856 114.054L279.913 128.194L297.078 123.188L307.146 137.964L307.686 120.092L324.852 115.085L308.023 109.048L308.564 91.1729Z" fill="#F0F0F0"/>
<path d="M338.116 137.252L327.171 151.393L310.341 145.354L320.408 160.132L309.464 174.272L326.629 169.264L336.697 184.043L337.239 166.17L354.404 161.162L337.574 155.124L338.116 137.252Z" fill="#F0F0F0"/>
<path d="M256.46 107.955L245.515 122.095L228.686 116.058L238.753 130.835L227.809 144.976L244.973 139.969L255.041 154.746L255.583 136.874L272.748 131.867L255.919 125.828L256.46 107.955Z" fill="#F0F0F0"/>
<path d="M255.26 160.737L244.316 174.878L227.486 168.84L237.554 183.618L226.608 197.758L243.775 192.752L253.842 207.528L254.383 189.656L271.549 184.649L254.718 178.61L255.26 160.737Z" fill="#F0F0F0"/>
<path d="M305.486 178.758L294.541 192.898L277.712 186.86L287.78 201.638L276.834 215.777L294.001 210.771L304.068 225.549L304.609 207.675L321.775 202.669L304.944 196.631L305.486 178.758Z" fill="#F0F0F0"/>
<path d="M70.783 83.571V428.428C105.663 466.682 151.993 494.307 204.348 505.913V6.08496C151.992 17.691 105.664 45.316 70.783 83.571Z" fill="#D80027"/>
<path d="M121.753 134.785L99.3921 118.127V94.5701L121.753 77.9131H153.378L175.739 94.5701V118.127L153.378 134.785H121.753Z" fill="#F0F0F0"/>
<path d="M137.566 77.9131H121.753L99.3921 94.5701V106.087H137.566V77.9131Z" fill="#FF9811"/>
<path d="M137.566 134.785H153.378L175.739 118.127V106.11H137.566V134.785Z" fill="#FF9811"/>
<path d="M121.753 434.085L99.3921 417.427V393.871L121.753 377.213H153.378L175.739 393.871V417.427L153.378 434.085H121.753Z" fill="#F0F0F0"/>
<path d="M137.566 377.213H121.753L99.3921 393.871V405.388H137.566V377.213Z" fill="#FF9811"/>
<path d="M137.566 434.085H153.378L175.739 417.427V405.411H137.566V434.085Z" fill="#FF9811"/>
<path d="M121.753 284.435L99.3921 267.777V244.221L121.753 227.563H153.378L175.739 244.221V267.777L153.378 284.435H121.753Z" fill="#496E2D"/>
<path d="M176.522 321.085H166.782V311.346H149.667L137.565 299.244L125.464 311.346H108.349V321.085H98.6101V340.563H108.349V350.302H125.463L137.566 362.405L149.667 350.302H166.782V340.563H176.522V321.085Z" fill="#496E2D"/>
<path d="M176.522 171.434H166.782V161.694H149.667L137.565 149.592L125.464 161.694H108.349V171.434H98.6101V190.912H108.349V200.651H125.463L137.566 212.755L149.667 200.651H166.782V190.912H176.522V171.434Z" fill="#496E2D"/>
<path d="M126.434 244.868H148.695V267.129H126.434V244.868Z" fill="#D80027"/>
<path d="M137.564 192.299C143.711 192.299 148.694 187.316 148.694 181.169C148.694 175.022 143.711 170.039 137.564 170.039C131.417 170.039 126.434 175.022 126.434 181.169C126.434 187.316 131.417 192.299 137.564 192.299Z" fill="#D80027"/>
<path d="M137.564 341.958C143.711 341.958 148.694 336.975 148.694 330.828C148.694 324.681 143.711 319.698 137.564 319.698C131.417 319.698 126.434 324.681 126.434 330.828C126.434 336.975 131.417 341.958 137.564 341.958Z" fill="#D80027"/>
</g>
<defs>
<filter id="filter0_dd_105_2672" x="0" y="0" width="520" height="520" filterUnits="userSpaceOnUse" color-interpolation-filters="sRGB">
<feFlood flood-opacity="0" result="BackgroundImageFix"/>
<feColorMatrix in="SourceAlpha" type="matrix" values="0 0 0 0 0 0 0 0 0 0 0 0 0 0 0 0 0 0 127 0" result="hardAlpha"/>
<feOffset dy="4"/>
<feGaussianBlur stdDeviation="2"/>
<feComposite in2="hardAlpha" operator="out"/>
<feColorMatrix type="matrix" values="0 0 0 0 0 0 0 0 0 0 0 0 0 0 0 0 0 0 0.25 0"/>
<feBlend mode="normal" in2="BackgroundImageFix" result="effect1_dropShadow_105_2672"/>
<feColorMatrix in="SourceAlpha" type="matrix" values="0 0 0 0 0 0 0 0 0 0 0 0 0 0 0 0 0 0 127 0" result="hardAlpha"/>
<feOffset dy="4"/>
<feGaussianBlur stdDeviation="2"/>
<feComposite in2="hardAlpha" operator="out"/>
<feColorMatrix type="matrix" values="0 0 0 0 0 0 0 0 0 0 0 0 0 0 0 0 0 0 0.25 0"/>
<feBlend mode="normal" in2="effect1_dropShadow_105_2672" result="effect2_dropShadow_105_2672"/>
<feBlend mode="normal" in="SourceGraphic" in2="effect2_dropShadow_105_2672" result="shape"/>
</filter>
<clipPath id="clip0_105_2672">
<rect width="512" height="512" fill="white" transform="translate(4)"/>
</clipPath>
</defs>
</svg>
