<svg width="520" height="520" viewBox="0 0 520 520" fill="none" xmlns="http://www.w3.org/2000/svg">
<g clip-path="url(#clip0_105_809)" filter="url(#filter0_dd_105_809)">
<path d="M148.696 486.598C182.352 502.872 220.109 512 260 512C299.891 512 337.648 502.872 371.304 486.598L393.565 256L371.304 25.402C337.648 9.128 299.891 0 260 0C220.109 0 182.352 9.128 148.696 25.402L126.435 256L148.696 486.598Z" fill="#FFDA44"/>
<path d="M371.304 486.589C456.935 445.183 516 357.493 516 256C516 154.507 456.935 66.8171 371.304 25.4111V486.589Z" fill="#D80027"/>
<path d="M148.696 486.589V25.4111C63.065 66.8171 4 154.506 4 256C4 357.494 63.065 445.183 148.696 486.589Z" fill="#0052B4"/>
<path d="M260 345.043C260 304.192 260 256 260 256H326.783V289.391C326.783 295.192 315.653 316.448 288.18 333.913C277.775 340.529 267.004 342.657 260 345.043Z" fill="#D80027"/>
<path d="M193.217 189.217H260V256H193.217V189.217Z" fill="#D80027"/>
<path d="M293.391 166.957C293.391 154.662 283.424 144.696 271.13 144.696C267.07 144.696 263.276 145.8 260 147.698C256.723 145.8 252.93 144.696 248.87 144.696C236.576 144.696 226.609 154.662 226.609 166.957H170.957V278.26C170.957 319.696 203.863 343.659 229.668 356.081C227.737 359.379 226.609 363.206 226.609 367.305C226.609 379.6 236.576 389.566 248.87 389.566C252.93 389.566 256.724 388.462 260 386.564C263.277 388.462 267.07 389.566 271.13 389.566C283.424 389.566 293.391 379.6 293.391 367.305C293.391 363.206 292.263 359.379 290.331 356.081C316.136 343.659 349.043 319.697 349.043 278.26V166.957H293.391ZM315.652 278.26C315.652 284.061 315.652 301.712 288.18 319.178C277.774 325.794 267.004 330.084 260 332.469C252.996 330.084 242.226 325.794 231.82 319.178C204.348 301.712 204.348 284.061 204.348 278.26V200.348H315.652V278.26Z" fill="#FF9811"/>
</g>
<defs>
<filter id="filter0_dd_105_809" x="0" y="0" width="520" height="520" filterUnits="userSpaceOnUse" color-interpolation-filters="sRGB">
<feFlood flood-opacity="0" result="BackgroundImageFix"/>
<feColorMatrix in="SourceAlpha" type="matrix" values="0 0 0 0 0 0 0 0 0 0 0 0 0 0 0 0 0 0 127 0" result="hardAlpha"/>
<feOffset dy="4"/>
<feGaussianBlur stdDeviation="2"/>
<feComposite in2="hardAlpha" operator="out"/>
<feColorMatrix type="matrix" values="0 0 0 0 0 0 0 0 0 0 0 0 0 0 0 0 0 0 0.25 0"/>
<feBlend mode="normal" in2="BackgroundImageFix" result="effect1_dropShadow_105_809"/>
<feColorMatrix in="SourceAlpha" type="matrix" values="0 0 0 0 0 0 0 0 0 0 0 0 0 0 0 0 0 0 127 0" result="hardAlpha"/>
<feOffset dy="4"/>
<feGaussianBlur stdDeviation="2"/>
<feComposite in2="hardAlpha" operator="out"/>
<feColorMatrix type="matrix" values="0 0 0 0 0 0 0 0 0 0 0 0 0 0 0 0 0 0 0.25 0"/>
<feBlend mode="normal" in2="effect1_dropShadow_105_809" result="effect2_dropShadow_105_809"/>
<feBlend mode="normal" in="SourceGraphic" in2="effect2_dropShadow_105_809" result="shape"/>
</filter>
<clipPath id="clip0_105_809">
<rect width="512" height="512" fill="white" transform="translate(4)"/>
</clipPath>
</defs>
</svg>
