<svg width="520" height="520" viewBox="0 0 520 520" fill="none" xmlns="http://www.w3.org/2000/svg">
<g clip-path="url(#clip0_105_824)" filter="url(#filter0_dd_105_824)">
<path d="M516 256C516 397.384 401.384 512 260 512C118.616 512 4 397.384 4 256C4 256.061 260 0.028 260 0C401.384 0 516 114.616 516 256Z" fill="#0052B4"/>
<path d="M259.315 256H260C260 255.77 260 255.546 260 255.315C259.772 255.544 259.544 255.772 259.315 256Z" fill="#F0F0F0"/>
<path d="M260 133.565C260 88.52 260 59.005 260 0H259.957C118.591 0.024 4 114.629 4 256H137.565V180.789L212.776 256H259.316C259.544 255.772 259.772 255.544 260.001 255.315C260.001 238.068 260.001 222.679 260.001 208.778L184.788 133.565H260Z" fill="#F0F0F0"/>
<path d="M133.515 33.3911C93.476 56.1901 60.189 89.4761 37.391 129.515V256H104.174V100.176V100.174H260C260 79.1111 260 59.0451 260 33.3911H133.515Z" fill="#D80027"/>
<path d="M260 224.519L169.045 133.566H137.565V133.568L259.998 256H260C260 256 260 234.293 260 224.519Z" fill="#D80027"/>
<path d="M436.939 293.474C444.3 283.346 449.217 270.978 449.217 256V144.696C439.915 151.684 428.355 155.826 415.826 155.826C397.62 155.826 381.457 147.083 371.304 133.567C361.15 147.083 344.987 155.826 326.782 155.826C314.252 155.826 302.692 151.683 293.391 144.698V256C293.391 270.978 298.308 283.346 305.669 293.474H436.939Z" fill="#F3F3F3"/>
<path d="M413.785 235.351C417.329 226.705 420.085 214.068 420.085 207.779C420.085 197.674 406.911 189.483 406.911 189.483C406.911 189.483 393.737 197.674 393.737 207.779C393.737 214.069 396.494 226.706 400.036 235.351L392.431 252.522C396.901 254.34 401.787 255.35 406.912 255.35C412.037 255.35 416.922 254.339 421.393 252.522L413.785 235.351Z" fill="#FF9811"/>
<path d="M362.294 179.752C353.038 181.006 340.715 184.941 335.269 188.085C326.518 193.138 326.01 208.641 326.01 208.641C326.01 208.641 339.692 215.954 348.442 210.902C353.89 207.757 363.454 199.053 369.167 191.661L387.843 189.661C387.182 184.883 385.61 180.146 383.051 175.709C380.487 171.272 377.172 167.544 373.362 164.581L362.294 179.752Z" fill="#FF9811"/>
<path d="M339.892 252.146C345.605 259.534 355.172 268.237 360.62 271.383C369.371 276.435 383.052 269.124 383.052 269.124C383.052 269.124 382.542 253.619 373.793 248.566C368.344 245.421 356.023 241.49 346.765 240.238L335.698 225.065C331.889 228.027 328.573 231.757 326.01 236.19C323.449 240.629 321.881 245.364 321.217 250.145L339.892 252.146Z" fill="#FF9811"/>
<path d="M302.916 289.394C323.704 322.749 371.305 333.914 371.305 333.914C371.305 333.914 418.905 322.749 439.694 289.394H302.916Z" fill="#338AF3"/>
</g>
<defs>
<filter id="filter0_dd_105_824" x="0" y="0" width="520" height="520" filterUnits="userSpaceOnUse" color-interpolation-filters="sRGB">
<feFlood flood-opacity="0" result="BackgroundImageFix"/>
<feColorMatrix in="SourceAlpha" type="matrix" values="0 0 0 0 0 0 0 0 0 0 0 0 0 0 0 0 0 0 127 0" result="hardAlpha"/>
<feOffset dy="4"/>
<feGaussianBlur stdDeviation="2"/>
<feComposite in2="hardAlpha" operator="out"/>
<feColorMatrix type="matrix" values="0 0 0 0 0 0 0 0 0 0 0 0 0 0 0 0 0 0 0.25 0"/>
<feBlend mode="normal" in2="BackgroundImageFix" result="effect1_dropShadow_105_824"/>
<feColorMatrix in="SourceAlpha" type="matrix" values="0 0 0 0 0 0 0 0 0 0 0 0 0 0 0 0 0 0 127 0" result="hardAlpha"/>
<feOffset dy="4"/>
<feGaussianBlur stdDeviation="2"/>
<feComposite in2="hardAlpha" operator="out"/>
<feColorMatrix type="matrix" values="0 0 0 0 0 0 0 0 0 0 0 0 0 0 0 0 0 0 0.25 0"/>
<feBlend mode="normal" in2="effect1_dropShadow_105_824" result="effect2_dropShadow_105_824"/>
<feBlend mode="normal" in="SourceGraphic" in2="effect2_dropShadow_105_824" result="shape"/>
</filter>
<clipPath id="clip0_105_824">
<rect width="512" height="512" fill="white" transform="translate(4)"/>
</clipPath>
</defs>
</svg>
