<svg width="520" height="520" viewBox="0 0 520 520" fill="none" xmlns="http://www.w3.org/2000/svg">
<g clip-path="url(#clip0_105_865)" filter="url(#filter0_dd_105_865)">
<path d="M516 256C516 397.384 401.384 512 260 512C118.616 512 4 397.384 4 256C4 256.06 260 0.029 260 0C401.384 0 516 114.616 516 256Z" fill="#0052B4"/>
<path d="M260 0C259.986 0 259.971 0.001 259.957 0.001L260 0Z" fill="#F0F0F0"/>
<path d="M259.315 256H260C260 255.768 260 255.546 260 255.315C259.772 255.544 259.544 255.772 259.315 256Z" fill="#F0F0F0"/>
<path d="M260 133.566C260 88.521 260 59.004 260 0.000976562H259.957C118.592 0.0239766 4 114.629 4 256H137.565V180.788L212.777 256H259.316C259.545 255.772 259.773 255.544 260.001 255.315C260.001 238.068 260.001 222.679 260.001 208.779L184.788 133.566H260Z" fill="#F0F0F0"/>
<path d="M133.515 33.3911C93.4761 56.1901 60.1901 89.4761 37.3911 129.515V256H104.174V100.175V100.174H260C260 79.1111 260 59.0451 260 33.3911H133.515Z" fill="#D80027"/>
<path d="M260 224.519L169.047 133.567H137.566C137.566 133.566 137.566 133.567 137.566 133.567L259.999 256H260C260 256 260 234.295 260 224.519Z" fill="#D80027"/>
<path d="M158.395 300.522L172.445 329.9L204.172 322.567L189.964 351.869L215.478 372.102L183.711 379.262L183.8 411.826L158.395 391.453L132.991 411.826L133.08 379.262L101.312 372.102L126.827 351.869L112.617 322.567L144.346 329.9L158.395 300.522Z" fill="#F0F0F0"/>
<path d="M387.284 356.174L394.309 370.863L410.173 367.196L403.068 381.847L415.826 391.964L399.942 395.544L399.986 411.826L387.284 401.639L374.582 411.826L374.626 395.544L358.743 391.964L371.5 381.847L364.396 367.196L380.259 370.863L387.284 356.174Z" fill="#F0F0F0"/>
<path d="M321.933 200.348L328.957 215.038L344.821 211.37L337.717 226.021L350.474 236.138L334.591 239.718L334.634 256L321.933 245.813L309.231 256L309.274 239.718L293.391 236.138L306.148 226.021L299.044 211.37L314.908 215.038L321.933 200.348Z" fill="#F0F0F0"/>
<path d="M387.284 111.304L394.309 125.994L410.173 122.327L403.069 136.978L415.825 147.094L399.942 150.675L399.986 166.957L387.284 156.77L374.582 166.957L374.626 150.675L358.743 147.094L371.499 136.978L364.396 122.327L380.259 125.994L387.284 111.304Z" fill="#F0F0F0"/>
<path d="M444.368 178.087L451.392 192.777L467.256 189.109L460.152 203.76L472.909 213.877L457.025 217.458L457.069 233.739L444.368 223.553L431.666 233.739L431.709 217.458L415.826 213.877L428.583 203.76L421.479 189.109L437.342 192.777L444.368 178.087Z" fill="#F0F0F0"/>
<path d="M403.55 256L409.075 273.006H426.957L412.49 283.517L418.017 300.522L403.55 290.012L389.084 300.522L394.609 283.517L380.143 273.006H398.024L403.55 256Z" fill="#F0F0F0"/>
</g>
<defs>
<filter id="filter0_dd_105_865" x="0" y="0" width="520" height="520" filterUnits="userSpaceOnUse" color-interpolation-filters="sRGB">
<feFlood flood-opacity="0" result="BackgroundImageFix"/>
<feColorMatrix in="SourceAlpha" type="matrix" values="0 0 0 0 0 0 0 0 0 0 0 0 0 0 0 0 0 0 127 0" result="hardAlpha"/>
<feOffset dy="4"/>
<feGaussianBlur stdDeviation="2"/>
<feComposite in2="hardAlpha" operator="out"/>
<feColorMatrix type="matrix" values="0 0 0 0 0 0 0 0 0 0 0 0 0 0 0 0 0 0 0.25 0"/>
<feBlend mode="normal" in2="BackgroundImageFix" result="effect1_dropShadow_105_865"/>
<feColorMatrix in="SourceAlpha" type="matrix" values="0 0 0 0 0 0 0 0 0 0 0 0 0 0 0 0 0 0 127 0" result="hardAlpha"/>
<feOffset dy="4"/>
<feGaussianBlur stdDeviation="2"/>
<feComposite in2="hardAlpha" operator="out"/>
<feColorMatrix type="matrix" values="0 0 0 0 0 0 0 0 0 0 0 0 0 0 0 0 0 0 0.25 0"/>
<feBlend mode="normal" in2="effect1_dropShadow_105_865" result="effect2_dropShadow_105_865"/>
<feBlend mode="normal" in="SourceGraphic" in2="effect2_dropShadow_105_865" result="shape"/>
</filter>
<clipPath id="clip0_105_865">
<rect width="512" height="512" fill="white" transform="translate(4)"/>
</clipPath>
</defs>
</svg>
