<svg width="520" height="520" viewBox="0 0 520 520" fill="none" xmlns="http://www.w3.org/2000/svg">
<g clip-path="url(#clip0_105_893)" filter="url(#filter0_dd_105_893)">
<path d="M260 512C401.385 512 516 397.385 516 256C516 114.615 401.385 0 260 0C118.615 0 4 114.615 4 256C4 397.385 118.615 512 260 512Z" fill="#F0F0F0"/>
<path d="M4 256C4 353.035 57.99 437.455 137.565 480.873V31.127C57.99 74.545 4 158.965 4 256Z" fill="#D80027"/>
<path d="M4 256C4 374.279 84.221 473.805 193.217 503.181V8.81885C84.221 38.1948 4 137.721 4 256Z" fill="#0052B4"/>
<path d="M95.8259 89.043V130.782C95.8259 151.529 112.644 168.347 133.391 168.347C154.138 168.347 170.956 151.529 170.956 130.782V89.043H95.8259Z" fill="#D80027"/>
<path d="M133.391 146.087C124.952 146.087 118.087 139.222 118.087 130.783V111.305H148.696V130.783C148.696 139.222 141.83 146.087 133.391 146.087Z" fill="#F0F0F0"/>
<path d="M282.261 267.13H215.478C215.478 254.836 205.511 244.869 193.217 244.869C180.923 244.869 170.956 254.836 170.956 267.13H104.173C104.173 279.425 114.882 289.391 127.175 289.391H126.434C126.434 301.686 136.399 311.652 148.695 311.652C148.695 323.947 158.66 333.913 170.956 333.913H215.478C227.772 333.913 237.739 323.947 237.739 311.652C250.033 311.652 260 301.686 260 289.391H259.259C271.552 289.391 282.261 279.425 282.261 267.13Z" fill="#FFDA44"/>
<path d="M291.409 231.507L285.565 240.864L292.654 249.312L281.95 246.647L276.105 256L275.334 244.995L264.63 242.326L274.861 238.194L274.091 227.189L281.182 235.641L291.409 231.507Z" fill="#FFDA44"/>
<path d="M257.306 202.892L255.015 213.683L264.568 219.198L253.596 220.356L251.303 231.144L246.815 221.066L235.844 222.218L244.043 214.836L239.557 204.76L249.109 210.275L257.306 202.892Z" fill="#FFDA44"/>
<path d="M215.476 187.668L217.011 198.593L227.874 200.508L217.96 205.344L219.495 216.269L211.833 208.333L201.917 213.169L207.096 203.428L199.433 195.494L210.298 197.408L215.476 187.668Z" fill="#FFDA44"/>
<path d="M170.959 187.668L176.139 197.408L187.002 195.493L179.339 203.43L184.518 213.17L174.604 208.333L166.94 216.267L168.476 205.344L158.561 200.509L169.424 198.593L170.959 187.668Z" fill="#FFDA44"/>
<path d="M129.128 202.892L137.326 210.275L146.878 204.76L142.394 214.84L150.589 222.219L139.62 221.066L135.131 231.144L132.841 220.354L121.869 219.202L131.421 213.684L129.128 202.892Z" fill="#FFDA44"/>
<path d="M95.026 231.507L105.257 235.641L112.344 227.19L111.578 238.197L121.805 242.33L111.1 244.996L110.328 256L104.487 246.647L93.783 249.314L100.874 240.864L95.026 231.507Z" fill="#FFDA44"/>
</g>
<defs>
<filter id="filter0_dd_105_893" x="0" y="0" width="520" height="520" filterUnits="userSpaceOnUse" color-interpolation-filters="sRGB">
<feFlood flood-opacity="0" result="BackgroundImageFix"/>
<feColorMatrix in="SourceAlpha" type="matrix" values="0 0 0 0 0 0 0 0 0 0 0 0 0 0 0 0 0 0 127 0" result="hardAlpha"/>
<feOffset dy="4"/>
<feGaussianBlur stdDeviation="2"/>
<feComposite in2="hardAlpha" operator="out"/>
<feColorMatrix type="matrix" values="0 0 0 0 0 0 0 0 0 0 0 0 0 0 0 0 0 0 0.25 0"/>
<feBlend mode="normal" in2="BackgroundImageFix" result="effect1_dropShadow_105_893"/>
<feColorMatrix in="SourceAlpha" type="matrix" values="0 0 0 0 0 0 0 0 0 0 0 0 0 0 0 0 0 0 127 0" result="hardAlpha"/>
<feOffset dy="4"/>
<feGaussianBlur stdDeviation="2"/>
<feComposite in2="hardAlpha" operator="out"/>
<feColorMatrix type="matrix" values="0 0 0 0 0 0 0 0 0 0 0 0 0 0 0 0 0 0 0.25 0"/>
<feBlend mode="normal" in2="effect1_dropShadow_105_893" result="effect2_dropShadow_105_893"/>
<feBlend mode="normal" in="SourceGraphic" in2="effect2_dropShadow_105_893" result="shape"/>
</filter>
<clipPath id="clip0_105_893">
<rect width="512" height="512" fill="white" transform="translate(4)"/>
</clipPath>
</defs>
</svg>
