<svg width="520" height="520" viewBox="0 0 520 520" fill="none" xmlns="http://www.w3.org/2000/svg">
<g clip-path="url(#clip0_105_925)" filter="url(#filter0_dd_105_925)">
<path d="M260 512C401.385 512 516 397.385 516 256C516 114.615 401.385 0 260 0C118.615 0 4 114.615 4 256C4 397.385 118.615 512 260 512Z" fill="#496E2D"/>
<path d="M204.348 367.304C265.819 367.304 315.652 317.472 315.652 256C315.652 194.529 265.819 144.696 204.348 144.696C142.876 144.696 93.0439 194.529 93.0439 256C93.0439 317.472 142.876 367.304 204.348 367.304Z" fill="#D80027"/>
</g>
<defs>
<filter id="filter0_dd_105_925" x="0" y="0" width="520" height="520" filterUnits="userSpaceOnUse" color-interpolation-filters="sRGB">
<feFlood flood-opacity="0" result="BackgroundImageFix"/>
<feColorMatrix in="SourceAlpha" type="matrix" values="0 0 0 0 0 0 0 0 0 0 0 0 0 0 0 0 0 0 127 0" result="hardAlpha"/>
<feOffset dy="4"/>
<feGaussianBlur stdDeviation="2"/>
<feComposite in2="hardAlpha" operator="out"/>
<feColorMatrix type="matrix" values="0 0 0 0 0 0 0 0 0 0 0 0 0 0 0 0 0 0 0.25 0"/>
<feBlend mode="normal" in2="BackgroundImageFix" result="effect1_dropShadow_105_925"/>
<feColorMatrix in="SourceAlpha" type="matrix" values="0 0 0 0 0 0 0 0 0 0 0 0 0 0 0 0 0 0 127 0" result="hardAlpha"/>
<feOffset dy="4"/>
<feGaussianBlur stdDeviation="2"/>
<feComposite in2="hardAlpha" operator="out"/>
<feColorMatrix type="matrix" values="0 0 0 0 0 0 0 0 0 0 0 0 0 0 0 0 0 0 0.25 0"/>
<feBlend mode="normal" in2="effect1_dropShadow_105_925" result="effect2_dropShadow_105_925"/>
<feBlend mode="normal" in="SourceGraphic" in2="effect2_dropShadow_105_925" result="shape"/>
</filter>
<clipPath id="clip0_105_925">
<rect width="512" height="512" fill="white" transform="translate(4)"/>
</clipPath>
</defs>
</svg>
