<svg width="520" height="520" viewBox="0 0 520 520" fill="none" xmlns="http://www.w3.org/2000/svg">
<g clip-path="url(#clip0_105_1026)" filter="url(#filter0_dd_105_1026)">
<path d="M4 256C4 114.616 118.616 0 260 0C401.384 0 516 114.616 516 256H4Z" fill="#F0F0F0"/>
<path d="M193.217 242.005L179.222 256H193.217V242.005Z" fill="#0052B4"/>
<path d="M326.783 242.006V256H340.777L326.783 242.006Z" fill="#0052B4"/>
<path d="M11.386 194.784C6.571 214.4 4 234.899 4 256H84.777L145.993 194.784H11.386Z" fill="#0052B4"/>
<path d="M374.005 194.784L435.221 256H516C516 234.899 513.428 214.4 508.614 194.784H374.005Z" fill="#0052B4"/>
<path d="M358.264 194.784H326.783L387.999 256H419.481L358.264 194.784Z" fill="#D80027"/>
<path d="M193.217 226.263V194.784H193.215L131.999 256H163.481L193.217 226.263Z" fill="#D80027"/>
<path d="M123.922 39.1421C113.37 45.7781 103.337 53.1601 93.896 61.2171H145.996L123.922 39.1421Z" fill="#0052B4"/>
<path d="M426.104 61.2171C416.663 53.1591 406.631 45.7771 396.08 39.1421L374.006 61.2171H426.104Z" fill="#0052B4"/>
<path d="M293.391 161.391H497.941C488.263 137.072 474.961 114.594 458.708 94.608H293.392H293.391V2.167C282.461 0.744 271.317 0 260 0C248.681 0 237.539 0.744 226.609 2.167V94.607V94.608H61.2921C45.0391 114.594 31.7371 137.072 22.0591 161.391H226.607H226.608V256H293.391V161.392V161.391Z" fill="#D80027"/>
<path d="M193.217 61.217V61.216L154.624 22.623C147.489 25.85 140.535 29.405 133.768 33.248L161.737 61.217H193.217Z" fill="#D80027"/>
<path d="M326.783 61.2169L365.377 22.624C358.036 19.305 350.509 16.329 342.819 13.7L326.783 29.7369V61.2169Z" fill="#D80027"/>
<path d="M516 256C516 397.384 401.384 512 260 512C118.616 512 4 397.384 4 256H516Z" fill="#F0F0F0"/>
<path d="M473.33 288.65C451.997 288.65 451.997 269.144 430.663 269.144C409.33 269.144 409.33 288.65 387.998 288.65C366.666 288.65 366.665 269.144 345.333 269.144C324 269.144 324 288.65 302.666 288.65C281.332 288.65 281.331 269.144 259.996 269.144C238.663 269.144 238.663 288.65 217.331 288.65C196.001 288.65 196.001 269.144 174.668 269.144C153.333 269.144 153.333 288.65 131.998 288.65C110.663 288.65 110.663 269.144 89.328 269.144C67.998 269.144 67.998 288.65 46.665 288.65C25.447 288.65 25.324 269.359 4.33301 269.153C4.92401 280.863 6.32201 292.359 8.43601 303.601C25.44 306.1 26.929 322.783 46.666 322.783C67.999 322.783 67.999 303.279 89.329 303.279C110.664 303.279 110.664 322.783 131.999 322.783C153.334 322.783 153.334 303.279 174.669 303.279C196.002 303.279 196.002 322.783 217.332 322.783C238.665 322.783 238.665 303.279 259.997 303.279C281.332 303.279 281.332 322.783 302.667 322.783C324.002 322.783 324.002 303.279 345.334 303.279C366.667 303.279 366.667 322.783 387.999 322.783C409.331 322.783 409.332 303.279 430.664 303.279C451.999 303.279 451.999 322.783 473.331 322.783C493.07 322.783 494.559 306.101 511.564 303.602C513.679 292.359 515.075 280.864 515.669 269.154C494.674 269.361 494.549 288.65 473.33 288.65Z" fill="#0052B4"/>
<path d="M430.663 335.927C409.33 335.927 409.33 355.433 387.998 355.433C366.666 355.433 366.665 335.927 345.333 335.927C324 335.927 324 355.433 302.666 355.433C281.331 355.433 281.331 335.927 259.996 335.927C238.663 335.927 238.663 355.433 217.331 355.433C196.001 355.433 196.001 335.927 174.668 335.927C153.333 335.927 153.333 355.433 131.998 355.433C110.663 355.433 110.663 335.927 89.328 335.927C67.998 335.927 67.998 355.433 46.665 355.433C31.422 355.433 27.068 345.477 18.043 339.789C24.051 357.148 31.867 373.661 41.28 389.097C42.917 389.399 44.699 389.566 46.665 389.566C67.998 389.566 67.998 370.062 89.328 370.062C110.663 370.062 110.663 389.566 131.998 389.566C153.333 389.566 153.333 370.062 174.668 370.062C196.001 370.062 196.001 389.566 217.331 389.566C238.664 389.566 238.664 370.062 259.996 370.062C281.331 370.062 281.331 389.566 302.666 389.566C324.001 389.566 324.001 370.062 345.333 370.062C366.666 370.062 366.666 389.566 387.998 389.566C409.33 389.566 409.331 370.062 430.663 370.062C451.998 370.062 451.998 389.566 473.33 389.566C475.297 389.566 477.08 389.399 478.717 389.096C488.13 373.661 495.946 357.148 501.956 339.79C492.93 345.475 488.576 355.433 473.33 355.433C451.998 355.433 451.998 335.927 430.663 335.927Z" fill="#0052B4"/>
<path d="M515.862 247.957C515.884 248.668 515.909 249.379 515.925 250.093C515.909 249.38 515.883 248.668 515.862 247.957Z" fill="#F0F0F0"/>
<path d="M4.0752 250.092C4.0922 249.379 4.1162 248.668 4.1382 247.956C4.1172 248.668 4.0912 249.38 4.0752 250.092Z" fill="#F0F0F0"/>
<path d="M4 256C4 254.025 4.03 252.058 4.075 250.092C4.029 252.058 4 254.025 4 256Z" fill="#F0F0F0"/>
<path d="M4 256C4 260.663 4.132 265.296 4.381 269.897C25.324 270.132 25.463 289.391 46.666 289.391C67.999 289.391 67.999 269.887 89.329 269.887C110.664 269.887 110.664 289.391 131.999 289.391C153.334 289.391 153.334 269.887 174.669 269.887C196.002 269.887 196.002 289.391 217.332 289.391C238.665 289.391 238.665 269.887 259.997 269.887C281.332 269.887 281.332 289.391 302.667 289.391C324.002 289.391 324.002 269.887 345.334 269.887C366.667 269.887 366.667 289.391 387.999 289.391C409.331 289.391 409.332 269.887 430.664 269.887C451.999 269.887 451.999 289.391 473.331 289.391C494.536 289.391 494.675 270.132 515.622 269.897C515.868 265.295 516 260.663 516 256H4Z" fill="#F0F0F0"/>
<path d="M515.925 250.092C515.97 252.056 516 254.024 516 256C516 254.025 515.971 252.058 515.925 250.092Z" fill="#F0F0F0"/>
<path d="M430.663 402.709C409.33 402.709 409.33 422.215 387.998 422.215C366.666 422.215 366.665 402.709 345.333 402.709C324 402.709 324 422.215 302.666 422.215C281.331 422.215 281.331 402.709 259.996 402.709C238.663 402.709 238.663 422.215 217.331 422.215C196.001 422.215 196.001 402.709 174.668 402.709C153.333 402.709 153.333 422.215 131.998 422.215C110.663 422.215 110.663 402.709 89.3282 402.709C74.5942 402.709 70.0352 412.013 61.5952 417.77C83.9842 445.196 111.954 467.88 143.759 484.122L260 478.266L376.24 484.121C408.044 467.878 436.014 445.197 458.403 417.771C449.959 412.015 445.4 402.709 430.663 402.709Z" fill="#0052B4"/>
<path d="M401.983 408.814L324.108 423.709L314.242 345.044L260 402.899L205.76 345.043L195.89 423.708L118.019 408.813L156.208 478.265L143.736 484.131C178.624 501.949 218.137 512 260 512C301.863 512 341.376 501.949 376.264 484.133L363.797 478.268L401.983 408.814Z" fill="#FFDA44"/>
</g>
<defs>
<filter id="filter0_dd_105_1026" x="0" y="0" width="520" height="520" filterUnits="userSpaceOnUse" color-interpolation-filters="sRGB">
<feFlood flood-opacity="0" result="BackgroundImageFix"/>
<feColorMatrix in="SourceAlpha" type="matrix" values="0 0 0 0 0 0 0 0 0 0 0 0 0 0 0 0 0 0 127 0" result="hardAlpha"/>
<feOffset dy="4"/>
<feGaussianBlur stdDeviation="2"/>
<feComposite in2="hardAlpha" operator="out"/>
<feColorMatrix type="matrix" values="0 0 0 0 0 0 0 0 0 0 0 0 0 0 0 0 0 0 0.25 0"/>
<feBlend mode="normal" in2="BackgroundImageFix" result="effect1_dropShadow_105_1026"/>
<feColorMatrix in="SourceAlpha" type="matrix" values="0 0 0 0 0 0 0 0 0 0 0 0 0 0 0 0 0 0 127 0" result="hardAlpha"/>
<feOffset dy="4"/>
<feGaussianBlur stdDeviation="2"/>
<feComposite in2="hardAlpha" operator="out"/>
<feColorMatrix type="matrix" values="0 0 0 0 0 0 0 0 0 0 0 0 0 0 0 0 0 0 0.25 0"/>
<feBlend mode="normal" in2="effect1_dropShadow_105_1026" result="effect2_dropShadow_105_1026"/>
<feBlend mode="normal" in="SourceGraphic" in2="effect2_dropShadow_105_1026" result="shape"/>
</filter>
<clipPath id="clip0_105_1026">
<rect width="512" height="512" fill="white" transform="translate(4)"/>
</clipPath>
</defs>
</svg>
