<svg width="520" height="520" viewBox="0 0 520 520" fill="none" xmlns="http://www.w3.org/2000/svg">
<g clip-path="url(#clip0_105_1151)" filter="url(#filter0_dd_105_1151)">
<path d="M260 512C401.385 512 516 397.385 516 256C516 114.615 401.385 0 260 0C118.615 0 4 114.615 4 256C4 397.385 118.615 512 260 512Z" fill="#F0F0F0"/>
<path d="M516 256C516 154.506 456.935 66.81 371.304 25.402V486.597C456.935 445.19 516 357.494 516 256Z" fill="#D80027"/>
<path d="M4 256C4 357.494 63.065 445.19 148.696 486.598V25.402C63.065 66.81 4 154.506 4 256Z" fill="#D80027"/>
<path d="M304.522 289.391L349.043 267.13L326.783 256V233.739L282.261 256L304.522 211.478H282.261L260 178.087L237.739 211.478H215.478L237.739 256L193.217 233.739V256L170.957 267.13L215.478 289.391L204.348 311.652H248.87V345.043H271.13V311.652H315.652L304.522 289.391Z" fill="#D80027"/>
</g>
<defs>
<filter id="filter0_dd_105_1151" x="0" y="0" width="520" height="520" filterUnits="userSpaceOnUse" color-interpolation-filters="sRGB">
<feFlood flood-opacity="0" result="BackgroundImageFix"/>
<feColorMatrix in="SourceAlpha" type="matrix" values="0 0 0 0 0 0 0 0 0 0 0 0 0 0 0 0 0 0 127 0" result="hardAlpha"/>
<feOffset dy="4"/>
<feGaussianBlur stdDeviation="2"/>
<feComposite in2="hardAlpha" operator="out"/>
<feColorMatrix type="matrix" values="0 0 0 0 0 0 0 0 0 0 0 0 0 0 0 0 0 0 0.25 0"/>
<feBlend mode="normal" in2="BackgroundImageFix" result="effect1_dropShadow_105_1151"/>
<feColorMatrix in="SourceAlpha" type="matrix" values="0 0 0 0 0 0 0 0 0 0 0 0 0 0 0 0 0 0 127 0" result="hardAlpha"/>
<feOffset dy="4"/>
<feGaussianBlur stdDeviation="2"/>
<feComposite in2="hardAlpha" operator="out"/>
<feColorMatrix type="matrix" values="0 0 0 0 0 0 0 0 0 0 0 0 0 0 0 0 0 0 0.25 0"/>
<feBlend mode="normal" in2="effect1_dropShadow_105_1151" result="effect2_dropShadow_105_1151"/>
<feBlend mode="normal" in="SourceGraphic" in2="effect2_dropShadow_105_1151" result="shape"/>
</filter>
<clipPath id="clip0_105_1151">
<rect width="512" height="512" fill="white" transform="translate(4)"/>
</clipPath>
</defs>
</svg>
