<svg width="520" height="520" viewBox="0 0 520 520" fill="none" xmlns="http://www.w3.org/2000/svg">
<g clip-path="url(#clip0_105_1161)" filter="url(#filter0_dd_105_1161)">
<path d="M260 512C401.385 512 516 397.385 516 256C516 114.615 401.385 0 260 0C118.615 0 4 114.615 4 256C4 397.385 118.615 512 260 512Z" fill="#F0F0F0"/>
<path d="M260 512C337.591 512 407.114 477.476 454.061 422.957H65.939C112.886 477.476 182.409 512 260 512Z" fill="#0052B4"/>
<path d="M516 256C516 114.616 401.384 0 260 0C118.616 0 4 114.616 4 256C4 279.107 7.08 301.489 12.819 322.783H507.182C512.92 301.489 516 279.107 516 256Z" fill="#0052B4"/>
<path d="M24.3479 356.174C29.2829 367.77 35.0519 378.922 41.5749 389.565H478.427C484.948 378.921 490.717 367.769 495.654 356.174H24.3479Z" fill="#D80027"/>
<path d="M186.99 272.696L191.134 285.45H204.545L193.696 293.333L197.84 306.087L186.99 298.204L176.14 306.087L180.285 293.333L169.436 285.45H182.847L186.99 272.696Z" fill="#FFDA44"/>
<path d="M186.99 439.652L191.134 452.407H204.545L193.696 460.289L197.84 473.043L186.99 465.161L176.14 473.043L180.285 460.289L169.436 452.407H182.847L186.99 439.652Z" fill="#FFDA44"/>
<path d="M109.274 383.189L113.418 395.942H126.829L115.98 403.824L120.124 416.58L109.274 408.697L98.424 416.58L102.57 403.824L91.72 395.942H105.13L109.274 383.189Z" fill="#FFDA44"/>
<path d="M138.959 289.391L143.103 302.146H156.513L145.665 310.028L149.809 322.783L138.959 314.9L128.109 322.783L132.255 310.028L121.404 302.146H134.815L138.959 289.391Z" fill="#FFDA44"/>
<path d="M91.72 341.915L105.128 341.916L109.273 329.159L113.418 341.915L126.829 341.914L115.979 349.797L120.124 362.552L109.273 354.669L98.424 362.549L102.568 349.796L91.72 341.915Z" fill="#FFDA44"/>
<path d="M128.11 453.911L132.254 441.159L121.403 433.277H134.814L138.959 420.522L143.104 433.276H156.514L145.664 441.158L149.808 453.914L138.958 446.03L128.11 453.911Z" fill="#FFDA44"/>
<path d="M264.677 383.189L260.534 395.942H247.123L257.971 403.824L253.827 416.58L264.677 408.697L275.527 416.58L271.382 403.824L282.232 395.942H268.821L264.677 383.189Z" fill="#FFDA44"/>
<path d="M234.992 289.391L230.849 302.146H217.438L228.286 310.028L224.142 322.783L234.992 314.9L245.842 322.783L241.697 310.028L252.547 302.146H239.136L234.992 289.391Z" fill="#FFDA44"/>
<path d="M282.232 341.915L268.823 341.916L264.678 329.159L260.534 341.915L247.123 341.914L257.972 349.797L253.827 362.552L264.678 354.669L275.527 362.549L271.383 349.796L282.232 341.915Z" fill="#FFDA44"/>
<path d="M245.841 453.911L241.698 441.159L252.548 433.277H239.137L234.992 420.522L230.848 433.276H217.437L228.287 441.158L224.143 453.914L234.993 446.03L245.841 453.911Z" fill="#FFDA44"/>
</g>
<defs>
<filter id="filter0_dd_105_1161" x="0" y="0" width="520" height="520" filterUnits="userSpaceOnUse" color-interpolation-filters="sRGB">
<feFlood flood-opacity="0" result="BackgroundImageFix"/>
<feColorMatrix in="SourceAlpha" type="matrix" values="0 0 0 0 0 0 0 0 0 0 0 0 0 0 0 0 0 0 127 0" result="hardAlpha"/>
<feOffset dy="4"/>
<feGaussianBlur stdDeviation="2"/>
<feComposite in2="hardAlpha" operator="out"/>
<feColorMatrix type="matrix" values="0 0 0 0 0 0 0 0 0 0 0 0 0 0 0 0 0 0 0.25 0"/>
<feBlend mode="normal" in2="BackgroundImageFix" result="effect1_dropShadow_105_1161"/>
<feColorMatrix in="SourceAlpha" type="matrix" values="0 0 0 0 0 0 0 0 0 0 0 0 0 0 0 0 0 0 127 0" result="hardAlpha"/>
<feOffset dy="4"/>
<feGaussianBlur stdDeviation="2"/>
<feComposite in2="hardAlpha" operator="out"/>
<feColorMatrix type="matrix" values="0 0 0 0 0 0 0 0 0 0 0 0 0 0 0 0 0 0 0.25 0"/>
<feBlend mode="normal" in2="effect1_dropShadow_105_1161" result="effect2_dropShadow_105_1161"/>
<feBlend mode="normal" in="SourceGraphic" in2="effect2_dropShadow_105_1161" result="shape"/>
</filter>
<clipPath id="clip0_105_1161">
<rect width="512" height="512" fill="white" transform="translate(4)"/>
</clipPath>
</defs>
</svg>
