<svg width="520" height="520" viewBox="0 0 520 520" fill="none" xmlns="http://www.w3.org/2000/svg">
<g clip-path="url(#clip0_105_1235)" filter="url(#filter0_dd_105_1235)">
<path d="M260 0.000976562C228.686 0.000976562 198.689 5.63398 170.957 15.924L159.826 256.001L170.956 496.078C198.689 506.369 228.686 512.001 260 512.001C291.314 512.001 321.311 506.369 349.043 496.078L360.174 256.001L349.044 15.924C321.311 5.63398 291.314 0.000976563 260 0.000976563V0.000976562Z" fill="#FFDA44"/>
<path d="M516 256.001C516 145.93 446.528 52.095 349.043 15.924V496.079C446.528 459.907 516 366.072 516 256.001Z" fill="#D80027"/>
<path d="M170.957 496.078V15.924C73.472 52.095 4 145.93 4 256.001C4 366.072 73.472 459.907 170.957 496.078Z" fill="#0052B4"/>
</g>
<defs>
<filter id="filter0_dd_105_1235" x="0" y="0.000976562" width="520" height="520" filterUnits="userSpaceOnUse" color-interpolation-filters="sRGB">
<feFlood flood-opacity="0" result="BackgroundImageFix"/>
<feColorMatrix in="SourceAlpha" type="matrix" values="0 0 0 0 0 0 0 0 0 0 0 0 0 0 0 0 0 0 127 0" result="hardAlpha"/>
<feOffset dy="4"/>
<feGaussianBlur stdDeviation="2"/>
<feComposite in2="hardAlpha" operator="out"/>
<feColorMatrix type="matrix" values="0 0 0 0 0 0 0 0 0 0 0 0 0 0 0 0 0 0 0.25 0"/>
<feBlend mode="normal" in2="BackgroundImageFix" result="effect1_dropShadow_105_1235"/>
<feColorMatrix in="SourceAlpha" type="matrix" values="0 0 0 0 0 0 0 0 0 0 0 0 0 0 0 0 0 0 127 0" result="hardAlpha"/>
<feOffset dy="4"/>
<feGaussianBlur stdDeviation="2"/>
<feComposite in2="hardAlpha" operator="out"/>
<feColorMatrix type="matrix" values="0 0 0 0 0 0 0 0 0 0 0 0 0 0 0 0 0 0 0.25 0"/>
<feBlend mode="normal" in2="effect1_dropShadow_105_1235" result="effect2_dropShadow_105_1235"/>
<feBlend mode="normal" in="SourceGraphic" in2="effect2_dropShadow_105_1235" result="shape"/>
</filter>
<clipPath id="clip0_105_1235">
<rect width="512" height="512" fill="white" transform="translate(4 0.000976562)"/>
</clipPath>
</defs>
</svg>
