<svg width="520" height="520" viewBox="0 0 520 520" fill="none" xmlns="http://www.w3.org/2000/svg">
<g clip-path="url(#clip0_105_1252)" filter="url(#filter0_dd_105_1252)">
<path d="M260 512C401.385 512 516 397.385 516 256C516 114.615 401.385 0 260 0C118.615 0 4 114.615 4 256C4 397.385 118.615 512 260 512Z" fill="#6DA544"/>
<path d="M396.984 367.304L404.009 381.993L419.873 378.327L412.769 392.978L425.526 403.094L409.642 406.674L409.687 422.957L396.984 412.77L384.282 422.957L384.326 406.674L368.443 403.094L381.2 392.978L374.096 378.327L389.959 381.993L396.984 367.304Z" fill="#FFDA44"/>
<path d="M331.632 211.478L338.658 226.167L354.522 222.5L347.417 237.152L360.174 247.268L344.291 250.848L344.335 267.13L331.632 256.944L318.93 267.13L318.973 250.848L303.091 247.268L315.848 237.152L308.743 222.5L324.608 226.167L331.632 211.478Z" fill="#FFDA44"/>
<path d="M396.984 122.435L404.009 137.124L419.873 133.456L412.77 148.108L425.526 158.225L409.642 161.804L409.685 178.087L396.984 167.9L384.282 178.087L384.326 161.804L368.444 158.225L381.2 148.108L374.096 133.456L389.959 137.124L396.984 122.435Z" fill="#FFDA44"/>
<path d="M454.067 189.217L461.092 203.906L476.957 200.239L469.852 214.891L482.609 225.007L466.726 228.587L466.77 244.87L454.067 234.683L441.365 244.87L441.408 228.587L425.526 225.007L438.283 214.891L431.178 200.239L447.042 203.906L454.067 189.217Z" fill="#FFDA44"/>
<path d="M413.249 267.13L418.776 284.137H436.657L422.19 294.647L427.717 311.652L413.249 301.143L398.784 311.652L404.309 294.647L389.843 284.137H407.724L413.249 267.13Z" fill="#FFDA44"/>
<path d="M287.826 328.348C247.869 328.348 215.477 295.956 215.477 256C215.477 216.044 247.868 183.652 287.826 183.652C300.284 183.652 312.007 186.803 322.241 192.348C306.186 176.646 284.231 166.956 259.998 166.956C210.822 166.956 170.956 206.822 170.956 255.999C170.956 305.176 210.822 345.042 259.998 345.042C284.23 345.042 306.186 335.352 322.24 319.65C312.007 325.197 300.284 328.348 287.826 328.348Z" fill="#FFDA44"/>
<path d="M164.986 100.174C157.286 86.87 142.911 77.913 126.435 77.913C109.959 77.913 95.5843 86.87 87.8843 100.174H164.986Z" fill="#FFDA44"/>
<path d="M165.134 100.431L126.435 139.13L87.7361 100.431C84.0371 106.922 81.9141 114.429 81.9141 122.435C81.9141 147.024 101.847 166.957 126.436 166.957C151.025 166.957 170.958 147.025 170.958 122.435C170.957 114.429 168.833 106.922 165.134 100.431Z" fill="#FFDA44"/>
<path d="M115.304 128V165.554C118.861 166.469 122.591 166.956 126.434 166.956C130.277 166.956 134.007 166.468 137.564 165.554V128H115.304Z" fill="#A2001D"/>
</g>
<defs>
<filter id="filter0_dd_105_1252" x="0" y="0" width="520" height="520" filterUnits="userSpaceOnUse" color-interpolation-filters="sRGB">
<feFlood flood-opacity="0" result="BackgroundImageFix"/>
<feColorMatrix in="SourceAlpha" type="matrix" values="0 0 0 0 0 0 0 0 0 0 0 0 0 0 0 0 0 0 127 0" result="hardAlpha"/>
<feOffset dy="4"/>
<feGaussianBlur stdDeviation="2"/>
<feComposite in2="hardAlpha" operator="out"/>
<feColorMatrix type="matrix" values="0 0 0 0 0 0 0 0 0 0 0 0 0 0 0 0 0 0 0.25 0"/>
<feBlend mode="normal" in2="BackgroundImageFix" result="effect1_dropShadow_105_1252"/>
<feColorMatrix in="SourceAlpha" type="matrix" values="0 0 0 0 0 0 0 0 0 0 0 0 0 0 0 0 0 0 127 0" result="hardAlpha"/>
<feOffset dy="4"/>
<feGaussianBlur stdDeviation="2"/>
<feComposite in2="hardAlpha" operator="out"/>
<feColorMatrix type="matrix" values="0 0 0 0 0 0 0 0 0 0 0 0 0 0 0 0 0 0 0.25 0"/>
<feBlend mode="normal" in2="effect1_dropShadow_105_1252" result="effect2_dropShadow_105_1252"/>
<feBlend mode="normal" in="SourceGraphic" in2="effect2_dropShadow_105_1252" result="shape"/>
</filter>
<clipPath id="clip0_105_1252">
<rect width="512" height="512" fill="white" transform="translate(4)"/>
</clipPath>
</defs>
</svg>
