<svg width="520" height="521" viewBox="0 0 520 521" fill="none" xmlns="http://www.w3.org/2000/svg">
<g clip-path="url(#clip0_105_1298)" filter="url(#filter0_dd_105_1298)">
<path d="M260 512.989C401.385 512.989 516 398.374 516 256.989C516 115.604 401.385 0.989258 260 0.989258C118.615 0.989258 4 115.604 4 256.989C4 398.374 118.615 512.989 260 512.989Z" fill="#FCFCFC"/>
<path d="M349.136 217.822C349.136 163.678 305.244 119.787 251.101 119.787C211.147 119.787 176.8 143.697 161.528 177.981L149.437 221.816L160.567 232.946L138.306 277.468L160.567 288.598L149.437 299.728V310.858L160.567 321.988V344.249L171.697 355.379L205.088 344.249C205.088 344.249 205.088 355.379 216.218 366.51C227.348 377.64 238.48 399.902 238.48 399.902C238.48 399.902 271.871 411.032 294.132 377.641C316.393 344.25 338.654 333.119 338.654 333.119L317.198 290.205C336.82 272.282 349.136 246.495 349.136 217.822Z" fill="black"/>
<path d="M357.126 255.311C402.355 247.682 409.889 159.116 409.889 159.116H347.559C379.837 237.029 346.052 242.27 346.052 242.27C341.475 238.865 177.677 161.269 172.485 159.296C171.234 160.97 166.629 165.367 161.031 179.057C155.432 192.747 154.058 205.063 154.058 205.063C156.68 206.772 330.633 267.513 335.231 268.019C344.356 273.985 355.584 291.826 349.309 344.724L409.303 327.816C409.305 327.816 388.944 273.653 357.126 255.311Z" fill="#ACABB1"/>
</g>
<defs>
<filter id="filter0_dd_105_1298" x="0" y="0.989258" width="520" height="520" filterUnits="userSpaceOnUse" color-interpolation-filters="sRGB">
<feFlood flood-opacity="0" result="BackgroundImageFix"/>
<feColorMatrix in="SourceAlpha" type="matrix" values="0 0 0 0 0 0 0 0 0 0 0 0 0 0 0 0 0 0 127 0" result="hardAlpha"/>
<feOffset dy="4"/>
<feGaussianBlur stdDeviation="2"/>
<feComposite in2="hardAlpha" operator="out"/>
<feColorMatrix type="matrix" values="0 0 0 0 0 0 0 0 0 0 0 0 0 0 0 0 0 0 0.25 0"/>
<feBlend mode="normal" in2="BackgroundImageFix" result="effect1_dropShadow_105_1298"/>
<feColorMatrix in="SourceAlpha" type="matrix" values="0 0 0 0 0 0 0 0 0 0 0 0 0 0 0 0 0 0 127 0" result="hardAlpha"/>
<feOffset dy="4"/>
<feGaussianBlur stdDeviation="2"/>
<feComposite in2="hardAlpha" operator="out"/>
<feColorMatrix type="matrix" values="0 0 0 0 0 0 0 0 0 0 0 0 0 0 0 0 0 0 0.25 0"/>
<feBlend mode="normal" in2="effect1_dropShadow_105_1298" result="effect2_dropShadow_105_1298"/>
<feBlend mode="normal" in="SourceGraphic" in2="effect2_dropShadow_105_1298" result="shape"/>
</filter>
<clipPath id="clip0_105_1298">
<rect width="512" height="512" fill="white" transform="translate(4 0.989258)"/>
</clipPath>
</defs>
</svg>
