<svg width="520" height="520" viewBox="0 0 520 520" fill="none" xmlns="http://www.w3.org/2000/svg">
<g clip-path="url(#clip0_105_1302)" filter="url(#filter0_dd_105_1302)">
<path d="M260 512C401.385 512 516 397.385 516 256C516 114.615 401.385 0 260 0C118.615 0 4 114.615 4 256C4 397.385 118.615 512 260 512Z" fill="#F0F0F0"/>
<path d="M500.077 166.957H19.923C9.633 194.69 4 224.686 4 256C4 287.314 9.633 317.31 19.923 345.043H500.078C510.368 317.31 516 287.314 516 256C516 224.686 510.368 194.69 500.077 166.957Z" fill="#D80027"/>
<path d="M260 0C182.409 0 112.886 34.524 65.939 89.043H454.06C407.114 34.524 337.591 0 260 0Z" fill="#0052B4"/>
<path d="M454.061 422.957H65.939C112.886 477.476 182.409 512 260 512C337.591 512 407.114 477.476 454.061 422.957Z" fill="#0052B4"/>
</g>
<defs>
<filter id="filter0_dd_105_1302" x="0" y="0" width="520" height="520" filterUnits="userSpaceOnUse" color-interpolation-filters="sRGB">
<feFlood flood-opacity="0" result="BackgroundImageFix"/>
<feColorMatrix in="SourceAlpha" type="matrix" values="0 0 0 0 0 0 0 0 0 0 0 0 0 0 0 0 0 0 127 0" result="hardAlpha"/>
<feOffset dy="4"/>
<feGaussianBlur stdDeviation="2"/>
<feComposite in2="hardAlpha" operator="out"/>
<feColorMatrix type="matrix" values="0 0 0 0 0 0 0 0 0 0 0 0 0 0 0 0 0 0 0.25 0"/>
<feBlend mode="normal" in2="BackgroundImageFix" result="effect1_dropShadow_105_1302"/>
<feColorMatrix in="SourceAlpha" type="matrix" values="0 0 0 0 0 0 0 0 0 0 0 0 0 0 0 0 0 0 127 0" result="hardAlpha"/>
<feOffset dy="4"/>
<feGaussianBlur stdDeviation="2"/>
<feComposite in2="hardAlpha" operator="out"/>
<feColorMatrix type="matrix" values="0 0 0 0 0 0 0 0 0 0 0 0 0 0 0 0 0 0 0.25 0"/>
<feBlend mode="normal" in2="effect1_dropShadow_105_1302" result="effect2_dropShadow_105_1302"/>
<feBlend mode="normal" in="SourceGraphic" in2="effect2_dropShadow_105_1302" result="shape"/>
</filter>
<clipPath id="clip0_105_1302">
<rect width="512" height="512" fill="white" transform="translate(4)"/>
</clipPath>
</defs>
</svg>
