<svg width="520" height="520" viewBox="0 0 520 520" fill="none" xmlns="http://www.w3.org/2000/svg">
<g clip-path="url(#clip0_105_1342)" filter="url(#filter0_dd_105_1342)">
<path d="M260 512C401.385 512 516 397.385 516 256C516 114.615 401.385 0 260 0C118.615 0 4 114.615 4 256C4 397.385 118.615 512 260 512Z" fill="#FFDA44"/>
<path d="M260 512C344 512 418.549 471.542 465.229 409.051H54.771C101.451 471.542 176 512 260 512Z" fill="#0052B4"/>
<path d="M516 256C516 114.616 401.384 0 260 0C118.616 0 4 114.616 4 256C4 286.273 9.269 315.312 18.916 342.269H501.083C510.731 315.312 516 286.273 516 256Z" fill="#0052B4"/>
<path d="M179.222 164.182L193.035 206.694H237.739L201.574 232.972L215.387 275.486L179.222 249.21L143.057 275.486L156.872 232.972L120.707 206.694H165.409L179.222 164.182Z" fill="#F0F0F0"/>
<path d="M102.454 119.66L110.742 145.168H137.565L115.866 160.934L124.154 186.443L102.454 170.677L80.7552 186.443L89.0442 160.934L67.3462 145.168H94.1682L102.454 119.66Z" fill="#F0F0F0"/>
</g>
<defs>
<filter id="filter0_dd_105_1342" x="0" y="0" width="520" height="520" filterUnits="userSpaceOnUse" color-interpolation-filters="sRGB">
<feFlood flood-opacity="0" result="BackgroundImageFix"/>
<feColorMatrix in="SourceAlpha" type="matrix" values="0 0 0 0 0 0 0 0 0 0 0 0 0 0 0 0 0 0 127 0" result="hardAlpha"/>
<feOffset dy="4"/>
<feGaussianBlur stdDeviation="2"/>
<feComposite in2="hardAlpha" operator="out"/>
<feColorMatrix type="matrix" values="0 0 0 0 0 0 0 0 0 0 0 0 0 0 0 0 0 0 0.25 0"/>
<feBlend mode="normal" in2="BackgroundImageFix" result="effect1_dropShadow_105_1342"/>
<feColorMatrix in="SourceAlpha" type="matrix" values="0 0 0 0 0 0 0 0 0 0 0 0 0 0 0 0 0 0 127 0" result="hardAlpha"/>
<feOffset dy="4"/>
<feGaussianBlur stdDeviation="2"/>
<feComposite in2="hardAlpha" operator="out"/>
<feColorMatrix type="matrix" values="0 0 0 0 0 0 0 0 0 0 0 0 0 0 0 0 0 0 0.25 0"/>
<feBlend mode="normal" in2="effect1_dropShadow_105_1342" result="effect2_dropShadow_105_1342"/>
<feBlend mode="normal" in="SourceGraphic" in2="effect2_dropShadow_105_1342" result="shape"/>
</filter>
<clipPath id="clip0_105_1342">
<rect width="512" height="512" fill="white" transform="translate(4)"/>
</clipPath>
</defs>
</svg>
