<svg width="520" height="520" viewBox="0 0 520 520" fill="none" xmlns="http://www.w3.org/2000/svg">
<g clip-path="url(#clip0_105_1372)" filter="url(#filter0_dd_105_1372)">
<path d="M237.739 278.261C237.739 278.261 79.13 74.945 78.98 74.981C125.306 28.654 189.307 0 260 0C401.384 0 516 114.616 516 256L237.739 278.261Z" fill="#338AF3"/>
<path d="M237.739 256C237.739 256 79.13 437.055 78.98 437.019C125.306 483.346 189.307 512 260 512C401.384 512 516 397.384 516 256H237.739Z" fill="#6DA544"/>
<path d="M78.98 74.98C-20.994 174.954 -20.994 337.045 78.98 437.02C120.293 395.707 160.026 355.974 260 256L78.98 74.98Z" fill="#F0F0F0"/>
<path d="M107.61 189.217L124.185 240.233H177.831L134.433 271.765L151.007 322.783L107.61 291.252L64.2111 322.783L80.7891 271.765L37.3911 240.233H91.0331L107.61 189.217Z" fill="#D80027"/>
</g>
<defs>
<filter id="filter0_dd_105_1372" x="0" y="0" width="520" height="520" filterUnits="userSpaceOnUse" color-interpolation-filters="sRGB">
<feFlood flood-opacity="0" result="BackgroundImageFix"/>
<feColorMatrix in="SourceAlpha" type="matrix" values="0 0 0 0 0 0 0 0 0 0 0 0 0 0 0 0 0 0 127 0" result="hardAlpha"/>
<feOffset dy="4"/>
<feGaussianBlur stdDeviation="2"/>
<feComposite in2="hardAlpha" operator="out"/>
<feColorMatrix type="matrix" values="0 0 0 0 0 0 0 0 0 0 0 0 0 0 0 0 0 0 0.25 0"/>
<feBlend mode="normal" in2="BackgroundImageFix" result="effect1_dropShadow_105_1372"/>
<feColorMatrix in="SourceAlpha" type="matrix" values="0 0 0 0 0 0 0 0 0 0 0 0 0 0 0 0 0 0 127 0" result="hardAlpha"/>
<feOffset dy="4"/>
<feGaussianBlur stdDeviation="2"/>
<feComposite in2="hardAlpha" operator="out"/>
<feColorMatrix type="matrix" values="0 0 0 0 0 0 0 0 0 0 0 0 0 0 0 0 0 0 0.25 0"/>
<feBlend mode="normal" in2="effect1_dropShadow_105_1372" result="effect2_dropShadow_105_1372"/>
<feBlend mode="normal" in="SourceGraphic" in2="effect2_dropShadow_105_1372" result="shape"/>
</filter>
<clipPath id="clip0_105_1372">
<rect width="512" height="512" fill="white" transform="translate(4)"/>
</clipPath>
</defs>
</svg>
