<svg width="520" height="520" viewBox="0 0 520 520" fill="none" xmlns="http://www.w3.org/2000/svg">
<g clip-path="url(#clip0_105_1421)" filter="url(#filter0_dd_105_1421)">
<path d="M4 256C4 114.616 118.616 0 260 0C401.384 0 516 114.616 516 256L260 278.261L4 256Z" fill="#FFDA44"/>
<path d="M38.2559 384C82.5209 460.516 165.245 512 260 512C354.755 512 437.479 460.516 481.744 384L260 367.304L38.2559 384Z" fill="#D80027"/>
<path d="M481.744 384C503.526 346.346 516 302.631 516 256H4C4 302.631 16.474 346.346 38.256 384H481.744Z" fill="#0052B4"/>
<path d="M260 345.043C309.177 345.043 349.043 305.177 349.043 256C349.043 206.823 309.177 166.957 260 166.957C210.823 166.957 170.957 206.823 170.957 256C170.957 305.177 210.823 345.043 260 345.043Z" fill="#FFDA44"/>
<path d="M260 311.652C229.313 311.652 204.348 286.686 204.348 256V222.609C204.348 191.922 229.314 166.957 260 166.957C290.686 166.957 315.652 191.923 315.652 222.609V256C315.652 286.687 290.687 311.652 260 311.652Z" fill="#338AF3"/>
<path d="M349.043 122.435H282.26C282.26 110.141 272.293 100.174 259.999 100.174C247.705 100.174 237.738 110.141 237.738 122.435H170.955C170.955 134.73 181.664 144.696 193.957 144.696H193.216C193.216 156.991 203.182 166.957 215.477 166.957C215.477 179.252 225.443 189.218 237.738 189.218H282.26C294.555 189.218 304.521 179.252 304.521 166.957C316.816 166.957 326.782 156.991 326.782 144.696H326.041C338.335 144.696 349.043 134.729 349.043 122.435Z" fill="black"/>
</g>
<defs>
<filter id="filter0_dd_105_1421" x="0" y="0" width="520" height="520" filterUnits="userSpaceOnUse" color-interpolation-filters="sRGB">
<feFlood flood-opacity="0" result="BackgroundImageFix"/>
<feColorMatrix in="SourceAlpha" type="matrix" values="0 0 0 0 0 0 0 0 0 0 0 0 0 0 0 0 0 0 127 0" result="hardAlpha"/>
<feOffset dy="4"/>
<feGaussianBlur stdDeviation="2"/>
<feComposite in2="hardAlpha" operator="out"/>
<feColorMatrix type="matrix" values="0 0 0 0 0 0 0 0 0 0 0 0 0 0 0 0 0 0 0.25 0"/>
<feBlend mode="normal" in2="BackgroundImageFix" result="effect1_dropShadow_105_1421"/>
<feColorMatrix in="SourceAlpha" type="matrix" values="0 0 0 0 0 0 0 0 0 0 0 0 0 0 0 0 0 0 127 0" result="hardAlpha"/>
<feOffset dy="4"/>
<feGaussianBlur stdDeviation="2"/>
<feComposite in2="hardAlpha" operator="out"/>
<feColorMatrix type="matrix" values="0 0 0 0 0 0 0 0 0 0 0 0 0 0 0 0 0 0 0.25 0"/>
<feBlend mode="normal" in2="effect1_dropShadow_105_1421" result="effect2_dropShadow_105_1421"/>
<feBlend mode="normal" in="SourceGraphic" in2="effect2_dropShadow_105_1421" result="shape"/>
</filter>
<clipPath id="clip0_105_1421">
<rect width="512" height="512" fill="white" transform="translate(4)"/>
</clipPath>
</defs>
</svg>
