<svg width="520" height="520" viewBox="0 0 520 520" fill="none" xmlns="http://www.w3.org/2000/svg">
<g clip-path="url(#clip0_105_1428)" filter="url(#filter0_dd_105_1428)">
<path d="M260 512C401.385 512 516 397.385 516 256C516 114.615 401.385 0 260 0C118.615 0 4 114.615 4 256C4 397.385 118.615 512 260 512Z" fill="#F0F0F0"/>
<path d="M260 0C149.929 0 56.0939 69.472 19.9229 166.957H500.078C463.906 69.472 370.071 0 260 0Z" fill="#D80027"/>
<path d="M260 512C370.071 512 463.906 442.528 500.077 345.043H19.9229C56.0939 442.528 149.929 512 260 512Z" fill="black"/>
<path d="M349.043 228.174H282.26C282.26 215.88 272.293 205.913 259.999 205.913C247.705 205.913 237.738 215.88 237.738 228.174H170.955C170.955 240.469 181.664 250.435 193.958 250.435H193.216C193.216 262.73 203.182 272.696 215.477 272.696C215.477 284.991 225.443 294.957 237.738 294.957H282.26C294.555 294.957 304.521 284.991 304.521 272.696C316.816 272.696 326.782 262.73 326.782 250.435H326.041C338.335 250.435 349.043 240.469 349.043 228.174Z" fill="#FF9811"/>
</g>
<defs>
<filter id="filter0_dd_105_1428" x="0" y="0" width="520" height="520" filterUnits="userSpaceOnUse" color-interpolation-filters="sRGB">
<feFlood flood-opacity="0" result="BackgroundImageFix"/>
<feColorMatrix in="SourceAlpha" type="matrix" values="0 0 0 0 0 0 0 0 0 0 0 0 0 0 0 0 0 0 127 0" result="hardAlpha"/>
<feOffset dy="4"/>
<feGaussianBlur stdDeviation="2"/>
<feComposite in2="hardAlpha" operator="out"/>
<feColorMatrix type="matrix" values="0 0 0 0 0 0 0 0 0 0 0 0 0 0 0 0 0 0 0.25 0"/>
<feBlend mode="normal" in2="BackgroundImageFix" result="effect1_dropShadow_105_1428"/>
<feColorMatrix in="SourceAlpha" type="matrix" values="0 0 0 0 0 0 0 0 0 0 0 0 0 0 0 0 0 0 127 0" result="hardAlpha"/>
<feOffset dy="4"/>
<feGaussianBlur stdDeviation="2"/>
<feComposite in2="hardAlpha" operator="out"/>
<feColorMatrix type="matrix" values="0 0 0 0 0 0 0 0 0 0 0 0 0 0 0 0 0 0 0.25 0"/>
<feBlend mode="normal" in2="effect1_dropShadow_105_1428" result="effect2_dropShadow_105_1428"/>
<feBlend mode="normal" in="SourceGraphic" in2="effect2_dropShadow_105_1428" result="shape"/>
</filter>
<clipPath id="clip0_105_1428">
<rect width="512" height="512" fill="white" transform="translate(4)"/>
</clipPath>
</defs>
</svg>
