<svg width="520" height="520" viewBox="0 0 520 520" fill="none" xmlns="http://www.w3.org/2000/svg">
<g clip-path="url(#clip0_105_1433)" filter="url(#filter0_dd_105_1433)">
<path d="M260 512C401.385 512 516 397.385 516 256C516 114.615 401.385 0 260 0C118.615 0 4 114.615 4 256C4 397.385 118.615 512 260 512Z" fill="#F0F0F0"/>
<path d="M260 0C158.506 0 70.8099 59.065 29.4019 144.696H490.597C449.19 59.065 361.493 0 260 0Z" fill="#0052B4"/>
<path d="M260 512C361.493 512 449.19 452.935 490.598 367.304H29.4019C70.8099 452.935 158.506 512 260 512Z" fill="#0052B4"/>
<path d="M208.59 267.13L260 178.087L311.41 267.13H208.59Z" fill="#FFDA44"/>
<path d="M326.783 296.531L260 329.923L193.217 296.531V252.01H326.783V296.531Z" fill="#6DA544"/>
<path d="M322.963 181.907L299.352 205.518C309.423 215.589 315.653 229.502 315.653 244.87C315.653 275.606 290.736 300.522 260.001 300.522C229.266 300.522 204.349 275.605 204.349 244.87C204.349 229.502 210.579 215.589 220.65 205.518L197.039 181.907C180.924 198.019 170.958 220.28 170.958 244.87C170.958 294.048 210.824 333.913 260.001 333.913C309.178 333.913 349.044 294.047 349.044 244.87C349.043 220.28 339.077 198.019 322.963 181.907Z" fill="#FFDA44"/>
</g>
<defs>
<filter id="filter0_dd_105_1433" x="0" y="0" width="520" height="520" filterUnits="userSpaceOnUse" color-interpolation-filters="sRGB">
<feFlood flood-opacity="0" result="BackgroundImageFix"/>
<feColorMatrix in="SourceAlpha" type="matrix" values="0 0 0 0 0 0 0 0 0 0 0 0 0 0 0 0 0 0 127 0" result="hardAlpha"/>
<feOffset dy="4"/>
<feGaussianBlur stdDeviation="2"/>
<feComposite in2="hardAlpha" operator="out"/>
<feColorMatrix type="matrix" values="0 0 0 0 0 0 0 0 0 0 0 0 0 0 0 0 0 0 0.25 0"/>
<feBlend mode="normal" in2="BackgroundImageFix" result="effect1_dropShadow_105_1433"/>
<feColorMatrix in="SourceAlpha" type="matrix" values="0 0 0 0 0 0 0 0 0 0 0 0 0 0 0 0 0 0 127 0" result="hardAlpha"/>
<feOffset dy="4"/>
<feGaussianBlur stdDeviation="2"/>
<feComposite in2="hardAlpha" operator="out"/>
<feColorMatrix type="matrix" values="0 0 0 0 0 0 0 0 0 0 0 0 0 0 0 0 0 0 0.25 0"/>
<feBlend mode="normal" in2="effect1_dropShadow_105_1433" result="effect2_dropShadow_105_1433"/>
<feBlend mode="normal" in="SourceGraphic" in2="effect2_dropShadow_105_1433" result="shape"/>
</filter>
<clipPath id="clip0_105_1433">
<rect width="512" height="512" fill="white" transform="translate(4)"/>
</clipPath>
</defs>
</svg>
