<svg width="520" height="520" viewBox="0 0 520 520" fill="none" xmlns="http://www.w3.org/2000/svg">
<g clip-path="url(#clip0_105_1444)" filter="url(#filter0_dd_105_1444)">
<path d="M260 512C401.385 512 516 397.385 516 256C516 114.615 401.385 0 260 0C118.615 0 4 114.615 4 256C4 397.385 118.615 512 260 512Z" fill="#F0F0F0"/>
<path d="M159.826 166.957H500.076C463.906 69.472 370.07 0 260 0C189.306 0 125.313 28.659 78.9888 74.989L159.826 166.957Z" fill="#6DA544"/>
<path d="M159.826 345.043H500.076C463.906 442.528 370.07 512 260 512C189.306 512 125.313 483.341 78.9888 437.011L159.826 345.043Z" fill="#D80027"/>
<path d="M78.98 74.98C-20.994 174.954 -20.994 337.045 78.98 437.02C120.293 395.707 160.026 355.974 260 256L78.98 74.98Z" fill="#0052B4"/>
<path d="M304.522 211.478V267.13C304.522 301.21 349.044 311.653 349.044 311.653C349.044 311.653 393.566 301.21 393.566 267.13V211.478H304.522Z" fill="#DEDDE0"/>
<path d="M337.913 257.113H360.174V289.391H337.913V257.113Z" fill="#786145"/>
<path d="M371.304 244.87C371.304 232.575 361.338 222.609 349.043 222.609C336.748 222.609 326.782 232.575 326.782 244.87C320.635 244.87 315.652 249.853 315.652 256C315.652 262.147 320.635 267.13 326.782 267.13H371.304C377.451 267.13 382.434 262.147 382.434 256C382.434 249.853 377.452 244.87 371.304 244.87Z" fill="#6DA544"/>
</g>
<defs>
<filter id="filter0_dd_105_1444" x="0" y="0" width="520" height="520" filterUnits="userSpaceOnUse" color-interpolation-filters="sRGB">
<feFlood flood-opacity="0" result="BackgroundImageFix"/>
<feColorMatrix in="SourceAlpha" type="matrix" values="0 0 0 0 0 0 0 0 0 0 0 0 0 0 0 0 0 0 127 0" result="hardAlpha"/>
<feOffset dy="4"/>
<feGaussianBlur stdDeviation="2"/>
<feComposite in2="hardAlpha" operator="out"/>
<feColorMatrix type="matrix" values="0 0 0 0 0 0 0 0 0 0 0 0 0 0 0 0 0 0 0.25 0"/>
<feBlend mode="normal" in2="BackgroundImageFix" result="effect1_dropShadow_105_1444"/>
<feColorMatrix in="SourceAlpha" type="matrix" values="0 0 0 0 0 0 0 0 0 0 0 0 0 0 0 0 0 0 127 0" result="hardAlpha"/>
<feOffset dy="4"/>
<feGaussianBlur stdDeviation="2"/>
<feComposite in2="hardAlpha" operator="out"/>
<feColorMatrix type="matrix" values="0 0 0 0 0 0 0 0 0 0 0 0 0 0 0 0 0 0 0.25 0"/>
<feBlend mode="normal" in2="effect1_dropShadow_105_1444" result="effect2_dropShadow_105_1444"/>
<feBlend mode="normal" in="SourceGraphic" in2="effect2_dropShadow_105_1444" result="shape"/>
</filter>
<clipPath id="clip0_105_1444">
<rect width="512" height="512" fill="white" transform="translate(4)"/>
</clipPath>
</defs>
</svg>
