<svg width="520" height="520" viewBox="0 0 520 520" fill="none" xmlns="http://www.w3.org/2000/svg">
<g clip-path="url(#clip0_105_1452)" filter="url(#filter0_dd_105_1452)">
<path d="M237.739 233.739C237.739 233.739 79.13 437.056 78.98 437.019C125.306 483.346 189.307 512 260 512C401.384 512 516 397.384 516 256L237.739 233.739Z" fill="#338AF3"/>
<path d="M237.739 256C237.739 256 79.13 74.945 78.98 74.981C125.306 28.654 189.307 0 260 0C401.384 0 516 114.616 516 256H237.739Z" fill="#6DA544"/>
<path d="M78.98 74.98C-20.994 174.954 -20.994 337.045 78.98 437.02C78.973 437.061 516 256 516 256L78.98 74.98Z" fill="#D80027"/>
<path d="M137.565 150.261C88.466 150.261 48.522 190.206 48.522 239.304V272.695C48.522 321.794 88.467 361.738 137.565 361.738C186.663 361.738 226.608 321.793 226.608 272.695V239.304C226.609 190.206 186.664 150.261 137.565 150.261ZM193.217 272.696C193.217 297.568 176.815 318.677 154.26 325.786V289.392L177.884 265.768L154.273 242.157L154.26 233.754V222.61H120.87V256L97.262 279.607L120.87 303.214V325.787C98.315 318.678 81.913 297.569 81.913 272.697V239.306C81.913 208.619 106.879 183.654 137.565 183.654C168.251 183.654 193.217 208.62 193.217 239.306V272.696Z" fill="#FFDA44"/>
</g>
<defs>
<filter id="filter0_dd_105_1452" x="0" y="0" width="520" height="520" filterUnits="userSpaceOnUse" color-interpolation-filters="sRGB">
<feFlood flood-opacity="0" result="BackgroundImageFix"/>
<feColorMatrix in="SourceAlpha" type="matrix" values="0 0 0 0 0 0 0 0 0 0 0 0 0 0 0 0 0 0 127 0" result="hardAlpha"/>
<feOffset dy="4"/>
<feGaussianBlur stdDeviation="2"/>
<feComposite in2="hardAlpha" operator="out"/>
<feColorMatrix type="matrix" values="0 0 0 0 0 0 0 0 0 0 0 0 0 0 0 0 0 0 0.25 0"/>
<feBlend mode="normal" in2="BackgroundImageFix" result="effect1_dropShadow_105_1452"/>
<feColorMatrix in="SourceAlpha" type="matrix" values="0 0 0 0 0 0 0 0 0 0 0 0 0 0 0 0 0 0 127 0" result="hardAlpha"/>
<feOffset dy="4"/>
<feGaussianBlur stdDeviation="2"/>
<feComposite in2="hardAlpha" operator="out"/>
<feColorMatrix type="matrix" values="0 0 0 0 0 0 0 0 0 0 0 0 0 0 0 0 0 0 0.25 0"/>
<feBlend mode="normal" in2="effect1_dropShadow_105_1452" result="effect2_dropShadow_105_1452"/>
<feBlend mode="normal" in="SourceGraphic" in2="effect2_dropShadow_105_1452" result="shape"/>
</filter>
<clipPath id="clip0_105_1452">
<rect width="512" height="512" fill="white" transform="translate(4)"/>
</clipPath>
</defs>
</svg>
