<svg width="520" height="520" viewBox="0 0 520 520" fill="none" xmlns="http://www.w3.org/2000/svg">
<g clip-path="url(#clip0_105_1469)" filter="url(#filter0_dd_105_1469)">
<path d="M260 512C401.385 512 516 397.385 516 256C516 114.615 401.385 0 260 0C118.615 0 4 114.615 4 256C4 397.385 118.615 512 260 512Z" fill="#0052B4"/>
<path d="M260.001 100.174L268.29 125.683H295.11L273.411 141.448L281.7 166.957L260.001 151.191L238.301 166.957L246.59 141.448L224.891 125.683H251.712L260.001 100.174Z" fill="#FFDA44"/>
<path d="M149.814 145.814L173.714 157.99L192.679 139.026L188.482 165.516L212.381 177.693L185.89 181.889L181.694 208.381L169.517 184.482L143.027 188.679L161.992 169.714L149.814 145.814Z" fill="#FFDA44"/>
<path d="M104.175 256L129.684 247.711V220.89L145.448 242.59L170.958 234.301L155.191 256L170.958 277.699L145.448 269.411L129.684 291.11V264.289L104.175 256Z" fill="#FFDA44"/>
<path d="M149.814 366.186L161.991 342.286L143.027 323.321L169.518 327.519L181.693 303.62L185.89 330.111L212.38 334.307L188.484 346.484L192.679 372.974L173.714 354.009L149.814 366.186Z" fill="#FFDA44"/>
<path d="M260.001 411.826L251.711 386.317H224.891L246.591 370.552L238.301 345.045L260.001 360.809L281.7 345.045L273.411 370.552L295.11 386.317H268.289L260.001 411.826Z" fill="#FFDA44"/>
<path d="M370.187 366.186L346.288 354.01L327.322 372.975L331.519 346.483L307.622 334.307L334.112 330.111L338.308 303.62L350.484 327.519L376.974 323.321L358.009 342.288L370.187 366.186Z" fill="#FFDA44"/>
<path d="M415.826 256L390.317 264.289V291.11L374.552 269.41L349.045 277.699L364.81 256L349.045 234.301L374.553 242.59L390.317 220.89V247.712L415.826 256Z" fill="#FFDA44"/>
<path d="M370.187 145.814L358.01 169.714L376.975 188.679L350.483 184.481L338.308 208.38L334.112 181.889L307.622 177.692L331.519 165.516L327.322 139.027L346.289 157.991L370.187 145.814Z" fill="#FFDA44"/>
</g>
<defs>
<filter id="filter0_dd_105_1469" x="0" y="0" width="520" height="520" filterUnits="userSpaceOnUse" color-interpolation-filters="sRGB">
<feFlood flood-opacity="0" result="BackgroundImageFix"/>
<feColorMatrix in="SourceAlpha" type="matrix" values="0 0 0 0 0 0 0 0 0 0 0 0 0 0 0 0 0 0 127 0" result="hardAlpha"/>
<feOffset dy="4"/>
<feGaussianBlur stdDeviation="2"/>
<feComposite in2="hardAlpha" operator="out"/>
<feColorMatrix type="matrix" values="0 0 0 0 0 0 0 0 0 0 0 0 0 0 0 0 0 0 0.25 0"/>
<feBlend mode="normal" in2="BackgroundImageFix" result="effect1_dropShadow_105_1469"/>
<feColorMatrix in="SourceAlpha" type="matrix" values="0 0 0 0 0 0 0 0 0 0 0 0 0 0 0 0 0 0 127 0" result="hardAlpha"/>
<feOffset dy="4"/>
<feGaussianBlur stdDeviation="2"/>
<feComposite in2="hardAlpha" operator="out"/>
<feColorMatrix type="matrix" values="0 0 0 0 0 0 0 0 0 0 0 0 0 0 0 0 0 0 0.25 0"/>
<feBlend mode="normal" in2="effect1_dropShadow_105_1469" result="effect2_dropShadow_105_1469"/>
<feBlend mode="normal" in="SourceGraphic" in2="effect2_dropShadow_105_1469" result="shape"/>
</filter>
<clipPath id="clip0_105_1469">
<rect width="512" height="512" fill="white" transform="translate(4)"/>
</clipPath>
</defs>
</svg>
