<svg width="520" height="520" viewBox="0 0 520 520" fill="none" xmlns="http://www.w3.org/2000/svg">
<g clip-path="url(#clip0_105_1498)" filter="url(#filter0_dd_105_1498)">
<path d="M516 256C516 397.384 401.384 512 260 512C118.616 512 4 397.384 4 256C4 256.061 260 0.028 260 0C401.384 0 516 114.616 516 256Z" fill="#338AF3"/>
<path d="M260 122.435V208.778L170.957 122.435H260Z" fill="#0052B4"/>
<path d="M137.565 256H212.777L137.565 155.826L126.435 233.739L137.565 256Z" fill="#0052B4"/>
<path d="M259.315 256H260C260 255.77 260 255.546 260 255.315C259.772 255.544 259.544 255.772 259.315 256Z" fill="#F0F0F0"/>
<path d="M260 133.565C260 88.52 260 59.005 260 0H259.957C118.592 0.024 4 114.629 4 256H137.565V180.789L212.777 256H259.317C259.545 255.772 259.773 255.544 260.002 255.315C260.002 238.068 260.002 222.679 260.002 208.778L184.788 133.565H260Z" fill="#F0F0F0"/>
<path d="M133.515 33.3911C93.4761 56.1901 60.1901 89.4761 37.3911 129.515V256H104.174V100.176V100.174H260C260 79.1111 260 59.0451 260 33.3911H133.515Z" fill="#D80027"/>
<path d="M260 224.519L169.047 133.566H137.566V133.568L259.998 256H260C260 256 260 234.293 260 224.519Z" fill="#D80027"/>
<path d="M293.391 166.957V255.999C293.391 315.639 371.304 333.913 371.304 333.913C371.304 333.913 449.217 315.639 449.217 255.999V166.957L371.304 144.696L293.391 166.957Z" fill="#F3F3F3"/>
<path d="M449.217 166.957V133.566H293.391V166.957H360.172V233.741H293.391V256V256.002L360.172 256.003V330.5C366.89 332.876 371.304 333.914 371.304 333.914C371.304 333.914 375.716 332.878 382.433 330.5V256.002H449.217V256V233.74H382.433V166.956H449.217V166.957Z" fill="#D80027"/>
</g>
<defs>
<filter id="filter0_dd_105_1498" x="0" y="0" width="520" height="520" filterUnits="userSpaceOnUse" color-interpolation-filters="sRGB">
<feFlood flood-opacity="0" result="BackgroundImageFix"/>
<feColorMatrix in="SourceAlpha" type="matrix" values="0 0 0 0 0 0 0 0 0 0 0 0 0 0 0 0 0 0 127 0" result="hardAlpha"/>
<feOffset dy="4"/>
<feGaussianBlur stdDeviation="2"/>
<feComposite in2="hardAlpha" operator="out"/>
<feColorMatrix type="matrix" values="0 0 0 0 0 0 0 0 0 0 0 0 0 0 0 0 0 0 0.25 0"/>
<feBlend mode="normal" in2="BackgroundImageFix" result="effect1_dropShadow_105_1498"/>
<feColorMatrix in="SourceAlpha" type="matrix" values="0 0 0 0 0 0 0 0 0 0 0 0 0 0 0 0 0 0 127 0" result="hardAlpha"/>
<feOffset dy="4"/>
<feGaussianBlur stdDeviation="2"/>
<feComposite in2="hardAlpha" operator="out"/>
<feColorMatrix type="matrix" values="0 0 0 0 0 0 0 0 0 0 0 0 0 0 0 0 0 0 0.25 0"/>
<feBlend mode="normal" in2="effect1_dropShadow_105_1498" result="effect2_dropShadow_105_1498"/>
<feBlend mode="normal" in="SourceGraphic" in2="effect2_dropShadow_105_1498" result="shape"/>
</filter>
<clipPath id="clip0_105_1498">
<rect width="512" height="512" fill="white" transform="translate(4)"/>
</clipPath>
</defs>
</svg>
