<svg width="520" height="520" viewBox="0 0 520 520" fill="none" xmlns="http://www.w3.org/2000/svg">
<g clip-path="url(#clip0_105_1579)" filter="url(#filter0_dd_105_1579)">
<path d="M260 512C401.385 512 516 397.385 516 256C516 114.615 401.385 0 260 0C118.615 0 4 114.615 4 256C4 397.385 118.615 512 260 512Z" fill="#FFDA44"/>
<path d="M115.713 44.522C156.798 16.436 206.476 0 260 0C313.524 0 363.202 16.436 404.287 44.522L260 55.652L115.713 44.522Z" fill="#A2001D"/>
<path d="M260 256L243.662 239.662L239.324 247.433L260 256Z" fill="#0052B4"/>
<path d="M78.98 74.98C-20.994 174.954 -20.994 337.045 78.98 437.02C120.293 395.707 160.026 355.974 260 256L78.98 74.98Z" fill="#496E2D"/>
<path d="M441.02 74.98C540.994 174.954 540.994 337.045 441.02 437.02C399.707 395.707 359.974 355.974 260 256L441.02 74.98Z" fill="#496E2D"/>
<path d="M260 345.043C309.177 345.043 349.043 305.177 349.043 256C349.043 206.823 309.177 166.957 260 166.957C210.823 166.957 170.957 206.823 170.957 256C170.957 305.177 210.823 345.043 260 345.043Z" fill="#A2001D"/>
<path d="M259.999 166.957L279.958 228.386H344.556L292.298 266.359L312.257 327.791L259.999 289.825L207.739 327.791L227.702 266.359L175.444 228.386H240.038L259.999 166.957Z" fill="#FFDA44"/>
<path d="M260 0C259.971 0 259.943 0.002 259.914 0.002H260.085C260.057 0.002 260.029 0 260 0Z" fill="#FFDA44"/>
<path d="M260.086 0H259.915C189.262 0.023 125.301 28.666 78.9941 74.968H441.007C394.699 28.666 330.738 0.023 260.086 0Z" fill="#A2001D"/>
<path d="M78.9951 437.033C125.321 483.352 189.315 512 260 512C330.685 512 394.679 483.352 441.005 437.033H78.9951Z" fill="#A2001D"/>
<path d="M260 27.8259L264.145 40.5799H277.555L266.706 48.4629L270.851 61.2169L260 53.3349L249.151 61.2169L253.296 48.4629L242.445 40.5799H255.855L260 27.8259Z" fill="#FFDA44"/>
<path d="M197.923 27.8259L202.068 40.5799H215.478L204.629 48.4629L208.774 61.2169L197.923 53.3349L187.075 61.2169L191.219 48.4629L180.368 40.5799H193.778L197.923 27.8259Z" fill="#FFDA44"/>
<path d="M322.077 27.8259L326.222 40.5799H339.632L328.783 48.4629L332.928 61.2169L322.077 53.3349L311.228 61.2169L315.373 48.4629L304.522 40.5799H317.932L322.077 27.8259Z" fill="#FFDA44"/>
<path d="M260 450.783L264.145 463.537H277.555L266.706 471.42L270.851 484.174L260 476.291L249.151 484.174L253.296 471.42L242.445 463.537H255.855L260 450.783Z" fill="#FFDA44"/>
<path d="M197.923 450.783L202.068 463.537H215.478L204.629 471.42L208.774 484.174L197.923 476.291L187.075 484.174L191.219 471.42L180.368 463.537H193.778L197.923 450.783Z" fill="#FFDA44"/>
<path d="M322.077 450.783L326.222 463.537H339.632L328.783 471.42L332.928 484.174L322.077 476.291L311.228 484.174L315.373 471.42L304.522 463.537H317.932L322.077 450.783Z" fill="#FFDA44"/>
<path d="M82.003 251.772C88.578 262.161 85.488 275.912 75.099 282.488C64.711 289.064 50.959 285.974 44.383 275.585C32.478 256.777 39.381 226.06 39.381 226.06C39.381 226.06 70.097 232.963 82.003 251.772Z" fill="#FFDA44"/>
<path d="M69.1461 284.215C75.293 284.215 80.2761 279.232 80.2761 273.085C80.2761 266.938 75.293 261.955 69.1461 261.955C62.9992 261.955 58.0161 266.938 58.0161 273.085C58.0161 279.232 62.9992 284.215 69.1461 284.215Z" fill="#A2001D"/>
</g>
<defs>
<filter id="filter0_dd_105_1579" x="0" y="0" width="520" height="520" filterUnits="userSpaceOnUse" color-interpolation-filters="sRGB">
<feFlood flood-opacity="0" result="BackgroundImageFix"/>
<feColorMatrix in="SourceAlpha" type="matrix" values="0 0 0 0 0 0 0 0 0 0 0 0 0 0 0 0 0 0 127 0" result="hardAlpha"/>
<feOffset dy="4"/>
<feGaussianBlur stdDeviation="2"/>
<feComposite in2="hardAlpha" operator="out"/>
<feColorMatrix type="matrix" values="0 0 0 0 0 0 0 0 0 0 0 0 0 0 0 0 0 0 0.25 0"/>
<feBlend mode="normal" in2="BackgroundImageFix" result="effect1_dropShadow_105_1579"/>
<feColorMatrix in="SourceAlpha" type="matrix" values="0 0 0 0 0 0 0 0 0 0 0 0 0 0 0 0 0 0 127 0" result="hardAlpha"/>
<feOffset dy="4"/>
<feGaussianBlur stdDeviation="2"/>
<feComposite in2="hardAlpha" operator="out"/>
<feColorMatrix type="matrix" values="0 0 0 0 0 0 0 0 0 0 0 0 0 0 0 0 0 0 0.25 0"/>
<feBlend mode="normal" in2="effect1_dropShadow_105_1579" result="effect2_dropShadow_105_1579"/>
<feBlend mode="normal" in="SourceGraphic" in2="effect2_dropShadow_105_1579" result="shape"/>
</filter>
<clipPath id="clip0_105_1579">
<rect width="512" height="512" fill="white" transform="translate(4)"/>
</clipPath>
</defs>
</svg>
