<svg width="520" height="520" viewBox="0 0 520 520" fill="none" xmlns="http://www.w3.org/2000/svg">
<g clip-path="url(#clip0_105_1642)" filter="url(#filter0_dd_105_1642)">
<path d="M516 256C516 397.384 401.384 512 260 512C118.616 512 4 397.384 4 256C4 114.616 260 0 260 0C260 0 516 114.616 516 256Z" fill="#A2001D"/>
<path d="M4 256C4 114.616 118.616 0 260 0C401.384 0 516 114.616 516 256" fill="#0052B4"/>
<path d="M349.043 322.783L260 311.652L170.957 322.783V189.217H349.043V322.783Z" fill="#F0F0F0"/>
<path d="M260 311.652C284.589 311.652 304.522 291.719 304.522 267.13C304.522 242.541 284.589 222.608 260 222.608C235.411 222.608 215.478 242.541 215.478 267.13C215.478 291.719 235.411 311.652 260 311.652Z" fill="#0052B4"/>
<path d="M260 289.391C272.294 289.391 282.261 279.424 282.261 267.13C282.261 254.835 272.294 244.869 260 244.869C247.705 244.869 237.739 254.835 237.739 267.13C237.739 279.424 247.705 289.391 260 289.391Z" fill="#A2001D"/>
<path d="M226.609 211.478H293.391L260 244.87L226.609 211.478Z" fill="#6DA544"/>
<path d="M248.87 233.739H271.131V300.522H248.87V233.739Z" fill="#FFDA44"/>
<path d="M295.617 293.843H224.381L170.957 322.783H349.043L295.617 293.843Z" fill="#6DA544"/>
</g>
<defs>
<filter id="filter0_dd_105_1642" x="0" y="0" width="520" height="520" filterUnits="userSpaceOnUse" color-interpolation-filters="sRGB">
<feFlood flood-opacity="0" result="BackgroundImageFix"/>
<feColorMatrix in="SourceAlpha" type="matrix" values="0 0 0 0 0 0 0 0 0 0 0 0 0 0 0 0 0 0 127 0" result="hardAlpha"/>
<feOffset dy="4"/>
<feGaussianBlur stdDeviation="2"/>
<feComposite in2="hardAlpha" operator="out"/>
<feColorMatrix type="matrix" values="0 0 0 0 0 0 0 0 0 0 0 0 0 0 0 0 0 0 0.25 0"/>
<feBlend mode="normal" in2="BackgroundImageFix" result="effect1_dropShadow_105_1642"/>
<feColorMatrix in="SourceAlpha" type="matrix" values="0 0 0 0 0 0 0 0 0 0 0 0 0 0 0 0 0 0 127 0" result="hardAlpha"/>
<feOffset dy="4"/>
<feGaussianBlur stdDeviation="2"/>
<feComposite in2="hardAlpha" operator="out"/>
<feColorMatrix type="matrix" values="0 0 0 0 0 0 0 0 0 0 0 0 0 0 0 0 0 0 0.25 0"/>
<feBlend mode="normal" in2="effect1_dropShadow_105_1642" result="effect2_dropShadow_105_1642"/>
<feBlend mode="normal" in="SourceGraphic" in2="effect2_dropShadow_105_1642" result="shape"/>
</filter>
<clipPath id="clip0_105_1642">
<rect width="512" height="512" fill="white" transform="translate(4)"/>
</clipPath>
</defs>
</svg>
