<svg width="520" height="520" viewBox="0 0 520 520" fill="none" xmlns="http://www.w3.org/2000/svg">
<g clip-path="url(#clip0_105_1729)" filter="url(#filter0_dd_105_1729)">
<path d="M260 512C291.314 512 321.311 506.368 349.043 496.077L360.174 256L349.044 15.923C321.311 5.633 291.314 0 260 0C228.686 0 198.689 5.633 170.957 15.923L159.826 256L170.956 496.077C198.689 506.368 228.686 512 260 512Z" fill="#F0F0F0"/>
<path d="M4 256C4 366.071 73.472 459.906 170.957 496.077V15.9229C73.472 52.0939 4 145.929 4 256Z" fill="#FF9811"/>
<path d="M349.043 15.9229V496.078C446.528 459.906 516 366.071 516 256C516 145.929 446.528 52.0939 349.043 15.9229Z" fill="#6DA544"/>
</g>
<defs>
<filter id="filter0_dd_105_1729" x="0" y="0" width="520" height="520" filterUnits="userSpaceOnUse" color-interpolation-filters="sRGB">
<feFlood flood-opacity="0" result="BackgroundImageFix"/>
<feColorMatrix in="SourceAlpha" type="matrix" values="0 0 0 0 0 0 0 0 0 0 0 0 0 0 0 0 0 0 127 0" result="hardAlpha"/>
<feOffset dy="4"/>
<feGaussianBlur stdDeviation="2"/>
<feComposite in2="hardAlpha" operator="out"/>
<feColorMatrix type="matrix" values="0 0 0 0 0 0 0 0 0 0 0 0 0 0 0 0 0 0 0.25 0"/>
<feBlend mode="normal" in2="BackgroundImageFix" result="effect1_dropShadow_105_1729"/>
<feColorMatrix in="SourceAlpha" type="matrix" values="0 0 0 0 0 0 0 0 0 0 0 0 0 0 0 0 0 0 127 0" result="hardAlpha"/>
<feOffset dy="4"/>
<feGaussianBlur stdDeviation="2"/>
<feComposite in2="hardAlpha" operator="out"/>
<feColorMatrix type="matrix" values="0 0 0 0 0 0 0 0 0 0 0 0 0 0 0 0 0 0 0.25 0"/>
<feBlend mode="normal" in2="effect1_dropShadow_105_1729" result="effect2_dropShadow_105_1729"/>
<feBlend mode="normal" in="SourceGraphic" in2="effect2_dropShadow_105_1729" result="shape"/>
</filter>
<clipPath id="clip0_105_1729">
<rect width="512" height="512" fill="white" transform="translate(4)"/>
</clipPath>
</defs>
</svg>
