<svg width="520" height="520" viewBox="0 0 520 520" fill="none" xmlns="http://www.w3.org/2000/svg">
<g clip-path="url(#clip0_105_1823)" filter="url(#filter0_dd_105_1823)">
<path d="M4 256.001C4 295.891 13.127 333.649 29.402 367.305L260 378.436L490.598 367.306C506.873 333.649 516 295.891 516 256.001C516 216.111 506.873 178.353 490.598 144.697L260 133.566L29.402 144.696C13.127 178.353 4 216.111 4 256.001H4Z" fill="#F0F0F0"/>
<path d="M260 512.001C361.493 512.001 449.19 452.936 490.598 367.305H29.402C70.81 452.936 158.506 512.001 260 512.001Z" fill="#6DA544"/>
<path d="M260 0.000976562C158.506 0.000976562 70.81 59.066 29.402 144.697H490.597C449.19 59.066 361.493 0.000976562 260 0.000976562Z" fill="#0052B4"/>
<path d="M276.696 250.436V189.219H243.305V250.436L202.975 290.767C214.704 309.967 235.855 322.784 260.001 322.784C284.147 322.784 305.297 309.967 317.027 290.767L276.696 250.436Z" fill="black"/>
</g>
<defs>
<filter id="filter0_dd_105_1823" x="0" y="0.000976562" width="520" height="520" filterUnits="userSpaceOnUse" color-interpolation-filters="sRGB">
<feFlood flood-opacity="0" result="BackgroundImageFix"/>
<feColorMatrix in="SourceAlpha" type="matrix" values="0 0 0 0 0 0 0 0 0 0 0 0 0 0 0 0 0 0 127 0" result="hardAlpha"/>
<feOffset dy="4"/>
<feGaussianBlur stdDeviation="2"/>
<feComposite in2="hardAlpha" operator="out"/>
<feColorMatrix type="matrix" values="0 0 0 0 0 0 0 0 0 0 0 0 0 0 0 0 0 0 0.25 0"/>
<feBlend mode="normal" in2="BackgroundImageFix" result="effect1_dropShadow_105_1823"/>
<feColorMatrix in="SourceAlpha" type="matrix" values="0 0 0 0 0 0 0 0 0 0 0 0 0 0 0 0 0 0 127 0" result="hardAlpha"/>
<feOffset dy="4"/>
<feGaussianBlur stdDeviation="2"/>
<feComposite in2="hardAlpha" operator="out"/>
<feColorMatrix type="matrix" values="0 0 0 0 0 0 0 0 0 0 0 0 0 0 0 0 0 0 0.25 0"/>
<feBlend mode="normal" in2="effect1_dropShadow_105_1823" result="effect2_dropShadow_105_1823"/>
<feBlend mode="normal" in="SourceGraphic" in2="effect2_dropShadow_105_1823" result="shape"/>
</filter>
<clipPath id="clip0_105_1823">
<rect width="512" height="512" fill="white" transform="translate(4 0.000976562)"/>
</clipPath>
</defs>
</svg>
