<svg width="520" height="520" viewBox="0 0 520 520" fill="none" xmlns="http://www.w3.org/2000/svg">
<g clip-path="url(#clip0_105_1852)" filter="url(#filter0_dd_105_1852)">
<path d="M516 256C516 397.384 401.384 512 260 512C118.616 512 4 397.384 4 256C15.13 256 260 222.609 260 222.609L516 256Z" fill="#D80027"/>
<path d="M4 256C4 114.616 118.616 0 260 0C401.384 0 516 114.616 516 256" fill="#0052B4"/>
<path d="M193.217 178.087C193.217 159.646 178.267 144.696 159.826 144.696C151.271 144.696 143.474 147.916 137.565 153.205V133.565H148.695V111.304H137.565V100.174H115.304V111.304H104.174V133.565H115.304V153.205C109.395 147.916 101.598 144.696 93.0431 144.696C74.6021 144.696 59.6521 159.646 59.6521 178.087C59.6521 187.974 63.9531 196.854 70.7821 202.969V222.609H182.086V202.969C188.917 196.854 193.217 187.974 193.217 178.087Z" fill="#FFDA44"/>
</g>
<defs>
<filter id="filter0_dd_105_1852" x="0" y="0" width="520" height="520" filterUnits="userSpaceOnUse" color-interpolation-filters="sRGB">
<feFlood flood-opacity="0" result="BackgroundImageFix"/>
<feColorMatrix in="SourceAlpha" type="matrix" values="0 0 0 0 0 0 0 0 0 0 0 0 0 0 0 0 0 0 127 0" result="hardAlpha"/>
<feOffset dy="4"/>
<feGaussianBlur stdDeviation="2"/>
<feComposite in2="hardAlpha" operator="out"/>
<feColorMatrix type="matrix" values="0 0 0 0 0 0 0 0 0 0 0 0 0 0 0 0 0 0 0.25 0"/>
<feBlend mode="normal" in2="BackgroundImageFix" result="effect1_dropShadow_105_1852"/>
<feColorMatrix in="SourceAlpha" type="matrix" values="0 0 0 0 0 0 0 0 0 0 0 0 0 0 0 0 0 0 127 0" result="hardAlpha"/>
<feOffset dy="4"/>
<feGaussianBlur stdDeviation="2"/>
<feComposite in2="hardAlpha" operator="out"/>
<feColorMatrix type="matrix" values="0 0 0 0 0 0 0 0 0 0 0 0 0 0 0 0 0 0 0.25 0"/>
<feBlend mode="normal" in2="effect1_dropShadow_105_1852" result="effect2_dropShadow_105_1852"/>
<feBlend mode="normal" in="SourceGraphic" in2="effect2_dropShadow_105_1852" result="shape"/>
</filter>
<clipPath id="clip0_105_1852">
<rect width="512" height="512" fill="white" transform="translate(4)"/>
</clipPath>
</defs>
</svg>
