<svg width="520" height="520" viewBox="0 0 520 520" fill="none" xmlns="http://www.w3.org/2000/svg">
<g clip-path="url(#clip0_105_1880)" filter="url(#filter0_dd_105_1880)">
<path d="M371.304 25.402C337.648 9.128 299.891 0 260 0C220.109 0 182.352 9.128 148.696 25.402L126.435 256L148.696 486.598C182.352 502.872 220.109 512 260 512C299.891 512 337.648 502.872 371.304 486.598L393.565 256L371.304 25.402Z" fill="#FFDA44"/>
<path d="M148.696 25.4111C63.065 66.8181 4 154.507 4 256C4 357.493 63.065 445.182 148.696 486.589V25.4111Z" fill="#0052B4"/>
<path d="M371.304 25.4111V486.589C456.934 445.182 516 357.493 516 256C516 154.507 456.934 66.8181 371.304 25.4111Z" fill="#0052B4"/>
<path d="M332.348 278.261L349.043 300.522V211.478L332.348 233.739H282.261V183.652L304.522 166.957H215.478L237.739 183.652V233.739H187.652L170.957 211.478V300.522L187.652 278.261H237.739V328.348L215.478 345.043H304.522L282.261 328.348V278.261H332.348Z" fill="#D80027"/>
<path d="M326.783 244.87H271.13V189.217H248.87V244.87H193.217V267.13H248.87V322.783H271.13V267.13H326.783V244.87Z" fill="#F0F0F0"/>
</g>
<defs>
<filter id="filter0_dd_105_1880" x="0" y="0" width="520" height="520" filterUnits="userSpaceOnUse" color-interpolation-filters="sRGB">
<feFlood flood-opacity="0" result="BackgroundImageFix"/>
<feColorMatrix in="SourceAlpha" type="matrix" values="0 0 0 0 0 0 0 0 0 0 0 0 0 0 0 0 0 0 127 0" result="hardAlpha"/>
<feOffset dy="4"/>
<feGaussianBlur stdDeviation="2"/>
<feComposite in2="hardAlpha" operator="out"/>
<feColorMatrix type="matrix" values="0 0 0 0 0 0 0 0 0 0 0 0 0 0 0 0 0 0 0.25 0"/>
<feBlend mode="normal" in2="BackgroundImageFix" result="effect1_dropShadow_105_1880"/>
<feColorMatrix in="SourceAlpha" type="matrix" values="0 0 0 0 0 0 0 0 0 0 0 0 0 0 0 0 0 0 127 0" result="hardAlpha"/>
<feOffset dy="4"/>
<feGaussianBlur stdDeviation="2"/>
<feComposite in2="hardAlpha" operator="out"/>
<feColorMatrix type="matrix" values="0 0 0 0 0 0 0 0 0 0 0 0 0 0 0 0 0 0 0.25 0"/>
<feBlend mode="normal" in2="effect1_dropShadow_105_1880" result="effect2_dropShadow_105_1880"/>
<feBlend mode="normal" in="SourceGraphic" in2="effect2_dropShadow_105_1880" result="shape"/>
</filter>
<clipPath id="clip0_105_1880">
<rect width="512" height="512" fill="white" transform="translate(4)"/>
</clipPath>
</defs>
</svg>
