<svg width="520" height="520" viewBox="0 0 520 520" fill="none" xmlns="http://www.w3.org/2000/svg">
<g clip-path="url(#clip0_105_1887)" filter="url(#filter0_dd_105_1887)">
<path d="M4 256C4 287.314 9.633 317.31 19.923 345.043L260 356.174L500.077 345.044C510.368 317.31 516 287.314 516 256C516 224.686 510.368 194.69 500.077 166.957L260 155.826L19.923 166.956C9.633 194.69 4 224.686 4 256H4Z" fill="#D80027"/>
<path d="M260 0C149.929 0 56.0939 69.472 19.9229 166.957H500.078C463.906 69.472 370.071 0 260 0Z" fill="black"/>
<path d="M500.077 345.043H19.9229C56.0939 442.527 149.929 512 260 512C370.071 512 463.906 442.527 500.077 345.043Z" fill="#496E2D"/>
<path d="M336.515 122.435L305.251 107.729L321.9 77.45L287.95 83.945L283.648 49.647L260 74.872L236.353 49.647L232.05 83.945L198.101 77.45L214.75 107.729L183.485 122.435H336.515Z" fill="#D80027"/>
</g>
<defs>
<filter id="filter0_dd_105_1887" x="0" y="0" width="520" height="520" filterUnits="userSpaceOnUse" color-interpolation-filters="sRGB">
<feFlood flood-opacity="0" result="BackgroundImageFix"/>
<feColorMatrix in="SourceAlpha" type="matrix" values="0 0 0 0 0 0 0 0 0 0 0 0 0 0 0 0 0 0 127 0" result="hardAlpha"/>
<feOffset dy="4"/>
<feGaussianBlur stdDeviation="2"/>
<feComposite in2="hardAlpha" operator="out"/>
<feColorMatrix type="matrix" values="0 0 0 0 0 0 0 0 0 0 0 0 0 0 0 0 0 0 0.25 0"/>
<feBlend mode="normal" in2="BackgroundImageFix" result="effect1_dropShadow_105_1887"/>
<feColorMatrix in="SourceAlpha" type="matrix" values="0 0 0 0 0 0 0 0 0 0 0 0 0 0 0 0 0 0 127 0" result="hardAlpha"/>
<feOffset dy="4"/>
<feGaussianBlur stdDeviation="2"/>
<feComposite in2="hardAlpha" operator="out"/>
<feColorMatrix type="matrix" values="0 0 0 0 0 0 0 0 0 0 0 0 0 0 0 0 0 0 0.25 0"/>
<feBlend mode="normal" in2="effect1_dropShadow_105_1887" result="effect2_dropShadow_105_1887"/>
<feBlend mode="normal" in="SourceGraphic" in2="effect2_dropShadow_105_1887" result="shape"/>
</filter>
<clipPath id="clip0_105_1887">
<rect width="512" height="512" fill="white" transform="translate(4)"/>
</clipPath>
</defs>
</svg>
