<svg width="520" height="520" viewBox="0 0 520 520" fill="none" xmlns="http://www.w3.org/2000/svg">
<g clip-path="url(#clip0_105_1915)" filter="url(#filter0_dd_105_1915)">
<path d="M260 512C401.384 512 516 397.384 516 256C516 213.037 505.4 172.554 486.698 137L259.699 256.3L379 29.302C343.446 10.6 302.963 0 260 0C118.616 0 4 114.616 4 256C4 326.693 32.654 390.693 78.98 437.02C125.307 483.347 189.307 512 260 512Z" fill="#0052B4"/>
<path d="M486.428 137.279C474.71 114.975 459.475 94.0342 440.721 75.2802C421.966 56.5262 401.028 41.2912 378.722 29.5742L78.6809 437.319L486.428 137.279Z" fill="#F0F0F0"/>
<path d="M78.6809 437.319L486.428 137.279C474.71 114.975 459.475 94.0338 440.721 75.2798L78.6809 437.319Z" fill="#FF9811"/>
<path d="M226.308 150.122L195.044 164.828L211.693 195.108L177.743 188.613L173.441 222.909L149.793 197.684L126.145 222.909L121.845 188.613L87.8951 195.106L104.542 164.827L73.2781 150.122L104.543 135.415L87.8951 105.137L121.843 111.63L126.146 77.334L149.793 102.559L173.441 77.334L177.743 111.63L211.694 105.137L195.045 135.416L226.308 150.122Z" fill="#F0F0F0"/>
</g>
<defs>
<filter id="filter0_dd_105_1915" x="0" y="0" width="520" height="520" filterUnits="userSpaceOnUse" color-interpolation-filters="sRGB">
<feFlood flood-opacity="0" result="BackgroundImageFix"/>
<feColorMatrix in="SourceAlpha" type="matrix" values="0 0 0 0 0 0 0 0 0 0 0 0 0 0 0 0 0 0 127 0" result="hardAlpha"/>
<feOffset dy="4"/>
<feGaussianBlur stdDeviation="2"/>
<feComposite in2="hardAlpha" operator="out"/>
<feColorMatrix type="matrix" values="0 0 0 0 0 0 0 0 0 0 0 0 0 0 0 0 0 0 0.25 0"/>
<feBlend mode="normal" in2="BackgroundImageFix" result="effect1_dropShadow_105_1915"/>
<feColorMatrix in="SourceAlpha" type="matrix" values="0 0 0 0 0 0 0 0 0 0 0 0 0 0 0 0 0 0 127 0" result="hardAlpha"/>
<feOffset dy="4"/>
<feGaussianBlur stdDeviation="2"/>
<feComposite in2="hardAlpha" operator="out"/>
<feColorMatrix type="matrix" values="0 0 0 0 0 0 0 0 0 0 0 0 0 0 0 0 0 0 0.25 0"/>
<feBlend mode="normal" in2="effect1_dropShadow_105_1915" result="effect2_dropShadow_105_1915"/>
<feBlend mode="normal" in="SourceGraphic" in2="effect2_dropShadow_105_1915" result="shape"/>
</filter>
<clipPath id="clip0_105_1915">
<rect width="512" height="512" fill="white" transform="translate(4)"/>
</clipPath>
</defs>
</svg>
