<svg width="520" height="520" viewBox="0 0 520 520" fill="none" xmlns="http://www.w3.org/2000/svg">
<g clip-path="url(#clip0_105_1968)" filter="url(#filter0_dd_105_1968)">
<path d="M260 512C401.385 512 516 397.385 516 256C516 114.615 401.385 0 260 0C118.615 0 4 114.615 4 256C4 397.385 118.615 512 260 512Z" fill="#338AF3"/>
<path d="M259.999 111.304L271.049 145.316H306.813L277.881 166.337L288.931 200.348L259.999 179.328L231.066 200.348L242.119 166.337L213.186 145.316H248.949L259.999 111.304Z" fill="#F0F0F0"/>
<path d="M115.304 256.002L149.316 244.95V209.186L170.337 238.12L204.348 227.069L183.328 256.002L204.348 284.932L170.337 273.88L149.316 302.813V267.051L115.304 256.002Z" fill="#F0F0F0"/>
<path d="M260.001 400.696L248.95 366.684H213.186L242.12 345.663L231.069 311.652L260.001 332.672L288.932 311.652L277.88 345.663L306.813 366.684H271.051L260.001 400.696Z" fill="#F0F0F0"/>
<path d="M404.695 255.999L370.683 267.05V302.813L349.662 273.88L315.651 284.931L336.671 255.999L315.651 227.068L349.662 238.12L370.683 209.186V244.949L404.695 255.999Z" fill="#F0F0F0"/>
</g>
<defs>
<filter id="filter0_dd_105_1968" x="0" y="0" width="520" height="520" filterUnits="userSpaceOnUse" color-interpolation-filters="sRGB">
<feFlood flood-opacity="0" result="BackgroundImageFix"/>
<feColorMatrix in="SourceAlpha" type="matrix" values="0 0 0 0 0 0 0 0 0 0 0 0 0 0 0 0 0 0 127 0" result="hardAlpha"/>
<feOffset dy="4"/>
<feGaussianBlur stdDeviation="2"/>
<feComposite in2="hardAlpha" operator="out"/>
<feColorMatrix type="matrix" values="0 0 0 0 0 0 0 0 0 0 0 0 0 0 0 0 0 0 0.25 0"/>
<feBlend mode="normal" in2="BackgroundImageFix" result="effect1_dropShadow_105_1968"/>
<feColorMatrix in="SourceAlpha" type="matrix" values="0 0 0 0 0 0 0 0 0 0 0 0 0 0 0 0 0 0 127 0" result="hardAlpha"/>
<feOffset dy="4"/>
<feGaussianBlur stdDeviation="2"/>
<feComposite in2="hardAlpha" operator="out"/>
<feColorMatrix type="matrix" values="0 0 0 0 0 0 0 0 0 0 0 0 0 0 0 0 0 0 0.25 0"/>
<feBlend mode="normal" in2="effect1_dropShadow_105_1968" result="effect2_dropShadow_105_1968"/>
<feBlend mode="normal" in="SourceGraphic" in2="effect2_dropShadow_105_1968" result="shape"/>
</filter>
<clipPath id="clip0_105_1968">
<rect width="512" height="512" fill="white" transform="translate(4)"/>
</clipPath>
</defs>
</svg>
