<svg width="520" height="520" viewBox="0 0 520 520" fill="none" xmlns="http://www.w3.org/2000/svg">
<g clip-path="url(#clip0_105_2030)" filter="url(#filter0_dd_105_2030)">
<path d="M500.077 345.043C510.368 317.311 516 287.314 516 256C516 224.686 510.368 194.689 500.077 166.957L260 144.696L19.923 166.957C9.633 194.689 4 224.686 4 256C4 287.314 9.633 317.311 19.923 345.043L260 367.304L500.077 345.043Z" fill="#6DA544"/>
<path d="M500.077 166.957C463.906 69.472 370.071 0 260 0C149.929 0 56.0939 69.472 19.9229 166.957H500.077Z" fill="#FFDA44"/>
<path d="M260 512C370.071 512 463.906 442.528 500.077 345.043H19.9229C56.0939 442.528 149.929 512 260 512Z" fill="#D80027"/>
<path d="M435.549 216.586H301.442L260 89.043L218.558 216.586H84.4512L192.946 295.412L151.504 422.957L260 345.043L368.496 422.956L327.055 295.411L435.549 216.586Z" fill="#F0F0F0"/>
</g>
<defs>
<filter id="filter0_dd_105_2030" x="0" y="0" width="520" height="520" filterUnits="userSpaceOnUse" color-interpolation-filters="sRGB">
<feFlood flood-opacity="0" result="BackgroundImageFix"/>
<feColorMatrix in="SourceAlpha" type="matrix" values="0 0 0 0 0 0 0 0 0 0 0 0 0 0 0 0 0 0 127 0" result="hardAlpha"/>
<feOffset dy="4"/>
<feGaussianBlur stdDeviation="2"/>
<feComposite in2="hardAlpha" operator="out"/>
<feColorMatrix type="matrix" values="0 0 0 0 0 0 0 0 0 0 0 0 0 0 0 0 0 0 0.25 0"/>
<feBlend mode="normal" in2="BackgroundImageFix" result="effect1_dropShadow_105_2030"/>
<feColorMatrix in="SourceAlpha" type="matrix" values="0 0 0 0 0 0 0 0 0 0 0 0 0 0 0 0 0 0 127 0" result="hardAlpha"/>
<feOffset dy="4"/>
<feGaussianBlur stdDeviation="2"/>
<feComposite in2="hardAlpha" operator="out"/>
<feColorMatrix type="matrix" values="0 0 0 0 0 0 0 0 0 0 0 0 0 0 0 0 0 0 0.25 0"/>
<feBlend mode="normal" in2="effect1_dropShadow_105_2030" result="effect2_dropShadow_105_2030"/>
<feBlend mode="normal" in="SourceGraphic" in2="effect2_dropShadow_105_2030" result="shape"/>
</filter>
<clipPath id="clip0_105_2030">
<rect width="512" height="512" fill="white" transform="translate(4)"/>
</clipPath>
</defs>
</svg>
