<svg width="520" height="520" viewBox="0 0 520 520" fill="none" xmlns="http://www.w3.org/2000/svg">
<g clip-path="url(#clip0_105_2035)" filter="url(#filter0_dd_105_2035)">
<path d="M260 512C401.385 512 516 397.385 516 256C516 114.615 401.385 0 260 0C118.615 0 4 114.615 4 256C4 397.385 118.615 512 260 512Z" fill="#F0F0F0"/>
<path d="M78.9814 437.02C89.7204 447.759 101.178 457.336 113.197 465.768L469.766 109.198C461.335 97.1791 451.758 85.7211 441.018 74.9821C430.279 64.2431 418.821 54.6671 406.802 46.2351L50.2344 402.805C58.6654 414.822 68.2424 426.281 78.9814 437.02Z" fill="#A2001D"/>
<path d="M78.9811 74.9801C-1.78291 155.744 -17.2869 277.036 32.4361 373.378L377.378 28.4371C281.036 -21.2859 159.743 -5.77988 78.9811 74.9801Z" fill="#0052B4"/>
<path d="M441.019 437.02C521.781 356.258 537.285 234.965 487.564 138.622L142.622 483.564C238.963 533.287 360.256 517.783 441.019 437.02Z" fill="#496E2D"/>
<path d="M215.478 144.696L186.792 158.189L202.068 185.971L170.919 180.013L166.971 211.478L145.275 188.335L123.578 211.478L119.632 180.013L88.4823 185.97L103.757 158.188L75.0723 144.696L103.758 131.202L88.4823 103.422L119.631 109.38L123.579 77.9131L145.275 101.057L166.972 77.9131L170.919 109.38L202.068 103.422L186.794 131.203L215.478 144.696Z" fill="#FFDA44"/>
</g>
<defs>
<filter id="filter0_dd_105_2035" x="0" y="0" width="520" height="520" filterUnits="userSpaceOnUse" color-interpolation-filters="sRGB">
<feFlood flood-opacity="0" result="BackgroundImageFix"/>
<feColorMatrix in="SourceAlpha" type="matrix" values="0 0 0 0 0 0 0 0 0 0 0 0 0 0 0 0 0 0 127 0" result="hardAlpha"/>
<feOffset dy="4"/>
<feGaussianBlur stdDeviation="2"/>
<feComposite in2="hardAlpha" operator="out"/>
<feColorMatrix type="matrix" values="0 0 0 0 0 0 0 0 0 0 0 0 0 0 0 0 0 0 0.25 0"/>
<feBlend mode="normal" in2="BackgroundImageFix" result="effect1_dropShadow_105_2035"/>
<feColorMatrix in="SourceAlpha" type="matrix" values="0 0 0 0 0 0 0 0 0 0 0 0 0 0 0 0 0 0 127 0" result="hardAlpha"/>
<feOffset dy="4"/>
<feGaussianBlur stdDeviation="2"/>
<feComposite in2="hardAlpha" operator="out"/>
<feColorMatrix type="matrix" values="0 0 0 0 0 0 0 0 0 0 0 0 0 0 0 0 0 0 0.25 0"/>
<feBlend mode="normal" in2="effect1_dropShadow_105_2035" result="effect2_dropShadow_105_2035"/>
<feBlend mode="normal" in="SourceGraphic" in2="effect2_dropShadow_105_2035" result="shape"/>
</filter>
<clipPath id="clip0_105_2035">
<rect width="512" height="512" fill="white" transform="translate(4)"/>
</clipPath>
</defs>
</svg>
