<svg width="521" height="520" viewBox="0 0 521 520" fill="none" xmlns="http://www.w3.org/2000/svg">
<g clip-path="url(#clip0_105_2075)" filter="url(#filter0_dd_105_2075)">
<path d="M516.988 256C516.988 397.384 402.372 512 260.988 512C119.604 512 4.98828 397.384 4.98828 256C4.98828 256.061 260.988 0.028 260.988 0C402.372 0 516.988 114.616 516.988 256Z" fill="#0052B4"/>
<path d="M260.303 256H260.988C260.988 255.77 260.988 255.546 260.988 255.315C260.76 255.544 260.532 255.772 260.303 256Z" fill="#F0F0F0"/>
<path d="M260.988 133.565C260.988 88.52 260.988 59.005 260.988 0H260.945C119.58 0.024 4.98828 114.629 4.98828 256H138.553V180.789L213.765 256H260.304C260.532 255.772 260.761 255.544 260.989 255.315C260.989 238.068 260.989 222.679 260.989 208.778L185.776 133.565H260.988Z" fill="#F0F0F0"/>
<path d="M134.503 33.3911C94.4644 56.1901 61.1784 89.4761 38.3794 129.515V256H105.162V100.176V100.174H260.988C260.988 79.1111 260.988 59.0451 260.988 33.3911H134.503Z" fill="#D80027"/>
<path d="M260.988 224.519L170.035 133.566C170.035 133.566 138.554 133.568 138.554 133.566V133.568L260.987 256H260.988C260.988 256 260.988 234.293 260.988 224.519Z" fill="#D80027"/>
<path d="M448.318 189.959L453.843 206.965H471.724L457.258 217.475L462.784 234.48L448.318 223.971L433.851 234.48L439.377 217.475L424.91 206.965H442.791L448.318 189.959Z" fill="#D80027"/>
<path d="M384.4 312.393L392.689 337.903H419.51L397.81 353.667L406.1 379.176L384.4 363.411L362.7 379.176L370.99 353.667L349.29 337.903H376.111L384.4 312.393Z" fill="#D80027"/>
<path d="M386.814 112.046L393.722 133.305H416.073L397.989 146.44L404.897 167.698L386.814 154.559L368.732 167.698L375.639 146.44L357.557 133.305H379.907L386.814 112.046Z" fill="#D80027"/>
<path d="M325.31 189.217L333.598 214.727H360.42L338.72 230.491L347.01 256L325.31 240.235L303.61 256L311.9 230.491L290.2 214.727H317.021L325.31 189.217Z" fill="#D80027"/>
</g>
<defs>
<filter id="filter0_dd_105_2075" x="0.988281" y="0" width="520" height="520" filterUnits="userSpaceOnUse" color-interpolation-filters="sRGB">
<feFlood flood-opacity="0" result="BackgroundImageFix"/>
<feColorMatrix in="SourceAlpha" type="matrix" values="0 0 0 0 0 0 0 0 0 0 0 0 0 0 0 0 0 0 127 0" result="hardAlpha"/>
<feOffset dy="4"/>
<feGaussianBlur stdDeviation="2"/>
<feComposite in2="hardAlpha" operator="out"/>
<feColorMatrix type="matrix" values="0 0 0 0 0 0 0 0 0 0 0 0 0 0 0 0 0 0 0.25 0"/>
<feBlend mode="normal" in2="BackgroundImageFix" result="effect1_dropShadow_105_2075"/>
<feColorMatrix in="SourceAlpha" type="matrix" values="0 0 0 0 0 0 0 0 0 0 0 0 0 0 0 0 0 0 127 0" result="hardAlpha"/>
<feOffset dy="4"/>
<feGaussianBlur stdDeviation="2"/>
<feComposite in2="hardAlpha" operator="out"/>
<feColorMatrix type="matrix" values="0 0 0 0 0 0 0 0 0 0 0 0 0 0 0 0 0 0 0.25 0"/>
<feBlend mode="normal" in2="effect1_dropShadow_105_2075" result="effect2_dropShadow_105_2075"/>
<feBlend mode="normal" in="SourceGraphic" in2="effect2_dropShadow_105_2075" result="shape"/>
</filter>
<clipPath id="clip0_105_2075">
<rect width="512" height="512" fill="white" transform="translate(4.98828)"/>
</clipPath>
</defs>
</svg>
