<svg width="520" height="520" viewBox="0 0 520 520" fill="none" xmlns="http://www.w3.org/2000/svg">
<g clip-path="url(#clip0_105_2139)" filter="url(#filter0_dd_105_2139)">
<path d="M260 512C401.385 512 516 397.385 516 256C516 114.615 401.385 0 260 0C118.615 0 4 114.615 4 256C4 397.385 118.615 512 260 512Z" fill="#F0F0F0"/>
<path d="M65.939 89.043C56.956 99.476 48.801 110.639 41.573 122.434H478.425C471.197 110.639 463.043 99.475 454.059 89.043H65.939Z" fill="#D80027"/>
<path d="M65.939 422.957H454.06C463.043 412.524 471.198 401.361 478.426 389.566H41.574C48.801 401.36 56.956 412.524 65.939 422.957Z" fill="#D80027"/>
<path d="M227.24 209.186L248.244 238.131L282.261 227.101L261.224 256.021L282.226 284.965L248.221 273.893L227.184 302.813L227.205 267.052L193.2 255.98L227.218 244.95L227.24 209.186Z" fill="#D80027"/>
<path d="M169.915 328.348C129.959 328.348 97.567 295.956 97.567 256C97.567 216.044 129.959 183.652 169.915 183.652C182.373 183.652 194.096 186.802 204.33 192.348C188.275 176.647 166.318 166.956 142.089 166.956C92.911 166.956 53.046 206.822 53.046 255.999C53.046 305.176 92.912 345.042 142.089 345.042C166.318 345.042 188.275 335.351 204.33 319.65C194.096 325.198 182.374 328.348 169.915 328.348Z" fill="#D80027"/>
</g>
<defs>
<filter id="filter0_dd_105_2139" x="0" y="0" width="520" height="520" filterUnits="userSpaceOnUse" color-interpolation-filters="sRGB">
<feFlood flood-opacity="0" result="BackgroundImageFix"/>
<feColorMatrix in="SourceAlpha" type="matrix" values="0 0 0 0 0 0 0 0 0 0 0 0 0 0 0 0 0 0 127 0" result="hardAlpha"/>
<feOffset dy="4"/>
<feGaussianBlur stdDeviation="2"/>
<feComposite in2="hardAlpha" operator="out"/>
<feColorMatrix type="matrix" values="0 0 0 0 0 0 0 0 0 0 0 0 0 0 0 0 0 0 0.25 0"/>
<feBlend mode="normal" in2="BackgroundImageFix" result="effect1_dropShadow_105_2139"/>
<feColorMatrix in="SourceAlpha" type="matrix" values="0 0 0 0 0 0 0 0 0 0 0 0 0 0 0 0 0 0 127 0" result="hardAlpha"/>
<feOffset dy="4"/>
<feGaussianBlur stdDeviation="2"/>
<feComposite in2="hardAlpha" operator="out"/>
<feColorMatrix type="matrix" values="0 0 0 0 0 0 0 0 0 0 0 0 0 0 0 0 0 0 0.25 0"/>
<feBlend mode="normal" in2="effect1_dropShadow_105_2139" result="effect2_dropShadow_105_2139"/>
<feBlend mode="normal" in="SourceGraphic" in2="effect2_dropShadow_105_2139" result="shape"/>
</filter>
<clipPath id="clip0_105_2139">
<rect width="512" height="512" fill="white" transform="translate(4)"/>
</clipPath>
</defs>
</svg>
