<svg width="520" height="520" viewBox="0 0 520 520" fill="none" xmlns="http://www.w3.org/2000/svg">
<g clip-path="url(#clip0_105_2196)" filter="url(#filter0_dd_105_2196)">
<path d="M260 512C401.385 512 516 397.385 516 256C516 114.615 401.385 0 260 0C118.615 0 4 114.615 4 256C4 397.385 118.615 512 260 512Z" fill="#F0F0F0"/>
<path d="M4 256C4 397.384 118.616 512 260 512C260 414.645 260 256 260 256C260 256 93.043 256 4 256Z" fill="#0052B4"/>
<path d="M260 0C401.384 0 516 114.616 516 256C418.645 256 260 256 260 256C260 256 260 89.043 260 0Z" fill="#D80027"/>
<path d="M156.389 89.043L172.966 140.061H226.609L183.211 171.591L199.787 222.609L156.389 191.078L112.991 222.609L129.567 171.591L86.1689 140.061H139.812L156.389 89.043Z" fill="#0052B4"/>
<path d="M363.611 289.391L380.188 340.409H433.831L390.432 371.939L407.009 422.957L363.611 391.426L320.213 422.957L336.789 371.939L293.391 340.409H347.034L363.611 289.391Z" fill="#D80027"/>
</g>
<defs>
<filter id="filter0_dd_105_2196" x="0" y="0" width="520" height="520" filterUnits="userSpaceOnUse" color-interpolation-filters="sRGB">
<feFlood flood-opacity="0" result="BackgroundImageFix"/>
<feColorMatrix in="SourceAlpha" type="matrix" values="0 0 0 0 0 0 0 0 0 0 0 0 0 0 0 0 0 0 127 0" result="hardAlpha"/>
<feOffset dy="4"/>
<feGaussianBlur stdDeviation="2"/>
<feComposite in2="hardAlpha" operator="out"/>
<feColorMatrix type="matrix" values="0 0 0 0 0 0 0 0 0 0 0 0 0 0 0 0 0 0 0.25 0"/>
<feBlend mode="normal" in2="BackgroundImageFix" result="effect1_dropShadow_105_2196"/>
<feColorMatrix in="SourceAlpha" type="matrix" values="0 0 0 0 0 0 0 0 0 0 0 0 0 0 0 0 0 0 127 0" result="hardAlpha"/>
<feOffset dy="4"/>
<feGaussianBlur stdDeviation="2"/>
<feComposite in2="hardAlpha" operator="out"/>
<feColorMatrix type="matrix" values="0 0 0 0 0 0 0 0 0 0 0 0 0 0 0 0 0 0 0.25 0"/>
<feBlend mode="normal" in2="effect1_dropShadow_105_2196" result="effect2_dropShadow_105_2196"/>
<feBlend mode="normal" in="SourceGraphic" in2="effect2_dropShadow_105_2196" result="shape"/>
</filter>
<clipPath id="clip0_105_2196">
<rect width="512" height="512" fill="white" transform="translate(4)"/>
</clipPath>
</defs>
</svg>
