<svg width="520" height="520" viewBox="0 0 520 520" fill="none" xmlns="http://www.w3.org/2000/svg">
<g clip-path="url(#clip0_105_2202)" filter="url(#filter0_dd_105_2202)">
<path d="M441.02 437.019C341.046 536.993 178.956 536.993 78.98 437.019C-20.994 337.045 -20.994 174.954 78.981 74.979C178.955 -24.995 325.304 -9.25398 425.278 90.721C525.251 190.695 540.993 337.045 441.02 437.019Z" fill="black"/>
<path d="M78.981 74.98C178.955 -24.994 341.044 -24.992 441.02 74.981C540.994 174.955 540.994 337.045 441.02 437.02" fill="#A2001D"/>
<path d="M199.642 345.044L203.786 357.799H217.197L206.347 365.681L210.492 378.436L199.642 370.553L188.792 378.436L192.936 365.681L182.087 357.799H195.497L199.642 345.044Z" fill="#F0F0F0"/>
<path d="M165.391 222.609L172.3 243.867H194.65L176.567 257.004L183.474 278.262L165.391 265.123L147.309 278.262L154.217 257.004L136.133 243.867H158.485L165.391 222.609Z" fill="#F0F0F0"/>
<path d="M165.391 378.436L172.298 399.694H194.65L176.565 412.83L183.474 434.088L165.391 420.949L147.309 434.088L154.215 412.83L136.133 399.694H158.482L165.391 378.436Z" fill="#F0F0F0"/>
<path d="M230.741 278.262L237.65 299.52H260L241.917 312.656L248.824 333.914L230.741 320.775L212.659 333.914L219.567 312.656L201.484 299.52H223.835L230.741 278.262Z" fill="#F0F0F0"/>
<path d="M100.04 278.262L106.949 299.52H129.298L111.216 312.656L118.122 333.914L100.04 320.775L81.957 333.914L88.866 312.656L70.782 299.52H93.133L100.04 278.262Z" fill="#F0F0F0"/>
<path d="M432.549 189.561C421.108 178.12 406.242 171.361 390.267 170.2L438.087 133.007C419.042 113.962 393.516 105.361 368.608 107.18C365.626 96.464 359.941 86.342 351.514 77.915L332.625 115.693C331.386 113.435 329.817 111.31 327.903 109.397C317.035 98.53 299.417 98.53 288.551 109.397C277.685 120.264 277.683 137.882 288.551 148.749C290.464 150.662 292.59 152.231 294.848 153.471L257.07 172.36C265.499 180.79 275.628 186.479 286.35 189.459C284.525 214.367 293.117 239.889 312.163 258.935L353.943 205.217C357.086 202.122 361.237 200.413 365.653 200.413C370.113 200.413 374.305 202.149 377.458 205.304C380.612 208.457 382.349 212.65 382.349 217.109C382.349 221.569 380.612 225.761 377.458 228.915L393.2 244.657C400.557 237.299 404.61 227.516 404.61 217.11C404.61 208.596 401.894 200.502 396.88 193.81C404.186 195.761 411.091 199.583 416.811 205.304C434.171 222.663 434.171 250.909 416.811 268.267L432.553 284.009C445.166 271.395 452.113 254.625 452.113 236.786C452.11 218.945 445.162 202.175 432.549 189.561Z" fill="#FFDA44"/>
</g>
<defs>
<filter id="filter0_dd_105_2202" x="0" y="0" width="520" height="520" filterUnits="userSpaceOnUse" color-interpolation-filters="sRGB">
<feFlood flood-opacity="0" result="BackgroundImageFix"/>
<feColorMatrix in="SourceAlpha" type="matrix" values="0 0 0 0 0 0 0 0 0 0 0 0 0 0 0 0 0 0 127 0" result="hardAlpha"/>
<feOffset dy="4"/>
<feGaussianBlur stdDeviation="2"/>
<feComposite in2="hardAlpha" operator="out"/>
<feColorMatrix type="matrix" values="0 0 0 0 0 0 0 0 0 0 0 0 0 0 0 0 0 0 0.25 0"/>
<feBlend mode="normal" in2="BackgroundImageFix" result="effect1_dropShadow_105_2202"/>
<feColorMatrix in="SourceAlpha" type="matrix" values="0 0 0 0 0 0 0 0 0 0 0 0 0 0 0 0 0 0 127 0" result="hardAlpha"/>
<feOffset dy="4"/>
<feGaussianBlur stdDeviation="2"/>
<feComposite in2="hardAlpha" operator="out"/>
<feColorMatrix type="matrix" values="0 0 0 0 0 0 0 0 0 0 0 0 0 0 0 0 0 0 0.25 0"/>
<feBlend mode="normal" in2="effect1_dropShadow_105_2202" result="effect2_dropShadow_105_2202"/>
<feBlend mode="normal" in="SourceGraphic" in2="effect2_dropShadow_105_2202" result="shape"/>
</filter>
<clipPath id="clip0_105_2202">
<rect width="512" height="512" fill="white" transform="translate(4)"/>
</clipPath>
</defs>
</svg>
