<svg width="520" height="520" viewBox="0 0 520 520" fill="none" xmlns="http://www.w3.org/2000/svg">
<g clip-path="url(#clip0_105_2262)" filter="url(#filter0_dd_105_2262)">
<path d="M260 512C401.385 512 516 397.385 516 256C516 114.615 401.385 0 260 0C118.615 0 4 114.615 4 256C4 397.385 118.615 512 260 512Z" fill="#F0F0F0"/>
<path d="M516 256C516 114.616 401.384 0 260 0C209.92 0 163.206 14.395 123.748 39.251L179.861 63.092L104.174 95.25L179.861 127.407L104.174 159.563L179.861 191.718L104.174 223.869L179.861 256.018L104.174 288.174L179.861 320.328L104.174 352.479L179.861 384.633L104.174 416.789L179.861 448.94L123.773 472.768C163.226 497.612 209.93 512 260 512C401.384 512 516 397.384 516 256Z" fill="#751A46"/>
</g>
<defs>
<filter id="filter0_dd_105_2262" x="0" y="0" width="520" height="520" filterUnits="userSpaceOnUse" color-interpolation-filters="sRGB">
<feFlood flood-opacity="0" result="BackgroundImageFix"/>
<feColorMatrix in="SourceAlpha" type="matrix" values="0 0 0 0 0 0 0 0 0 0 0 0 0 0 0 0 0 0 127 0" result="hardAlpha"/>
<feOffset dy="4"/>
<feGaussianBlur stdDeviation="2"/>
<feComposite in2="hardAlpha" operator="out"/>
<feColorMatrix type="matrix" values="0 0 0 0 0 0 0 0 0 0 0 0 0 0 0 0 0 0 0.25 0"/>
<feBlend mode="normal" in2="BackgroundImageFix" result="effect1_dropShadow_105_2262"/>
<feColorMatrix in="SourceAlpha" type="matrix" values="0 0 0 0 0 0 0 0 0 0 0 0 0 0 0 0 0 0 127 0" result="hardAlpha"/>
<feOffset dy="4"/>
<feGaussianBlur stdDeviation="2"/>
<feComposite in2="hardAlpha" operator="out"/>
<feColorMatrix type="matrix" values="0 0 0 0 0 0 0 0 0 0 0 0 0 0 0 0 0 0 0.25 0"/>
<feBlend mode="normal" in2="effect1_dropShadow_105_2262" result="effect2_dropShadow_105_2262"/>
<feBlend mode="normal" in="SourceGraphic" in2="effect2_dropShadow_105_2262" result="shape"/>
</filter>
<clipPath id="clip0_105_2262">
<rect width="512" height="512" fill="white" transform="translate(4)"/>
</clipPath>
</defs>
</svg>
