<svg width="520" height="520" viewBox="0 0 520 520" fill="none" xmlns="http://www.w3.org/2000/svg">
<g clip-path="url(#clip0_105_2307)" filter="url(#filter0_dd_105_2307)">
<path d="M29.402 144.696C13.128 178.352 4 216.109 4 256C4 295.891 13.128 333.648 29.402 367.304L260 389.565L490.598 367.304C506.872 333.648 516 295.891 516 256C516 216.109 506.872 178.352 490.598 144.696L260 122.435L29.402 144.696Z" fill="#F0F0F0"/>
<path d="M29.4111 367.304C70.8171 452.935 158.507 512 260 512C361.493 512 449.183 452.935 490.589 367.304H29.4111Z" fill="#496E2D"/>
<path d="M29.4111 144.696H490.589C449.183 59.065 361.494 0 260 0C158.506 0 70.8171 59.065 29.4111 144.696Z" fill="black"/>
<path d="M78.98 74.98C-20.994 174.954 -20.994 337.045 78.98 437.02C120.293 395.707 160.026 355.974 260 256L78.98 74.98Z" fill="#D80027"/>
<path d="M326.783 256C326.783 218.702 352.996 187.543 388 179.899C382.62 178.724 377.038 178.087 371.304 178.087C328.273 178.087 293.391 212.969 293.391 256C293.391 299.031 328.273 333.913 371.304 333.913C377.037 333.913 382.619 333.276 388 332.101C352.996 324.457 326.783 293.298 326.783 256Z" fill="#D80027"/>
<path d="M391.273 205.913L402.326 239.927H438.087L409.155 260.945L420.207 294.957L391.273 273.937L362.342 294.957L373.395 260.945L344.461 239.927H380.222L391.273 205.913Z" fill="#D80027"/>
</g>
<defs>
<filter id="filter0_dd_105_2307" x="0" y="0" width="520" height="520" filterUnits="userSpaceOnUse" color-interpolation-filters="sRGB">
<feFlood flood-opacity="0" result="BackgroundImageFix"/>
<feColorMatrix in="SourceAlpha" type="matrix" values="0 0 0 0 0 0 0 0 0 0 0 0 0 0 0 0 0 0 127 0" result="hardAlpha"/>
<feOffset dy="4"/>
<feGaussianBlur stdDeviation="2"/>
<feComposite in2="hardAlpha" operator="out"/>
<feColorMatrix type="matrix" values="0 0 0 0 0 0 0 0 0 0 0 0 0 0 0 0 0 0 0.25 0"/>
<feBlend mode="normal" in2="BackgroundImageFix" result="effect1_dropShadow_105_2307"/>
<feColorMatrix in="SourceAlpha" type="matrix" values="0 0 0 0 0 0 0 0 0 0 0 0 0 0 0 0 0 0 127 0" result="hardAlpha"/>
<feOffset dy="4"/>
<feGaussianBlur stdDeviation="2"/>
<feComposite in2="hardAlpha" operator="out"/>
<feColorMatrix type="matrix" values="0 0 0 0 0 0 0 0 0 0 0 0 0 0 0 0 0 0 0.25 0"/>
<feBlend mode="normal" in2="effect1_dropShadow_105_2307" result="effect2_dropShadow_105_2307"/>
<feBlend mode="normal" in="SourceGraphic" in2="effect2_dropShadow_105_2307" result="shape"/>
</filter>
<clipPath id="clip0_105_2307">
<rect width="512" height="512" fill="white" transform="translate(4)"/>
</clipPath>
</defs>
</svg>
