<svg width="520" height="520" viewBox="0 0 520 520" fill="none" xmlns="http://www.w3.org/2000/svg">
<g clip-path="url(#clip0_105_2340)" filter="url(#filter0_dd_105_2340)">
<path d="M260 512.001C401.385 512.001 516 397.386 516 256.001C516 114.616 401.385 0.000976562 260 0.000976562C118.615 0.000976562 4 114.616 4 256.001C4 397.386 118.615 512.001 260 512.001Z" fill="#F0F0F0"/>
<path d="M513.833 222.61H293.393H293.392V2.16798C282.461 0.744977 271.317 0.000976562 260 0.000976562C248.683 0.000976562 237.539 0.744977 226.609 2.16798V222.608V222.609H6.167C4.744 233.54 4 244.684 4 256.001C4 267.318 4.744 278.462 6.167 289.392H226.607H226.608V509.834C237.539 511.257 248.683 512.001 260 512.001C271.317 512.001 282.461 511.258 293.391 509.834V289.395V289.393H513.833C515.256 278.462 516 267.318 516 256.001C516 244.684 515.256 233.54 513.833 222.61Z" fill="#D80027"/>
<path d="M382.435 89.0439C361.689 89.0439 344.258 103.233 339.316 122.435L382.435 133.565L425.554 122.435C420.612 103.234 403.181 89.0439 382.435 89.0439Z" fill="black"/>
<path d="M337.913 189.218L393.565 200.348V176.685C409.21 172.657 421.524 160.34 425.551 144.696L382.435 133.566H326.783L337.913 166.957V189.218Z" fill="black"/>
<path d="M425.554 122.436H326.783V144.697V166.958H337.913V144.697H425.551C426.467 141.14 426.957 137.41 426.957 133.567C426.957 129.723 426.47 125.993 425.554 122.436Z" fill="#ACABB1"/>
<path d="M148.696 89.0439C127.95 89.0439 110.519 103.233 105.577 122.435L148.696 133.565L191.815 122.435C186.873 103.234 169.442 89.0439 148.696 89.0439Z" fill="black"/>
<path d="M104.174 189.218L159.826 200.348V176.685C175.471 172.657 187.785 160.34 191.812 144.696L148.696 133.566H93.043L104.173 166.957V189.218H104.174Z" fill="black"/>
<path d="M191.815 122.436H93.043V144.697V166.958H104.173V144.697H191.811C192.727 141.14 193.217 137.41 193.217 133.567C193.217 129.723 192.731 125.993 191.815 122.436Z" fill="#ACABB1"/>
<path d="M382.435 311.653C361.689 311.653 344.258 325.842 339.316 345.044L382.435 356.174L425.554 345.044C420.612 325.842 403.181 311.653 382.435 311.653Z" fill="black"/>
<path d="M337.913 411.827L393.565 422.957V399.294C409.21 395.266 421.524 382.949 425.551 367.305L382.435 356.175H326.783L337.913 389.566V411.827Z" fill="black"/>
<path d="M425.554 345.044H326.783V367.305V389.566H337.913V367.305H425.551C426.467 363.748 426.957 360.018 426.957 356.175C426.957 352.332 426.47 348.602 425.554 345.044Z" fill="#ACABB1"/>
<path d="M148.696 311.653C127.95 311.653 110.519 325.842 105.577 345.044L148.696 356.174L191.815 345.044C186.873 325.842 169.442 311.653 148.696 311.653Z" fill="black"/>
<path d="M104.174 411.827L159.826 422.957V399.294C175.471 395.266 187.785 382.949 191.812 367.305L148.696 356.175H93.043L104.173 389.566V411.827H104.174Z" fill="black"/>
<path d="M191.815 345.044H93.043V367.305V389.566H104.173V367.305H191.811C192.727 363.748 193.217 360.018 193.217 356.175C193.217 352.332 192.731 348.602 191.815 345.044Z" fill="#ACABB1"/>
</g>
<defs>
<filter id="filter0_dd_105_2340" x="0" y="0.000976562" width="520" height="520" filterUnits="userSpaceOnUse" color-interpolation-filters="sRGB">
<feFlood flood-opacity="0" result="BackgroundImageFix"/>
<feColorMatrix in="SourceAlpha" type="matrix" values="0 0 0 0 0 0 0 0 0 0 0 0 0 0 0 0 0 0 127 0" result="hardAlpha"/>
<feOffset dy="4"/>
<feGaussianBlur stdDeviation="2"/>
<feComposite in2="hardAlpha" operator="out"/>
<feColorMatrix type="matrix" values="0 0 0 0 0 0 0 0 0 0 0 0 0 0 0 0 0 0 0.25 0"/>
<feBlend mode="normal" in2="BackgroundImageFix" result="effect1_dropShadow_105_2340"/>
<feColorMatrix in="SourceAlpha" type="matrix" values="0 0 0 0 0 0 0 0 0 0 0 0 0 0 0 0 0 0 127 0" result="hardAlpha"/>
<feOffset dy="4"/>
<feGaussianBlur stdDeviation="2"/>
<feComposite in2="hardAlpha" operator="out"/>
<feColorMatrix type="matrix" values="0 0 0 0 0 0 0 0 0 0 0 0 0 0 0 0 0 0 0.25 0"/>
<feBlend mode="normal" in2="effect1_dropShadow_105_2340" result="effect2_dropShadow_105_2340"/>
<feBlend mode="normal" in="SourceGraphic" in2="effect2_dropShadow_105_2340" result="shape"/>
</filter>
<clipPath id="clip0_105_2340">
<rect width="512" height="512" fill="white" transform="translate(4 0.000976562)"/>
</clipPath>
</defs>
</svg>
