<svg width="520" height="520" viewBox="0 0 520 520" fill="none" xmlns="http://www.w3.org/2000/svg">
<g clip-path="url(#clip0_105_2407)" filter="url(#filter0_dd_105_2407)">
<path d="M115.713 467.478C156.799 495.563 206.476 512 260 512C313.524 512 363.202 495.563 404.287 467.478L260 445.217L115.713 467.478Z" fill="#D80027"/>
<path d="M404.287 44.522C363.202 16.437 313.524 0 260 0C206.476 0 156.797 16.437 115.713 44.522L260 66.783L404.287 44.522Z" fill="#D80027"/>
<path d="M115.713 467.478C156.799 495.563 206.476 512 260 512C313.524 512 363.202 495.563 404.287 467.478L260 445.217L115.713 467.478Z" fill="#D80027"/>
<path d="M404.287 44.522C363.202 16.437 313.524 0 260 0C206.476 0 156.797 16.437 115.713 44.522L260 66.783L404.287 44.522Z" fill="#D80027"/>
<path d="M515.348 239.304C509.283 160.294 461.276 83.478 404.287 44.521H115.713C52.5771 87.682 9.75009 158.37 4.53809 239.304L260 256L515.348 239.304Z" fill="#0052B4"/>
<path d="M4.53809 272.696C9.75009 353.631 52.5761 424.318 115.712 467.479H404.286C467.425 424.319 510.249 353.631 515.461 272.696L260 256L4.53809 272.696Z" fill="#0052B4"/>
<path d="M515.348 239.303H276.696V33.391H243.305V239.303H4.539C4.184 244.823 4 250.39 4 256C4 261.609 4.183 267.175 4.538 272.695H243.305V478.609H276.696V272.695H515.463C515.817 267.175 516 261.609 516 256C516 250.431 515.775 244.862 515.348 239.303Z" fill="#D80027"/>
<path d="M104.174 256L259.999 158.058L415.826 256L259.999 353.943L104.174 256Z" fill="#F0F0F0"/>
<path d="M170.957 300.522H371.304L326.783 233.739L304.522 256L282.261 244.87L260 278.261H215.478L193.217 256L170.957 300.522Z" fill="#6DA544"/>
<path d="M260 189.217L265.526 206.222H283.405L268.94 216.733L274.466 233.739L260 223.229L245.534 233.739L251.06 216.733L236.595 206.222H254.474L260 189.217Z" fill="#FFDA44"/>
<path d="M259.999 130.074L59.6523 256L259.999 381.926L460.348 256L259.999 130.074ZM122.4 256L259.999 169.513L397.6 256L259.999 342.487L122.4 256Z" fill="#D80027"/>
</g>
<defs>
<filter id="filter0_dd_105_2407" x="0" y="0" width="520" height="520" filterUnits="userSpaceOnUse" color-interpolation-filters="sRGB">
<feFlood flood-opacity="0" result="BackgroundImageFix"/>
<feColorMatrix in="SourceAlpha" type="matrix" values="0 0 0 0 0 0 0 0 0 0 0 0 0 0 0 0 0 0 127 0" result="hardAlpha"/>
<feOffset dy="4"/>
<feGaussianBlur stdDeviation="2"/>
<feComposite in2="hardAlpha" operator="out"/>
<feColorMatrix type="matrix" values="0 0 0 0 0 0 0 0 0 0 0 0 0 0 0 0 0 0 0.25 0"/>
<feBlend mode="normal" in2="BackgroundImageFix" result="effect1_dropShadow_105_2407"/>
<feColorMatrix in="SourceAlpha" type="matrix" values="0 0 0 0 0 0 0 0 0 0 0 0 0 0 0 0 0 0 127 0" result="hardAlpha"/>
<feOffset dy="4"/>
<feGaussianBlur stdDeviation="2"/>
<feComposite in2="hardAlpha" operator="out"/>
<feColorMatrix type="matrix" values="0 0 0 0 0 0 0 0 0 0 0 0 0 0 0 0 0 0 0.25 0"/>
<feBlend mode="normal" in2="effect1_dropShadow_105_2407" result="effect2_dropShadow_105_2407"/>
<feBlend mode="normal" in="SourceGraphic" in2="effect2_dropShadow_105_2407" result="shape"/>
</filter>
<clipPath id="clip0_105_2407">
<rect width="512" height="512" fill="white" transform="translate(4)"/>
</clipPath>
</defs>
</svg>
