<svg width="520" height="520" viewBox="0 0 520 520" fill="none" xmlns="http://www.w3.org/2000/svg">
<g clip-path="url(#clip0_105_2445)" filter="url(#filter0_dd_105_2445)">
<path d="M441.027 437.027C537.038 341.016 540.829 187.731 452.44 87.1719L260 255.999L91.1719 448.44C191.731 536.829 345.015 533.038 441.027 437.027Z" fill="#496E2D"/>
<path d="M78.974 74.974C174.985 -21.037 328.27 -24.828 428.829 63.561L260 256.003L67.562 424.829C-20.828 324.27 -17.036 170.985 78.974 74.974Z" fill="#0052B4"/>
<path d="M428.827 63.5601L67.5601 424.828C71.2121 428.983 75.0041 433.059 78.9731 437.026C82.9411 440.994 87.0181 444.786 91.1741 448.44L452.439 87.1721C448.787 83.0161 444.994 78.9401 441.025 74.9711C437.059 71.0051 432.982 67.2121 428.827 63.5601Z" fill="#FFDA44"/>
<path d="M111.861 89.0359L117.388 106.043H135.269L120.803 116.552L126.328 133.559L111.861 123.048L97.3941 133.559L102.921 116.552L88.4541 106.043H106.336L111.861 89.0359Z" fill="#F0F0F0"/>
<path d="M203.2 89.0359L208.727 106.043H226.607L212.141 116.552L217.667 133.559L203.2 123.048L188.733 133.559L194.26 116.552L179.793 106.043H197.674L203.2 89.0359Z" fill="#F0F0F0"/>
<path d="M111.861 178.083L117.388 195.09H135.269L120.803 205.6L126.328 222.607L111.861 212.096L97.3941 222.607L102.921 205.6L88.4541 195.09H106.336L111.861 178.083Z" fill="#F0F0F0"/>
<path d="M203.2 178.083L208.727 195.09H226.607L212.141 205.6L217.667 222.607L203.2 212.096L188.733 222.607L194.26 205.6L179.793 195.09H197.674L203.2 178.083Z" fill="#F0F0F0"/>
<path d="M157.531 133.559L163.058 150.566H180.938L166.472 161.076L171.998 178.083L157.531 167.572L143.064 178.083L148.59 161.076L134.123 150.566H152.005L157.531 133.559Z" fill="#F0F0F0"/>
</g>
<defs>
<filter id="filter0_dd_105_2445" x="0" y="0" width="520.001" height="520.001" filterUnits="userSpaceOnUse" color-interpolation-filters="sRGB">
<feFlood flood-opacity="0" result="BackgroundImageFix"/>
<feColorMatrix in="SourceAlpha" type="matrix" values="0 0 0 0 0 0 0 0 0 0 0 0 0 0 0 0 0 0 127 0" result="hardAlpha"/>
<feOffset dy="4"/>
<feGaussianBlur stdDeviation="2"/>
<feComposite in2="hardAlpha" operator="out"/>
<feColorMatrix type="matrix" values="0 0 0 0 0 0 0 0 0 0 0 0 0 0 0 0 0 0 0.25 0"/>
<feBlend mode="normal" in2="BackgroundImageFix" result="effect1_dropShadow_105_2445"/>
<feColorMatrix in="SourceAlpha" type="matrix" values="0 0 0 0 0 0 0 0 0 0 0 0 0 0 0 0 0 0 127 0" result="hardAlpha"/>
<feOffset dy="4"/>
<feGaussianBlur stdDeviation="2"/>
<feComposite in2="hardAlpha" operator="out"/>
<feColorMatrix type="matrix" values="0 0 0 0 0 0 0 0 0 0 0 0 0 0 0 0 0 0 0.25 0"/>
<feBlend mode="normal" in2="effect1_dropShadow_105_2445" result="effect2_dropShadow_105_2445"/>
<feBlend mode="normal" in="SourceGraphic" in2="effect2_dropShadow_105_2445" result="shape"/>
</filter>
<clipPath id="clip0_105_2445">
<rect width="512.001" height="512.001" fill="white" transform="translate(4)"/>
</clipPath>
</defs>
</svg>
