<svg width="521" height="520" viewBox="0 0 521 520" fill="none" xmlns="http://www.w3.org/2000/svg">
<g clip-path="url(#clip0_105_2566)" filter="url(#filter0_dd_105_2566)">
<path d="M260.578 511.999C401.963 511.999 516.578 397.384 516.578 255.999C516.578 114.614 401.963 -0.000976562 260.578 -0.000976562C119.193 -0.000976562 4.57812 114.614 4.57812 255.999C4.57812 397.384 119.193 511.999 260.578 511.999Z" fill="#FFDA44"/>
<path d="M204.927 222.608H514.411C498.048 97.001 390.645 -0.000976562 260.578 -0.000976562C241.464 -0.000976562 222.845 2.11202 204.926 6.08402V222.608H204.927Z" fill="#0052B4"/>
<path d="M138.143 222.607V31.126C67.8491 69.48 17.5281 139.831 6.74512 222.608H138.143V222.607Z" fill="#0052B4"/>
<path d="M138.142 289.39H6.74512C17.5281 372.167 67.8491 442.518 138.143 480.871L138.142 289.39Z" fill="#0052B4"/>
<path d="M204.926 289.391V505.914C222.845 509.886 241.464 511.999 260.578 511.999C390.645 511.999 498.048 414.997 514.411 289.39H204.926V289.391Z" fill="#0052B4"/>
</g>
<defs>
<filter id="filter0_dd_105_2566" x="0.578125" y="-0.000976562" width="520" height="520" filterUnits="userSpaceOnUse" color-interpolation-filters="sRGB">
<feFlood flood-opacity="0" result="BackgroundImageFix"/>
<feColorMatrix in="SourceAlpha" type="matrix" values="0 0 0 0 0 0 0 0 0 0 0 0 0 0 0 0 0 0 127 0" result="hardAlpha"/>
<feOffset dy="4"/>
<feGaussianBlur stdDeviation="2"/>
<feComposite in2="hardAlpha" operator="out"/>
<feColorMatrix type="matrix" values="0 0 0 0 0 0 0 0 0 0 0 0 0 0 0 0 0 0 0.25 0"/>
<feBlend mode="normal" in2="BackgroundImageFix" result="effect1_dropShadow_105_2566"/>
<feColorMatrix in="SourceAlpha" type="matrix" values="0 0 0 0 0 0 0 0 0 0 0 0 0 0 0 0 0 0 127 0" result="hardAlpha"/>
<feOffset dy="4"/>
<feGaussianBlur stdDeviation="2"/>
<feComposite in2="hardAlpha" operator="out"/>
<feColorMatrix type="matrix" values="0 0 0 0 0 0 0 0 0 0 0 0 0 0 0 0 0 0 0.25 0"/>
<feBlend mode="normal" in2="effect1_dropShadow_105_2566" result="effect2_dropShadow_105_2566"/>
<feBlend mode="normal" in="SourceGraphic" in2="effect2_dropShadow_105_2566" result="shape"/>
</filter>
<clipPath id="clip0_105_2566">
<rect width="512" height="512" fill="white" transform="translate(4.57812 -0.000976562)"/>
</clipPath>
</defs>
</svg>
