<svg width="520" height="520" viewBox="0 0 520 520" fill="none" xmlns="http://www.w3.org/2000/svg">
<g clip-path="url(#clip0_105_2661)" filter="url(#filter0_dd_105_2661)">
<path d="M260 511.999C401.385 511.999 516 397.384 516 255.999C516 114.614 401.385 -0.000976562 260 -0.000976562C118.615 -0.000976562 4 114.614 4 255.999C4 397.384 118.615 511.999 260 511.999Z" fill="#D80027"/>
<path d="M260 378.434C327.619 378.434 382.435 323.618 382.435 255.999C382.435 188.38 327.619 133.564 260 133.564C192.381 133.564 137.565 188.38 137.565 255.999C137.565 323.618 192.381 378.434 260 378.434Z" fill="#F0F0F0"/>
<path d="M275.083 209.185L296.087 238.13L330.104 227.1L309.067 256.02L330.069 284.964L296.063 273.892L275.026 302.812L275.048 267.051L241.043 255.979L275.061 244.949L275.083 209.185Z" fill="#D80027"/>
<path d="M287.826 328.347C247.87 328.347 215.478 295.955 215.478 255.999C215.478 216.043 247.87 183.651 287.826 183.651C300.284 183.651 312.007 186.801 322.241 192.347C306.186 176.646 284.231 166.955 260 166.955C210.824 166.955 170.957 206.821 170.957 255.998C170.957 305.175 210.824 345.041 260 345.041C284.231 345.041 306.187 335.35 322.241 319.649C312.007 325.197 300.284 328.347 287.826 328.347Z" fill="#D80027"/>
</g>
<defs>
<filter id="filter0_dd_105_2661" x="0" y="-0.000976562" width="520" height="520" filterUnits="userSpaceOnUse" color-interpolation-filters="sRGB">
<feFlood flood-opacity="0" result="BackgroundImageFix"/>
<feColorMatrix in="SourceAlpha" type="matrix" values="0 0 0 0 0 0 0 0 0 0 0 0 0 0 0 0 0 0 127 0" result="hardAlpha"/>
<feOffset dy="4"/>
<feGaussianBlur stdDeviation="2"/>
<feComposite in2="hardAlpha" operator="out"/>
<feColorMatrix type="matrix" values="0 0 0 0 0 0 0 0 0 0 0 0 0 0 0 0 0 0 0.25 0"/>
<feBlend mode="normal" in2="BackgroundImageFix" result="effect1_dropShadow_105_2661"/>
<feColorMatrix in="SourceAlpha" type="matrix" values="0 0 0 0 0 0 0 0 0 0 0 0 0 0 0 0 0 0 127 0" result="hardAlpha"/>
<feOffset dy="4"/>
<feGaussianBlur stdDeviation="2"/>
<feComposite in2="hardAlpha" operator="out"/>
<feColorMatrix type="matrix" values="0 0 0 0 0 0 0 0 0 0 0 0 0 0 0 0 0 0 0.25 0"/>
<feBlend mode="normal" in2="effect1_dropShadow_105_2661" result="effect2_dropShadow_105_2661"/>
<feBlend mode="normal" in="SourceGraphic" in2="effect2_dropShadow_105_2661" result="shape"/>
</filter>
<clipPath id="clip0_105_2661">
<rect width="512" height="512" fill="white" transform="translate(4 -0.000976562)"/>
</clipPath>
</defs>
</svg>
