<svg width="520" height="520" viewBox="0 0 520 520" fill="none" xmlns="http://www.w3.org/2000/svg">
<g clip-path="url(#clip0_105_2774)" filter="url(#filter0_dd_105_2774)">
<path d="M260 511.999C401.385 511.999 516 397.384 516 255.999C516 114.614 401.385 -0.000976562 260 -0.000976562C118.615 -0.000976562 4 114.614 4 255.999C4 397.384 118.615 511.999 260 511.999Z" fill="#F0F0F0"/>
<path d="M248.87 255.999H516C516 232.893 512.92 210.509 507.181 189.216H248.87V255.999Z" fill="#D80027"/>
<path d="M248.87 122.434H478.426C462.755 96.8619 442.718 74.2589 419.356 55.6509H248.87V122.434Z" fill="#D80027"/>
<path d="M260 511.999C320.249 511.999 375.626 491.175 419.356 456.347H100.644C144.374 491.175 199.751 511.999 260 511.999Z" fill="#D80027"/>
<path d="M41.574 389.564H478.426C491.007 369.035 500.764 346.595 507.181 322.781H12.819C19.236 346.595 28.993 369.035 41.574 389.564Z" fill="#D80027"/>
<path d="M122.584 39.977H145.913L124.213 55.742L132.502 81.251L110.803 65.486L89.104 81.251L96.264 59.214C77.158 75.129 60.412 93.775 46.612 114.551H54.087L40.274 124.586C38.122 128.176 36.058 131.823 34.08 135.524L40.676 155.825L28.37 146.884C25.311 153.365 22.513 159.992 19.998 166.757L27.265 189.125H54.087L32.387 204.89L40.676 230.399L18.977 214.634L5.979 224.078C4.678 234.536 4 245.188 4 255.999H260C260 114.615 260 97.947 260 -0.000976562C209.428 -0.000976562 162.285 14.669 122.584 39.977ZM132.502 230.399L110.803 214.634L89.104 230.399L97.393 204.89L75.693 189.125H102.515L110.803 163.616L119.091 189.125H145.913L124.213 204.89L132.502 230.399ZM124.213 130.316L132.502 155.825L110.803 140.06L89.104 155.825L97.393 130.316L75.693 114.551H102.515L110.803 89.042L119.091 114.551H145.913L124.213 130.316ZM224.328 230.399L202.629 214.634L180.93 230.399L189.219 204.89L167.519 189.125H194.341L202.629 163.616L210.917 189.125H237.739L216.039 204.89L224.328 230.399ZM216.039 130.316L224.328 155.825L202.629 140.06L180.93 155.825L189.219 130.316L167.519 114.551H194.341L202.629 89.042L210.917 114.551H237.739L216.039 130.316ZM216.039 55.742L224.328 81.251L202.629 65.486L180.93 81.251L189.219 55.742L167.519 39.977H194.341L202.629 14.468L210.917 39.977H237.739L216.039 55.742Z" fill="#0052B4"/>
</g>
<defs>
<filter id="filter0_dd_105_2774" x="0" y="-0.000976562" width="520" height="520" filterUnits="userSpaceOnUse" color-interpolation-filters="sRGB">
<feFlood flood-opacity="0" result="BackgroundImageFix"/>
<feColorMatrix in="SourceAlpha" type="matrix" values="0 0 0 0 0 0 0 0 0 0 0 0 0 0 0 0 0 0 127 0" result="hardAlpha"/>
<feOffset dy="4"/>
<feGaussianBlur stdDeviation="2"/>
<feComposite in2="hardAlpha" operator="out"/>
<feColorMatrix type="matrix" values="0 0 0 0 0 0 0 0 0 0 0 0 0 0 0 0 0 0 0.25 0"/>
<feBlend mode="normal" in2="BackgroundImageFix" result="effect1_dropShadow_105_2774"/>
<feColorMatrix in="SourceAlpha" type="matrix" values="0 0 0 0 0 0 0 0 0 0 0 0 0 0 0 0 0 0 127 0" result="hardAlpha"/>
<feOffset dy="4"/>
<feGaussianBlur stdDeviation="2"/>
<feComposite in2="hardAlpha" operator="out"/>
<feColorMatrix type="matrix" values="0 0 0 0 0 0 0 0 0 0 0 0 0 0 0 0 0 0 0.25 0"/>
<feBlend mode="normal" in2="effect1_dropShadow_105_2774" result="effect2_dropShadow_105_2774"/>
<feBlend mode="normal" in="SourceGraphic" in2="effect2_dropShadow_105_2774" result="shape"/>
</filter>
<clipPath id="clip0_105_2774">
<rect width="512" height="512" fill="white" transform="translate(4 -0.000976562)"/>
</clipPath>
</defs>
</svg>
