<svg width="520" height="520" viewBox="0 0 520 520" fill="none" xmlns="http://www.w3.org/2000/svg">
<g clip-path="url(#clip0_105_2769)" filter="url(#filter0_dd_105_2769)">
<path d="M260 512C401.385 512 516 397.385 516 256C516 114.615 401.385 0 260 0C118.615 0 4 114.615 4 256C4 397.385 118.615 512 260 512Z" fill="#338AF3"/>
<path d="M259.261 166.957C210.082 166.957 170.218 206.823 170.218 256C170.218 305.177 210.083 345.043 259.261 345.043C308.437 345.043 348.304 305.177 348.304 256C348.304 206.823 308.436 166.957 259.261 166.957ZM237 256C237 243.706 246.966 233.739 259.261 233.739C271.555 233.739 281.522 243.706 281.522 256C281.522 268.295 271.555 278.261 259.261 278.261C246.966 278.261 237 268.295 237 256ZM282.341 217.921C278.886 215.822 275.12 214.192 271.132 213.091V190.291C281.173 192.093 290.431 196.132 298.377 201.886L282.341 217.921ZM248.872 212.71C244.695 213.709 240.749 215.296 237.123 217.379L221.013 201.269C229.157 195.567 238.625 191.628 248.872 190.025V212.71ZM237.122 294.621C240.748 296.703 244.694 298.291 248.871 299.289V321.973C238.623 320.372 229.157 316.431 221.013 310.729L237.122 294.621ZM271.133 298.909C275.12 297.808 278.888 296.179 282.341 294.08L298.376 310.115C290.43 315.868 281.173 319.908 271.132 321.71V298.91H271.133V298.909ZM297.881 278.14C299.842 274.727 301.375 271.035 302.38 267.131H325.102C323.43 277.093 319.556 286.302 313.992 294.248L297.881 278.14ZM302.38 244.87C301.375 240.965 299.842 237.276 297.881 233.862L313.991 217.752C319.555 225.699 323.43 234.907 325.101 244.869H302.379V244.87H302.38ZM205.146 216.885L221.181 232.92C218.952 236.59 217.239 240.606 216.141 244.87H193.419C195.152 234.544 199.251 225.026 205.146 216.885ZM193.419 267.13H216.141C217.238 271.394 218.951 275.41 221.181 279.08L205.146 295.115C199.251 286.974 195.152 277.457 193.419 267.13Z" fill="#F0F0F0"/>
<path d="M403.955 256C403.955 216.42 388.057 180.559 362.307 154.435L338.696 178.046C358.404 198.126 370.564 225.642 370.564 256C370.564 317.472 320.731 367.304 259.26 367.304C197.787 367.304 147.956 317.472 147.956 256C147.956 225.263 160.413 197.437 180.556 177.296L156.945 153.685C130.76 179.87 114.565 216.044 114.565 256C114.565 322.215 159.042 378.042 219.751 395.235C213.095 407.879 214.109 423.798 223.617 435.663C236.105 425.655 249.034 415.293 260.002 406.505C270.97 415.294 283.9 425.655 296.387 435.663C305.989 423.68 306.934 407.559 300.057 394.854C360.102 377.239 403.955 321.745 403.955 256Z" fill="#F0F0F0"/>
</g>
<defs>
<filter id="filter0_dd_105_2769" x="0" y="0" width="520" height="520" filterUnits="userSpaceOnUse" color-interpolation-filters="sRGB">
<feFlood flood-opacity="0" result="BackgroundImageFix"/>
<feColorMatrix in="SourceAlpha" type="matrix" values="0 0 0 0 0 0 0 0 0 0 0 0 0 0 0 0 0 0 127 0" result="hardAlpha"/>
<feOffset dy="4"/>
<feGaussianBlur stdDeviation="2"/>
<feComposite in2="hardAlpha" operator="out"/>
<feColorMatrix type="matrix" values="0 0 0 0 0 0 0 0 0 0 0 0 0 0 0 0 0 0 0.25 0"/>
<feBlend mode="normal" in2="BackgroundImageFix" result="effect1_dropShadow_105_2769"/>
<feColorMatrix in="SourceAlpha" type="matrix" values="0 0 0 0 0 0 0 0 0 0 0 0 0 0 0 0 0 0 127 0" result="hardAlpha"/>
<feOffset dy="4"/>
<feGaussianBlur stdDeviation="2"/>
<feComposite in2="hardAlpha" operator="out"/>
<feColorMatrix type="matrix" values="0 0 0 0 0 0 0 0 0 0 0 0 0 0 0 0 0 0 0.25 0"/>
<feBlend mode="normal" in2="effect1_dropShadow_105_2769" result="effect2_dropShadow_105_2769"/>
<feBlend mode="normal" in="SourceGraphic" in2="effect2_dropShadow_105_2769" result="shape"/>
</filter>
<clipPath id="clip0_105_2769">
<rect width="512" height="512" fill="white" transform="translate(4)"/>
</clipPath>
</defs>
</svg>
