<svg width="520" height="520" viewBox="0 0 520 520" fill="none" xmlns="http://www.w3.org/2000/svg">
<g clip-path="url(#clip0_105_2792)" filter="url(#filter0_dd_105_2792)">
<path d="M16.088 178.088C8.246 202.656 3.999 228.829 4 255.998C3.999 283.168 8.247 309.343 16.089 333.911L260 345.043L503.911 333.913C511.752 309.344 516.001 283.168 516.001 256C516 228.83 511.753 202.656 503.911 178.087L260 166.957L16.088 178.088Z" fill="#F0F0F0"/>
<path d="M503.91 178.088L259.999 166.958L16.087 178.088C13.763 185.372 11.762 192.799 10.085 200.349H509.909C508.234 192.798 506.234 185.37 503.91 178.088Z" fill="#D80027"/>
<path d="M10.0879 311.651C11.7629 319.201 13.7639 326.627 16.0879 333.911L16.1119 333.912L259.998 345.042L503.909 333.912C506.233 326.628 508.234 319.201 509.91 311.651H10.0879Z" fill="#D80027"/>
<path d="M259.999 511.999C374.215 511.999 470.945 437.196 503.91 333.912H16.0891C49.0541 437.195 145.786 511.999 259.999 511.999Z" fill="#6DA544"/>
<path d="M259.999 0.000976573C145.785 0.00197657 49.0549 74.805 16.0879 178.088L503.909 178.089C470.946 74.804 374.215 -2.34275e-05 259.999 0.000976573Z" fill="#338AF3"/>
<path d="M120.986 105.74C120.986 81.7628 137.837 61.7328 160.34 56.8188C156.882 56.0628 153.293 55.6538 149.607 55.6538C121.945 55.6538 99.52 78.0778 99.52 105.741C99.52 133.404 121.943 155.828 149.607 155.828C153.293 155.828 156.881 155.418 160.34 154.663C137.838 149.747 120.986 129.717 120.986 105.74Z" fill="#F0F0F0"/>
<path d="M189.944 128.507L193.334 138.942H204.306L195.43 145.392L198.82 155.827L189.944 149.378L181.066 155.827L184.457 145.392L175.58 138.942H186.552L189.944 128.507Z" fill="#F0F0F0"/>
<path d="M224.964 128.507L228.355 138.942H239.327L230.45 145.392L233.841 155.827L224.964 149.378L216.087 155.827L219.478 145.392L210.602 138.942H221.573L224.964 128.507Z" fill="#F0F0F0"/>
<path d="M259.985 128.507L263.375 138.942H274.348L265.471 145.392L268.861 155.827L259.985 149.378L251.107 155.827L254.499 145.392L245.621 138.942H256.594L259.985 128.507Z" fill="#F0F0F0"/>
<path d="M295.006 128.507L298.397 138.942H309.368L300.492 145.392L303.883 155.827L295.006 149.378L286.128 155.827L289.52 145.392L280.642 138.942H291.614L295.006 128.507Z" fill="#F0F0F0"/>
<path d="M330.026 128.507L333.417 138.942H344.389L335.513 145.392L338.904 155.827L330.026 149.378L321.149 155.827L324.54 145.392L315.664 138.942H326.635L330.026 128.507Z" fill="#F0F0F0"/>
<path d="M224.964 92.0801L228.355 102.514H239.327L230.45 108.965L233.841 119.399L224.964 112.95L216.087 119.399L219.478 108.965L210.602 102.514H221.573L224.964 92.0801Z" fill="#F0F0F0"/>
<path d="M259.985 92.0801L263.375 102.514H274.348L265.471 108.965L268.861 119.399L259.985 112.95L251.107 119.399L254.499 108.965L245.621 102.514H256.594L259.985 92.0801Z" fill="#F0F0F0"/>
<path d="M295.006 92.0801L298.397 102.514H309.368L300.492 108.965L303.883 119.399L295.006 112.95L286.128 119.399L289.52 108.965L280.642 102.514H291.614L295.006 92.0801Z" fill="#F0F0F0"/>
<path d="M330.026 92.0801L333.417 102.514H344.389L335.513 108.965L338.904 119.399L330.026 112.95L321.149 119.399L324.54 108.965L315.664 102.514H326.635L330.026 92.0801Z" fill="#F0F0F0"/>
<path d="M259.985 55.6519L263.375 66.0879H274.348L265.471 72.5369L268.861 82.9729L259.985 76.5239L251.107 82.9729L254.499 72.5369L245.621 66.0879H256.594L259.985 55.6519Z" fill="#F0F0F0"/>
<path d="M295.006 55.6519L298.397 66.0879H309.368L300.492 72.5369L303.883 82.9729L295.006 76.5239L286.128 82.9729L289.52 72.5369L280.642 66.0879H291.614L295.006 55.6519Z" fill="#F0F0F0"/>
<path d="M330.026 55.6519L333.417 66.0879H344.389L335.513 72.5369L338.904 82.9729L330.026 76.5239L321.149 82.9729L324.54 72.5369L315.664 66.0879H326.635L330.026 55.6519Z" fill="#F0F0F0"/>
</g>
<defs>
<filter id="filter0_dd_105_2792" x="0" y="0" width="520" height="520" filterUnits="userSpaceOnUse" color-interpolation-filters="sRGB">
<feFlood flood-opacity="0" result="BackgroundImageFix"/>
<feColorMatrix in="SourceAlpha" type="matrix" values="0 0 0 0 0 0 0 0 0 0 0 0 0 0 0 0 0 0 127 0" result="hardAlpha"/>
<feOffset dy="4"/>
<feGaussianBlur stdDeviation="2"/>
<feComposite in2="hardAlpha" operator="out"/>
<feColorMatrix type="matrix" values="0 0 0 0 0 0 0 0 0 0 0 0 0 0 0 0 0 0 0.25 0"/>
<feBlend mode="normal" in2="BackgroundImageFix" result="effect1_dropShadow_105_2792"/>
<feColorMatrix in="SourceAlpha" type="matrix" values="0 0 0 0 0 0 0 0 0 0 0 0 0 0 0 0 0 0 127 0" result="hardAlpha"/>
<feOffset dy="4"/>
<feGaussianBlur stdDeviation="2"/>
<feComposite in2="hardAlpha" operator="out"/>
<feColorMatrix type="matrix" values="0 0 0 0 0 0 0 0 0 0 0 0 0 0 0 0 0 0 0.25 0"/>
<feBlend mode="normal" in2="effect1_dropShadow_105_2792" result="effect2_dropShadow_105_2792"/>
<feBlend mode="normal" in="SourceGraphic" in2="effect2_dropShadow_105_2792" result="shape"/>
</filter>
<clipPath id="clip0_105_2792">
<rect width="512" height="512" fill="white" transform="translate(4)"/>
</clipPath>
</defs>
</svg>
