<svg width="520" height="521" viewBox="0 0 520 521" fill="none" xmlns="http://www.w3.org/2000/svg">
<g clip-path="url(#clip0_105_2813)" filter="url(#filter0_dd_105_2813)">
<path d="M516 256.002C516 244.685 515.257 233.541 513.833 222.611H226.606C174.305 170.313 78.976 74.9899 78.98 74.9819C-20.994 174.956 -20.994 337.046 78.98 437.022L226.609 289.394H513.833C515.256 278.463 516 267.319 516 256.002Z" fill="black"/>
<path d="M515.927 261.824C515.916 262.318 515.905 262.814 515.891 263.308C515.903 262.812 515.915 262.318 515.927 261.824Z" fill="#F0F0F0"/>
<path d="M515.681 268.82C515.658 269.309 515.624 269.796 515.598 270.284C515.624 269.797 515.656 269.309 515.681 268.82Z" fill="#F0F0F0"/>
<path d="M515.336 274.4C515.285 275.119 515.235 275.838 515.177 276.555C515.235 275.838 515.284 275.119 515.336 274.4Z" fill="#F0F0F0"/>
<path d="M514.481 228.1C514.575 228.956 514.669 229.811 514.754 230.669C514.669 229.81 514.574 228.956 514.481 228.1Z" fill="#F0F0F0"/>
<path d="M515.597 241.719C515.624 242.207 515.657 242.694 515.68 243.183C515.656 242.694 515.624 242.206 515.597 241.719Z" fill="#F0F0F0"/>
<path d="M515.89 248.697C515.904 249.191 515.914 249.687 515.926 250.181C515.915 249.685 515.903 249.191 515.89 248.697Z" fill="#F0F0F0"/>
<path d="M515.177 235.448C515.235 236.165 515.285 236.884 515.336 237.603C515.284 236.884 515.235 236.165 515.177 235.448Z" fill="#F0F0F0"/>
<path d="M513.833 222.61C513.948 223.487 514.05 224.369 514.155 225.248C498.961 98.3659 390.975 0.00195312 260 0.00195312C189.306 0.00195312 125.305 28.657 78.978 74.986L226.602 222.611H513.833V222.61Z" fill="#D80027"/>
<path d="M513.833 289.393H226.602L78.978 437.018C125.305 483.346 189.306 512.002 260 512.002C390.975 512.002 498.962 413.638 514.155 286.755C514.05 287.634 513.946 288.516 513.833 289.393Z" fill="#6DA544"/>
<path d="M514.753 281.334C514.668 282.192 514.574 283.047 514.48 283.903C514.574 283.047 514.669 282.193 514.753 281.334Z" fill="#F0F0F0"/>
<path d="M515.336 237.603C515.433 238.972 515.521 240.344 515.596 241.719C515.52 240.344 515.433 238.972 515.336 237.603Z" fill="black"/>
<path d="M514.155 225.248C514.27 226.197 514.379 227.148 514.481 228.1C514.377 227.148 514.268 226.198 514.155 225.248Z" fill="black"/>
<path d="M514.753 230.669C514.909 232.258 515.05 233.851 515.177 235.45C515.051 233.851 514.91 232.257 514.753 230.669Z" fill="black"/>
<path d="M516 256.002C516 257.949 515.97 259.888 515.927 261.823C515.97 259.887 516 257.948 516 256.002Z" fill="black"/>
<path d="M515.597 270.284C515.521 271.659 515.433 273.031 515.337 274.4C515.433 273.031 515.52 271.659 515.597 270.284Z" fill="black"/>
<path d="M515.177 276.555C515.05 278.152 514.909 279.746 514.753 281.334C514.91 279.746 515.051 278.152 515.177 276.555Z" fill="black"/>
<path d="M514.481 283.903C514.379 284.855 514.27 285.805 514.155 286.755C514.268 285.806 514.377 284.855 514.481 283.903Z" fill="black"/>
<path d="M515.927 250.18C515.97 252.116 516 254.056 516 256.001C516 254.056 515.97 252.116 515.927 250.18Z" fill="black"/>
<path d="M515.681 243.183C515.771 245.015 515.839 246.854 515.891 248.696C515.839 246.853 515.772 245.015 515.681 243.183Z" fill="black"/>
<path d="M515.89 263.308C515.838 265.15 515.77 266.989 515.68 268.821C515.772 266.988 515.839 265.15 515.89 263.308Z" fill="black"/>
<path d="M515.756 244.779H217.201L63.8441 91.4448C58.8871 96.6728 53.5141 103.973 50.1911 109.172L196.85 255.908L50.0681 402.693C52.9741 407.863 59.3051 415.515 63.7501 420.494L217.204 267.04H515.792C515.951 263.348 516.001 259.64 516.001 255.91C516 250.912 515.862 247.227 515.756 244.779Z" fill="#FFDA44"/>
<path d="M66.1871 310.574V289.131C87.5851 289.131 104.992 271.722 104.992 250.326C104.992 235.187 92.6751 222.871 77.5371 222.871C67.2241 222.871 58.8331 231.261 58.8331 241.576C58.8331 248.171 64.1981 253.537 70.7941 253.537C74.5221 253.537 77.5551 250.502 77.5551 246.774H98.9971C98.9971 262.327 86.3451 274.979 70.7951 274.979C52.3761 274.98 37.3931 259.994 37.3931 241.578C37.3931 219.441 55.4031 201.432 77.5381 201.432C104.5 201.432 126.436 223.368 126.436 250.329C126.435 283.546 99.4081 310.574 66.1871 310.574Z" fill="#FFDA44"/>
</g>
<defs>
<filter id="filter0_dd_105_2813" x="0" y="0.000976562" width="520.001" height="520.001" filterUnits="userSpaceOnUse" color-interpolation-filters="sRGB">
<feFlood flood-opacity="0" result="BackgroundImageFix"/>
<feColorMatrix in="SourceAlpha" type="matrix" values="0 0 0 0 0 0 0 0 0 0 0 0 0 0 0 0 0 0 127 0" result="hardAlpha"/>
<feOffset dy="4"/>
<feGaussianBlur stdDeviation="2"/>
<feComposite in2="hardAlpha" operator="out"/>
<feColorMatrix type="matrix" values="0 0 0 0 0 0 0 0 0 0 0 0 0 0 0 0 0 0 0.25 0"/>
<feBlend mode="normal" in2="BackgroundImageFix" result="effect1_dropShadow_105_2813"/>
<feColorMatrix in="SourceAlpha" type="matrix" values="0 0 0 0 0 0 0 0 0 0 0 0 0 0 0 0 0 0 127 0" result="hardAlpha"/>
<feOffset dy="4"/>
<feGaussianBlur stdDeviation="2"/>
<feComposite in2="hardAlpha" operator="out"/>
<feColorMatrix type="matrix" values="0 0 0 0 0 0 0 0 0 0 0 0 0 0 0 0 0 0 0.25 0"/>
<feBlend mode="normal" in2="effect1_dropShadow_105_2813" result="effect2_dropShadow_105_2813"/>
<feBlend mode="normal" in="SourceGraphic" in2="effect2_dropShadow_105_2813" result="shape"/>
</filter>
<clipPath id="clip0_105_2813">
<rect width="512.001" height="512.001" fill="white" transform="translate(4 0.000976562)"/>
</clipPath>
</defs>
</svg>
