<svg width="520" height="520" viewBox="0 0 520 520" fill="none" xmlns="http://www.w3.org/2000/svg">
<g clip-path="url(#clip0_105_2887)" filter="url(#filter0_dd_105_2887)">
<path d="M260 512C401.385 512 516 397.385 516 256C516 114.615 401.385 0 260 0C118.615 0 4 114.615 4 256C4 397.385 118.615 512 260 512Z" fill="#F0F0F0"/>
<path d="M491.497 146.603C478.491 119.129 460.74 94.346 439.3 73.301L260 55.652L80.6999 73.302C80.1279 73.863 79.5699 74.437 79.0039 75.004L150.604 146.604L260 149.945L491.497 146.603Z" fill="#FFDA44"/>
<path d="M79.001 436.999C79.943 437.941 80.883 438.884 81.839 439.812L260 456.348L438.159 439.812C459.82 418.812 477.788 394.027 490.977 366.51L159.825 356.174C131.332 384.668 98.468 417.53 79.001 436.999Z" fill="#FFDA44"/>
<path d="M513.454 219.905L215.478 211.478L260 256C246.813 269.187 227.127 288.873 215.478 300.522L513.298 293.208C515.068 281.059 516 268.639 516 256C516 243.746 515.12 231.7 513.454 219.905Z" fill="black"/>
<path d="M260 0C190.172 0 126.886 27.97 80.7002 73.302H439.3C393.114 27.97 329.828 0 260 0Z" fill="#6DA544"/>
<path d="M223.905 219.905H513.454C509.801 194.026 502.285 169.392 491.497 146.603H150.603L223.905 219.905Z" fill="#D80027"/>
<path d="M149.49 366.51H490.978C501.892 343.738 509.528 319.101 513.299 293.208H222.792C194.405 321.595 170.347 345.653 149.49 366.51Z" fill="#D80027"/>
<path d="M260 512C329.255 512 392.075 484.488 438.159 439.811H81.8408C127.925 484.488 190.745 512 260 512Z" fill="#6DA544"/>
<path d="M95.415 59.934C89.724 64.716 84.233 69.729 78.98 74.98L260 256L78.98 437.02C84.232 442.272 89.724 447.284 95.415 452.066L291.481 256L95.415 59.934Z" fill="black"/>
<path d="M106.925 189.217L123.5 240.233H177.145L133.747 271.765L150.323 322.783L106.925 291.252L63.526 322.783L80.104 271.765L36.707 240.233H90.349L106.925 189.217Z" fill="#D80027"/>
<path d="M152.519 260.174L109.321 244.87C109.321 244.87 106.129 214.927 105.936 213.912C104.47 206.189 97.683 200.348 89.533 200.348C80.313 200.348 72.837 207.823 72.837 217.044C72.837 218.573 73.06 220.046 73.445 221.454L61.333 233.647H82.869C82.869 256 66.189 256 66.189 278.261L75.442 300.522H131.094L140.37 278.261H140.366C141.295 276.125 141.859 273.922 142.092 271.721C150.088 268.487 152.519 260.174 152.519 260.174Z" fill="#FFDA44"/>
</g>
<defs>
<filter id="filter0_dd_105_2887" x="0" y="0" width="520" height="520" filterUnits="userSpaceOnUse" color-interpolation-filters="sRGB">
<feFlood flood-opacity="0" result="BackgroundImageFix"/>
<feColorMatrix in="SourceAlpha" type="matrix" values="0 0 0 0 0 0 0 0 0 0 0 0 0 0 0 0 0 0 127 0" result="hardAlpha"/>
<feOffset dy="4"/>
<feGaussianBlur stdDeviation="2"/>
<feComposite in2="hardAlpha" operator="out"/>
<feColorMatrix type="matrix" values="0 0 0 0 0 0 0 0 0 0 0 0 0 0 0 0 0 0 0.25 0"/>
<feBlend mode="normal" in2="BackgroundImageFix" result="effect1_dropShadow_105_2887"/>
<feColorMatrix in="SourceAlpha" type="matrix" values="0 0 0 0 0 0 0 0 0 0 0 0 0 0 0 0 0 0 127 0" result="hardAlpha"/>
<feOffset dy="4"/>
<feGaussianBlur stdDeviation="2"/>
<feComposite in2="hardAlpha" operator="out"/>
<feColorMatrix type="matrix" values="0 0 0 0 0 0 0 0 0 0 0 0 0 0 0 0 0 0 0.25 0"/>
<feBlend mode="normal" in2="effect1_dropShadow_105_2887" result="effect2_dropShadow_105_2887"/>
<feBlend mode="normal" in="SourceGraphic" in2="effect2_dropShadow_105_2887" result="shape"/>
</filter>
<clipPath id="clip0_105_2887">
<rect width="512" height="512" fill="white" transform="translate(4)"/>
</clipPath>
</defs>
</svg>
