<svg width="520" height="520" viewBox="0 0 520 520" fill="none" xmlns="http://www.w3.org/2000/svg">
<g clip-path="url(#clip0_105_817)" filter="url(#filter0_dd_105_817)">
<path d="M4 256C4 114.616 118.616 0 260 0C401.384 0 516 114.616 516 256C504.87 256 260 289.391 260 289.391L4 256Z" fill="#D80027"/>
<path d="M516 256C516 397.384 401.384 512 260 512C118.616 512 4 397.384 4 256" fill="black"/>
<path d="M224.898 203.612L246.6 219.362L238.33 244.87L260.016 229.094L281.72 244.844L273.418 219.344L295.102 203.57L268.287 203.586L259.984 178.087L251.713 203.595L224.898 203.612Z" fill="#FFDA44"/>
<path d="M324 145.149C303.827 133.502 281.77 128.005 260 128.043V161.427C276.091 161.398 292.393 165.458 307.304 174.068C352.482 200.152 368.017 258.128 341.932 303.306C315.849 348.484 257.874 364.019 212.695 337.935C199.533 330.336 188.908 320.018 181.076 308.111L153.2 326.515C163.797 342.624 178.193 356.571 196 366.851C257.124 402.141 335.561 381.124 370.85 320C406.14 258.876 385.124 180.439 324 145.149Z" fill="#FFDA44"/>
<path d="M186.19 233.739C177.34 249.918 183.282 270.209 199.46 279.059L307.909 338.319C300.534 351.8 304.451 368.209 317.932 375.584L347.227 391.609C360.708 398.985 377.619 394.033 384.994 380.551L401.019 351.257L186.19 233.739Z" fill="#FFDA44"/>
</g>
<defs>
<filter id="filter0_dd_105_817" x="0" y="0" width="520" height="520" filterUnits="userSpaceOnUse" color-interpolation-filters="sRGB">
<feFlood flood-opacity="0" result="BackgroundImageFix"/>
<feColorMatrix in="SourceAlpha" type="matrix" values="0 0 0 0 0 0 0 0 0 0 0 0 0 0 0 0 0 0 127 0" result="hardAlpha"/>
<feOffset dy="4"/>
<feGaussianBlur stdDeviation="2"/>
<feComposite in2="hardAlpha" operator="out"/>
<feColorMatrix type="matrix" values="0 0 0 0 0 0 0 0 0 0 0 0 0 0 0 0 0 0 0.25 0"/>
<feBlend mode="normal" in2="BackgroundImageFix" result="effect1_dropShadow_105_817"/>
<feColorMatrix in="SourceAlpha" type="matrix" values="0 0 0 0 0 0 0 0 0 0 0 0 0 0 0 0 0 0 127 0" result="hardAlpha"/>
<feOffset dy="4"/>
<feGaussianBlur stdDeviation="2"/>
<feComposite in2="hardAlpha" operator="out"/>
<feColorMatrix type="matrix" values="0 0 0 0 0 0 0 0 0 0 0 0 0 0 0 0 0 0 0.25 0"/>
<feBlend mode="normal" in2="effect1_dropShadow_105_817" result="effect2_dropShadow_105_817"/>
<feBlend mode="normal" in="SourceGraphic" in2="effect2_dropShadow_105_817" result="shape"/>
</filter>
<clipPath id="clip0_105_817">
<rect width="512" height="512" fill="white" transform="translate(4)"/>
</clipPath>
</defs>
</svg>
