<svg width="520" height="520" viewBox="0 0 520 520" fill="none" xmlns="http://www.w3.org/2000/svg">
<g clip-path="url(#clip0_105_847)" filter="url(#filter0_dd_105_847)">
<path d="M260 512C401.385 512 516 397.385 516 256C516 114.615 401.385 0 260 0C118.615 0 4 114.615 4 256C4 397.385 118.615 512 260 512Z" fill="#F0F0F0"/>
<path d="M260 0C158.506 0 70.8099 59.065 29.4019 144.696H490.597C449.19 59.065 361.493 0 260 0Z" fill="#338AF3"/>
<path d="M260 512C361.493 512 449.19 452.935 490.598 367.304H29.4019C70.8099 452.935 158.506 512 260 512Z" fill="#338AF3"/>
<path d="M336.515 256L305.25 270.707L321.899 300.986L287.949 294.491L283.647 328.787L260 303.563L236.352 328.787L232.051 294.491L198.101 300.985L214.749 270.706L183.485 256L214.75 241.293L198.101 211.015L232.05 217.509L236.353 183.213L260 208.437L283.648 183.213L287.949 217.509L321.9 211.015L305.251 241.294L336.515 256Z" fill="#FFDA44"/>
</g>
<defs>
<filter id="filter0_dd_105_847" x="0" y="0" width="520" height="520" filterUnits="userSpaceOnUse" color-interpolation-filters="sRGB">
<feFlood flood-opacity="0" result="BackgroundImageFix"/>
<feColorMatrix in="SourceAlpha" type="matrix" values="0 0 0 0 0 0 0 0 0 0 0 0 0 0 0 0 0 0 127 0" result="hardAlpha"/>
<feOffset dy="4"/>
<feGaussianBlur stdDeviation="2"/>
<feComposite in2="hardAlpha" operator="out"/>
<feColorMatrix type="matrix" values="0 0 0 0 0 0 0 0 0 0 0 0 0 0 0 0 0 0 0.25 0"/>
<feBlend mode="normal" in2="BackgroundImageFix" result="effect1_dropShadow_105_847"/>
<feColorMatrix in="SourceAlpha" type="matrix" values="0 0 0 0 0 0 0 0 0 0 0 0 0 0 0 0 0 0 127 0" result="hardAlpha"/>
<feOffset dy="4"/>
<feGaussianBlur stdDeviation="2"/>
<feComposite in2="hardAlpha" operator="out"/>
<feColorMatrix type="matrix" values="0 0 0 0 0 0 0 0 0 0 0 0 0 0 0 0 0 0 0.25 0"/>
<feBlend mode="normal" in2="effect1_dropShadow_105_847" result="effect2_dropShadow_105_847"/>
<feBlend mode="normal" in="SourceGraphic" in2="effect2_dropShadow_105_847" result="shape"/>
</filter>
<clipPath id="clip0_105_847">
<rect width="512" height="512" fill="white" transform="translate(4)"/>
</clipPath>
</defs>
</svg>
