<svg width="520" height="520" viewBox="0 0 520 520" fill="none" xmlns="http://www.w3.org/2000/svg">
<g clip-path="url(#clip0_105_1007)" filter="url(#filter0_dd_105_1007)">
<path d="M260 512C401.385 512 516 397.385 516 256C516 114.615 401.385 0 260 0C118.615 0 4 114.615 4 256C4 397.385 118.615 512 260 512Z" fill="#F0F0F0"/>
<path d="M260 0C169.23 0 89.4999 47.243 44.0439 118.479L391.203 475.849C465.946 431.147 516 349.423 516 256C516 114.616 401.384 0 260 0Z" fill="#FFDA44"/>
<path d="M516 256C516 189.578 490.702 129.07 449.217 83.572V428.429C490.702 382.93 516 322.422 516 256Z" fill="#0052B4"/>
<path d="M323.789 481.873L350.604 481.856L358.876 456.347L367.178 481.846L380.628 481.838C388.875 477.423 396.852 472.571 404.528 467.309L48.689 111.471C42.825 120.027 37.477 128.961 32.668 138.221L35.83 147.933L62.645 147.916L40.961 163.691L49.263 189.19L27.559 173.442L14.614 182.858C7.713 206.034 4 230.583 4 256C4 397.384 118.616 512 260 512C289.892 512 318.583 506.868 345.25 497.448L323.789 481.873ZM61.099 244.87L69.369 219.362L47.667 203.612L74.482 203.595L82.753 178.086L91.055 203.585L117.87 203.568L96.185 219.343L104.487 244.842L82.783 229.094L61.099 244.87ZM116.324 300.522L124.594 275.014L102.892 259.264L129.707 259.247L137.978 233.738L146.28 259.237L173.095 259.22L151.411 274.995L159.713 300.494L138.009 284.746L116.324 300.522ZM171.548 356.174L179.818 330.666L158.116 314.916L184.931 314.899L193.202 289.39L201.504 314.889L228.319 314.872L206.635 330.647L214.937 356.146L193.233 340.396L171.548 356.174ZM248.457 396.051L226.772 411.826L235.042 386.318L213.34 370.568L240.155 370.551L248.427 345.042L256.729 370.541L283.544 370.524L261.86 386.299L270.162 411.798L248.457 396.051ZM281.997 467.478L290.267 441.97L268.565 426.22L295.38 426.203L303.651 400.694L311.953 426.193L338.768 426.176L317.084 441.951L325.386 467.45L303.682 451.7L281.997 467.478Z" fill="#0052B4"/>
</g>
<defs>
<filter id="filter0_dd_105_1007" x="0" y="0" width="520" height="520" filterUnits="userSpaceOnUse" color-interpolation-filters="sRGB">
<feFlood flood-opacity="0" result="BackgroundImageFix"/>
<feColorMatrix in="SourceAlpha" type="matrix" values="0 0 0 0 0 0 0 0 0 0 0 0 0 0 0 0 0 0 127 0" result="hardAlpha"/>
<feOffset dy="4"/>
<feGaussianBlur stdDeviation="2"/>
<feComposite in2="hardAlpha" operator="out"/>
<feColorMatrix type="matrix" values="0 0 0 0 0 0 0 0 0 0 0 0 0 0 0 0 0 0 0.25 0"/>
<feBlend mode="normal" in2="BackgroundImageFix" result="effect1_dropShadow_105_1007"/>
<feColorMatrix in="SourceAlpha" type="matrix" values="0 0 0 0 0 0 0 0 0 0 0 0 0 0 0 0 0 0 127 0" result="hardAlpha"/>
<feOffset dy="4"/>
<feGaussianBlur stdDeviation="2"/>
<feComposite in2="hardAlpha" operator="out"/>
<feColorMatrix type="matrix" values="0 0 0 0 0 0 0 0 0 0 0 0 0 0 0 0 0 0 0.25 0"/>
<feBlend mode="normal" in2="effect1_dropShadow_105_1007" result="effect2_dropShadow_105_1007"/>
<feBlend mode="normal" in="SourceGraphic" in2="effect2_dropShadow_105_1007" result="shape"/>
</filter>
<clipPath id="clip0_105_1007">
<rect width="512" height="512" fill="white" transform="translate(4)"/>
</clipPath>
</defs>
</svg>
