<svg width="520" height="520" viewBox="0 0 520 520" fill="none" xmlns="http://www.w3.org/2000/svg">
<g clip-path="url(#clip0_105_1055)" filter="url(#filter0_dd_105_1055)">
<path d="M260 512C401.385 512 516 397.385 516 256C516 114.615 401.385 0 260 0C118.615 0 4 114.615 4 256C4 397.385 118.615 512 260 512Z" fill="#F0F0F0"/>
<path d="M473.33 286.637C451.997 286.637 451.997 267.131 430.663 267.131C409.33 267.131 409.33 286.637 387.998 286.637C366.666 286.637 366.665 267.131 345.333 267.131C324 267.131 324 286.637 302.666 286.637C281.332 286.637 281.331 267.131 259.996 267.131C238.663 267.131 238.663 286.637 217.331 286.637C196.001 286.637 196.001 267.131 174.668 267.131C153.333 267.131 153.333 286.637 131.998 286.637C110.663 286.637 110.663 267.131 89.328 267.131C67.998 267.131 67.998 286.637 46.665 286.637C25.447 286.637 25.324 267.346 4.33301 267.14C4.92401 278.849 6.32201 290.346 8.43601 301.589C25.44 304.086 26.929 320.769 46.667 320.769C68 320.769 68 301.265 89.33 301.265C110.665 301.265 110.665 320.769 132 320.769C153.335 320.769 153.335 301.265 174.67 301.265C196.003 301.265 196.003 320.769 217.333 320.769C238.666 320.769 238.666 301.265 259.998 301.265C281.333 301.265 281.333 320.769 302.668 320.769C324.003 320.769 324.003 301.265 345.335 301.265C366.668 301.265 366.668 320.769 388 320.769C409.333 320.769 409.333 301.265 430.665 301.265C452 301.265 452 320.769 473.332 320.769C493.071 320.769 494.56 304.087 511.565 301.589C513.68 290.345 515.076 278.85 515.67 267.14C494.674 267.347 494.549 286.637 473.33 286.637Z" fill="#0052B4"/>
<path d="M430.663 333.913C409.33 333.913 409.33 353.419 387.998 353.419C366.666 353.419 366.665 333.913 345.333 333.913C324 333.913 324 353.419 302.666 353.419C281.331 353.419 281.331 333.913 259.996 333.913C238.663 333.913 238.663 353.419 217.331 353.419C196.001 353.419 196.001 333.913 174.668 333.913C153.333 333.913 153.333 353.419 131.998 353.419C110.663 353.419 110.663 333.913 89.328 333.913C67.998 333.913 67.998 353.419 46.665 353.419C30.95 353.419 26.801 342.841 17.178 337.269C23.006 354.688 30.661 371.267 39.906 386.791C41.908 387.274 44.134 387.552 46.664 387.552C67.997 387.552 67.997 368.048 89.327 368.048C110.662 368.048 110.662 387.552 131.997 387.552C153.332 387.552 153.332 368.048 174.667 368.048C196 368.048 196 387.552 217.33 387.552C238.663 387.552 238.663 368.048 259.995 368.048C281.33 368.048 281.33 387.552 302.665 387.552C324 387.552 324 368.048 345.332 368.048C366.665 368.048 366.665 387.552 387.997 387.552C409.329 387.552 409.33 368.048 430.662 368.048C451.997 368.048 451.997 387.552 473.329 387.552C475.861 387.552 478.089 387.274 480.092 386.79C489.338 371.267 496.992 354.688 502.819 337.27C493.196 342.842 489.046 353.42 473.329 353.42C451.998 353.419 451.998 333.913 430.663 333.913Z" fill="#0052B4"/>
<path d="M510.044 200.941C494.45 204.178 492.462 219.854 473.33 219.854C451.997 219.854 451.997 200.348 430.663 200.348C409.33 200.348 409.33 219.854 387.998 219.854C366.666 219.854 366.665 200.348 345.333 200.348C324 200.348 324 219.854 302.666 219.854C281.332 219.854 281.331 200.348 259.996 200.348C248.469 200.348 243.169 206.042 237.368 211.278V245.411C243.169 240.176 248.468 234.483 259.996 234.483C281.331 234.483 281.331 253.987 302.666 253.987C324.001 253.987 324.001 234.483 345.333 234.483C366.666 234.483 366.666 253.987 387.998 253.987C409.33 253.987 409.331 234.483 430.663 234.483C451.998 234.483 451.998 253.987 473.33 253.987C493.069 253.987 494.558 237.305 511.563 234.807C512.653 234.807 513.871 234.796 515.118 234.781C514.173 223.268 512.463 211.972 510.044 200.941Z" fill="#0052B4"/>
<path d="M491.344 146.274C486.923 149.987 481.813 153.071 473.331 153.071C451.998 153.071 451.998 133.565 430.664 133.565C409.331 133.565 409.331 153.071 387.999 153.071C366.667 153.071 366.666 133.565 345.334 133.565C324.001 133.565 324.001 153.071 302.667 153.071C281.333 153.071 281.332 133.565 259.997 133.565C248.47 133.565 243.17 139.259 237.369 144.495V178.628C243.17 173.393 248.469 167.7 259.997 167.7C281.332 167.7 281.332 187.204 302.667 187.204C324 187.204 324 167.7 345.333 167.7C366.666 167.7 366.666 187.204 387.998 187.204C409.33 187.204 409.33 167.7 430.663 167.7C451.998 167.7 451.998 187.204 473.33 187.204C488.467 187.204 492.876 177.399 501.776 171.697C498.743 163 495.26 154.515 491.344 146.274Z" fill="#0052B4"/>
<path d="M432.485 66.835C431.893 66.803 431.29 66.783 430.663 66.783C409.33 66.783 409.33 86.289 387.998 86.289C366.665 86.289 366.665 66.783 345.333 66.783C324 66.783 324 86.289 302.665 86.289C281.33 86.289 281.33 66.783 259.995 66.783C248.468 66.783 243.168 72.477 237.367 77.713V111.846C243.168 106.611 248.467 100.918 259.995 100.918C281.33 100.918 281.33 120.422 302.665 120.422C324 120.422 324 100.918 345.332 100.918C366.665 100.918 366.665 120.422 387.997 120.422C409.329 120.422 409.33 100.918 430.662 100.918C451.997 100.918 451.997 120.422 473.329 120.422C474.643 120.422 475.87 120.344 477.032 120.205C464.641 100.441 449.637 82.484 432.485 66.835Z" fill="#0052B4"/>
<path d="M325.432 8.45395C319.576 13.722 314.284 19.508 302.665 19.508C281.33 19.508 281.33 0.00395313 259.996 0.00195312H259.992C248.96 0.00295313 243.634 5.21995 238.11 10.259V44.393C243.633 39.354 248.961 34.136 259.996 34.136C281.331 34.136 281.331 53.64 302.666 53.64C324 53.64 324 34.136 345.333 34.136C366.666 34.136 366.666 53.64 387.998 53.64C396.949 53.64 402.141 50.204 406.733 46.218C382.397 29.163 354.959 16.237 325.432 8.45395Z" fill="#0052B4"/>
<path d="M302.665 486.984C281.33 486.984 281.33 467.478 259.995 467.478C238.662 467.478 238.662 486.984 217.33 486.984C196 486.984 196 467.478 174.667 467.478C158.326 467.478 154.493 478.912 144.013 484.27C172.913 498.984 204.98 508.363 238.92 511.13C244.169 506.334 249.501 501.612 259.995 501.612C270.492 501.612 275.824 506.334 281.074 511.131C315.015 508.365 347.084 498.985 375.985 484.271C365.503 478.914 361.671 467.477 345.332 467.477C324 467.478 324 486.984 302.665 486.984Z" fill="#0052B4"/>
<path d="M387.998 420.202C366.665 420.202 366.665 400.696 345.333 400.696C324 400.696 324 420.202 302.666 420.202C281.331 420.202 281.331 400.696 259.996 400.696C238.663 400.696 238.663 420.202 217.331 420.202C196.001 420.202 196.001 400.696 174.668 400.696C153.333 400.696 153.333 420.202 131.998 420.202C110.663 420.202 110.663 400.696 89.3279 400.696C73.9869 400.696 69.6789 410.786 60.5339 416.451C66.2659 423.569 72.3599 430.383 78.8089 436.843C81.6979 435.609 85.0879 434.83 89.3269 434.83C110.662 434.83 110.662 454.334 131.997 454.334C153.332 454.334 153.332 434.83 174.667 434.83C196 434.83 196 454.334 217.33 454.334C238.663 454.334 238.663 434.83 259.995 434.83C281.33 434.83 281.33 454.334 302.665 454.334C324 454.334 324 434.83 345.332 434.83C366.664 434.83 366.665 454.334 387.997 454.334C409.329 454.334 409.33 434.83 430.662 434.83C434.906 434.83 438.296 435.609 441.187 436.845C447.637 430.384 453.731 423.57 459.463 416.452C450.317 410.788 446.009 400.697 430.663 400.697C409.33 400.696 409.33 420.202 387.998 420.202Z" fill="#0052B4"/>
<path d="M259.315 256H260C260 255.77 260 255.546 260 255.315C259.772 255.544 259.544 255.772 259.315 256Z" fill="#F0F0F0"/>
<path d="M260 133.565V208.778L170.957 122.435L260 133.565Z" fill="#0052B4"/>
<path d="M137.566 256H212.776L137.565 155.826L126.435 233.739L137.566 256Z" fill="#0052B4"/>
<path d="M260 133.565C260 88.52 260 59.005 260 0H259.957C118.592 0.024 4 114.629 4 256H137.566V180.789L212.776 256H259.316C259.544 255.772 259.772 255.544 260.001 255.315C260.001 238.068 260.001 222.679 260.001 208.778L184.788 133.565H260Z" fill="#F0F0F0"/>
<path d="M133.515 33.3911C93.4761 56.1901 60.1901 89.4761 37.3911 129.515V256H104.174V100.176V100.174H260C260 79.1111 260 59.0451 260 33.3911H133.515Z" fill="#D80027"/>
<path d="M260 224.519L169.045 133.566H137.565V133.568L259.998 256H260C260 256 260 234.293 260 224.519Z" fill="#D80027"/>
<path d="M337.913 133.565H438.087L388 183.652L337.913 133.565Z" fill="#6DA544"/>
<path d="M376.87 172.522H399.131V233.739H376.87V172.522Z" fill="#A2001D"/>
<path d="M376.87 333.913H399.131V395.13H376.87V333.913Z" fill="#A2001D"/>
<path d="M454.783 300.522C454.783 282.081 439.833 267.131 421.392 267.131C412.838 267.131 405.04 270.351 399.131 275.64V256H410.261V233.739H399.131V222.609H376.87V233.739H365.74V256H376.87V275.64C370.961 270.351 363.163 267.131 354.609 267.131C336.168 267.131 321.218 282.081 321.218 300.522C321.218 310.409 325.519 319.289 332.348 325.404V345.044H443.652V325.404C450.482 319.289 454.783 310.409 454.783 300.522Z" fill="#FFDA44"/>
<path d="M421.391 289.391C417.88 289.391 415.422 290.933 413.977 292.225L399.13 305.516H376.87L362.023 292.225C360.578 290.933 358.12 289.391 354.609 289.391C348.472 289.391 343.479 294.384 343.479 300.521C343.479 304.844 345.81 307.575 347.199 308.82L354.61 315.456V322.782H421.393V315.456L428.804 308.82C430.193 307.576 432.524 304.844 432.524 300.521C432.522 294.384 427.529 289.391 421.391 289.391Z" fill="#D80027"/>
</g>
<defs>
<filter id="filter0_dd_105_1055" x="0" y="0" width="520" height="520" filterUnits="userSpaceOnUse" color-interpolation-filters="sRGB">
<feFlood flood-opacity="0" result="BackgroundImageFix"/>
<feColorMatrix in="SourceAlpha" type="matrix" values="0 0 0 0 0 0 0 0 0 0 0 0 0 0 0 0 0 0 127 0" result="hardAlpha"/>
<feOffset dy="4"/>
<feGaussianBlur stdDeviation="2"/>
<feComposite in2="hardAlpha" operator="out"/>
<feColorMatrix type="matrix" values="0 0 0 0 0 0 0 0 0 0 0 0 0 0 0 0 0 0 0.25 0"/>
<feBlend mode="normal" in2="BackgroundImageFix" result="effect1_dropShadow_105_1055"/>
<feColorMatrix in="SourceAlpha" type="matrix" values="0 0 0 0 0 0 0 0 0 0 0 0 0 0 0 0 0 0 127 0" result="hardAlpha"/>
<feOffset dy="4"/>
<feGaussianBlur stdDeviation="2"/>
<feComposite in2="hardAlpha" operator="out"/>
<feColorMatrix type="matrix" values="0 0 0 0 0 0 0 0 0 0 0 0 0 0 0 0 0 0 0.25 0"/>
<feBlend mode="normal" in2="effect1_dropShadow_105_1055" result="effect2_dropShadow_105_1055"/>
<feBlend mode="normal" in="SourceGraphic" in2="effect2_dropShadow_105_1055" result="shape"/>
</filter>
<clipPath id="clip0_105_1055">
<rect width="512" height="512" fill="white" transform="translate(4)"/>
</clipPath>
</defs>
</svg>
