<svg width="521" height="520" viewBox="0 0 521 520" fill="none" xmlns="http://www.w3.org/2000/svg">
<g clip-path="url(#clip0_105_1119)" filter="url(#filter0_dd_105_1119)">
<path d="M516.989 256C516.989 224.686 511.357 194.689 501.066 166.957L260.989 155.826L20.9123 166.956C10.6223 194.689 4.98926 224.686 4.98926 256C4.98926 287.314 10.6223 317.311 20.9123 345.043L260.989 356.174L501.066 345.044C511.357 317.311 516.989 287.314 516.989 256Z" fill="#496E2D"/>
<path d="M260.989 512C371.06 512 464.895 442.528 501.066 345.043H20.9122C57.0832 442.528 150.918 512 260.989 512Z" fill="#D80027"/>
<path d="M20.9122 166.957H501.067C464.895 69.472 371.06 0 260.989 0C150.918 0 57.0832 69.472 20.9122 166.957Z" fill="#F0F0F0"/>
</g>
<defs>
<filter id="filter0_dd_105_1119" x="0.989258" y="0" width="520" height="520" filterUnits="userSpaceOnUse" color-interpolation-filters="sRGB">
<feFlood flood-opacity="0" result="BackgroundImageFix"/>
<feColorMatrix in="SourceAlpha" type="matrix" values="0 0 0 0 0 0 0 0 0 0 0 0 0 0 0 0 0 0 127 0" result="hardAlpha"/>
<feOffset dy="4"/>
<feGaussianBlur stdDeviation="2"/>
<feComposite in2="hardAlpha" operator="out"/>
<feColorMatrix type="matrix" values="0 0 0 0 0 0 0 0 0 0 0 0 0 0 0 0 0 0 0.25 0"/>
<feBlend mode="normal" in2="BackgroundImageFix" result="effect1_dropShadow_105_1119"/>
<feColorMatrix in="SourceAlpha" type="matrix" values="0 0 0 0 0 0 0 0 0 0 0 0 0 0 0 0 0 0 127 0" result="hardAlpha"/>
<feOffset dy="4"/>
<feGaussianBlur stdDeviation="2"/>
<feComposite in2="hardAlpha" operator="out"/>
<feColorMatrix type="matrix" values="0 0 0 0 0 0 0 0 0 0 0 0 0 0 0 0 0 0 0.25 0"/>
<feBlend mode="normal" in2="effect1_dropShadow_105_1119" result="effect2_dropShadow_105_1119"/>
<feBlend mode="normal" in="SourceGraphic" in2="effect2_dropShadow_105_1119" result="shape"/>
</filter>
<clipPath id="clip0_105_1119">
<rect width="512" height="512" fill="white" transform="translate(4.98926)"/>
</clipPath>
</defs>
</svg>
