<svg width="520" height="520" viewBox="0 0 520 520" fill="none" xmlns="http://www.w3.org/2000/svg">
<g clip-path="url(#clip0_105_1365)" filter="url(#filter0_dd_105_1365)">
<path d="M260 512C401.385 512 516 397.385 516 256C516 114.615 401.385 0 260 0C118.615 0 4 114.615 4 256C4 397.385 118.615 512 260 512Z" fill="#F0F0F0"/>
<path d="M204.349 222.609H513.833C497.47 97.002 390.067 0 260 0C240.885 0 222.268 2.113 204.348 6.085V222.609H204.349Z" fill="#D80027"/>
<path d="M137.565 222.608V31.127C67.272 69.481 16.95 139.832 6.16699 222.609H137.565V222.608Z" fill="#D80027"/>
<path d="M137.564 289.391H6.16699C16.95 372.168 67.272 442.519 137.565 480.872L137.564 289.391Z" fill="#D80027"/>
<path d="M204.348 289.392V505.915C222.268 509.887 240.885 512 260 512C390.067 512 497.47 414.998 513.833 289.391H204.348V289.392Z" fill="#D80027"/>
</g>
<defs>
<filter id="filter0_dd_105_1365" x="0" y="0" width="520" height="520" filterUnits="userSpaceOnUse" color-interpolation-filters="sRGB">
<feFlood flood-opacity="0" result="BackgroundImageFix"/>
<feColorMatrix in="SourceAlpha" type="matrix" values="0 0 0 0 0 0 0 0 0 0 0 0 0 0 0 0 0 0 127 0" result="hardAlpha"/>
<feOffset dy="4"/>
<feGaussianBlur stdDeviation="2"/>
<feComposite in2="hardAlpha" operator="out"/>
<feColorMatrix type="matrix" values="0 0 0 0 0 0 0 0 0 0 0 0 0 0 0 0 0 0 0.25 0"/>
<feBlend mode="normal" in2="BackgroundImageFix" result="effect1_dropShadow_105_1365"/>
<feColorMatrix in="SourceAlpha" type="matrix" values="0 0 0 0 0 0 0 0 0 0 0 0 0 0 0 0 0 0 127 0" result="hardAlpha"/>
<feOffset dy="4"/>
<feGaussianBlur stdDeviation="2"/>
<feComposite in2="hardAlpha" operator="out"/>
<feColorMatrix type="matrix" values="0 0 0 0 0 0 0 0 0 0 0 0 0 0 0 0 0 0 0.25 0"/>
<feBlend mode="normal" in2="effect1_dropShadow_105_1365" result="effect2_dropShadow_105_1365"/>
<feBlend mode="normal" in="SourceGraphic" in2="effect2_dropShadow_105_1365" result="shape"/>
</filter>
<clipPath id="clip0_105_1365">
<rect width="512" height="512" fill="white" transform="translate(4)"/>
</clipPath>
</defs>
</svg>
