<svg width="520" height="521" viewBox="0 0 520 521" fill="none" xmlns="http://www.w3.org/2000/svg">
<g clip-path="url(#clip0_105_1538)" filter="url(#filter0_dd_105_1538)">
<path d="M260 512.989C401.385 512.989 516 398.374 516 256.989C516 115.604 401.385 0.989258 260 0.989258C118.615 0.989258 4 115.604 4 256.989C4 398.374 118.615 512.989 260 512.989Z" fill="#F0F0F0"/>
<path d="M260 0.989258C154.165 0.989258 63.337 65.2153 24.348 156.815H495.653C456.664 65.2153 365.835 0.989258 260 0.989258Z" fill="#A2001D"/>
<path d="M260 512.989C365.835 512.989 456.664 448.763 495.652 357.163H24.348C63.337 448.763 154.165 512.989 260 512.989Z" fill="#496E2D"/>
<path d="M507.181 190.206H12.819C7.08 211.499 4 233.882 4 256.989C4 280.096 7.08 302.479 12.819 323.772H507.182C512.92 302.479 516 280.096 516 256.989C516 233.882 512.92 211.499 507.181 190.206Z" fill="#0052B4"/>
</g>
<defs>
<filter id="filter0_dd_105_1538" x="0" y="0.989258" width="520" height="520" filterUnits="userSpaceOnUse" color-interpolation-filters="sRGB">
<feFlood flood-opacity="0" result="BackgroundImageFix"/>
<feColorMatrix in="SourceAlpha" type="matrix" values="0 0 0 0 0 0 0 0 0 0 0 0 0 0 0 0 0 0 127 0" result="hardAlpha"/>
<feOffset dy="4"/>
<feGaussianBlur stdDeviation="2"/>
<feComposite in2="hardAlpha" operator="out"/>
<feColorMatrix type="matrix" values="0 0 0 0 0 0 0 0 0 0 0 0 0 0 0 0 0 0 0.25 0"/>
<feBlend mode="normal" in2="BackgroundImageFix" result="effect1_dropShadow_105_1538"/>
<feColorMatrix in="SourceAlpha" type="matrix" values="0 0 0 0 0 0 0 0 0 0 0 0 0 0 0 0 0 0 127 0" result="hardAlpha"/>
<feOffset dy="4"/>
<feGaussianBlur stdDeviation="2"/>
<feComposite in2="hardAlpha" operator="out"/>
<feColorMatrix type="matrix" values="0 0 0 0 0 0 0 0 0 0 0 0 0 0 0 0 0 0 0.25 0"/>
<feBlend mode="normal" in2="effect1_dropShadow_105_1538" result="effect2_dropShadow_105_1538"/>
<feBlend mode="normal" in="SourceGraphic" in2="effect2_dropShadow_105_1538" result="shape"/>
</filter>
<clipPath id="clip0_105_1538">
<rect width="512" height="512" fill="white" transform="translate(4 0.989258)"/>
</clipPath>
</defs>
</svg>
