<svg width="520" height="520" viewBox="0 0 520 520" fill="none" xmlns="http://www.w3.org/2000/svg">
<g clip-path="url(#clip0_105_1543)" filter="url(#filter0_dd_105_1543)">
<path d="M260 512C401.385 512 516 397.385 516 256C516 114.615 401.385 0 260 0C118.615 0 4 114.615 4 256C4 397.385 118.615 512 260 512Z" fill="#F0F0F0"/>
<path d="M513.833 222.609H293.393H293.392V2.167C282.461 0.744 271.317 0 260 0C248.683 0 237.539 0.744 226.609 2.167V222.607V222.608H6.167C4.744 233.539 4 244.683 4 256C4 267.319 4.744 278.461 6.167 289.391H226.607H226.608V509.833C237.539 511.256 248.683 512 260 512C271.317 512 282.461 511.257 293.391 509.833V289.393V289.392H513.833C515.256 278.461 516 267.319 516 256C516 244.683 515.256 233.539 513.833 222.609Z" fill="#D80027"/>
<path d="M159.826 122.435V89.043H126.435V122.435H93.043V155.826H126.435V189.217H159.826V155.826H193.217V122.435H159.826Z" fill="#D80027"/>
<path d="M393.565 122.435V89.043H360.174V122.435H326.783V155.826H360.174V189.217H393.565V155.826H426.957V122.435H393.565Z" fill="#D80027"/>
<path d="M159.826 356.174V322.783H126.435V356.174H93.043V389.565H126.435V422.957H159.826V389.565H193.217V356.174H159.826Z" fill="#D80027"/>
<path d="M393.565 356.174V322.783H360.174V356.174H326.783V389.565H360.174V422.957H393.565V389.565H426.957V356.174H393.565Z" fill="#D80027"/>
</g>
<defs>
<filter id="filter0_dd_105_1543" x="0" y="0" width="520" height="520" filterUnits="userSpaceOnUse" color-interpolation-filters="sRGB">
<feFlood flood-opacity="0" result="BackgroundImageFix"/>
<feColorMatrix in="SourceAlpha" type="matrix" values="0 0 0 0 0 0 0 0 0 0 0 0 0 0 0 0 0 0 127 0" result="hardAlpha"/>
<feOffset dy="4"/>
<feGaussianBlur stdDeviation="2"/>
<feComposite in2="hardAlpha" operator="out"/>
<feColorMatrix type="matrix" values="0 0 0 0 0 0 0 0 0 0 0 0 0 0 0 0 0 0 0.25 0"/>
<feBlend mode="normal" in2="BackgroundImageFix" result="effect1_dropShadow_105_1543"/>
<feColorMatrix in="SourceAlpha" type="matrix" values="0 0 0 0 0 0 0 0 0 0 0 0 0 0 0 0 0 0 127 0" result="hardAlpha"/>
<feOffset dy="4"/>
<feGaussianBlur stdDeviation="2"/>
<feComposite in2="hardAlpha" operator="out"/>
<feColorMatrix type="matrix" values="0 0 0 0 0 0 0 0 0 0 0 0 0 0 0 0 0 0 0.25 0"/>
<feBlend mode="normal" in2="effect1_dropShadow_105_1543" result="effect2_dropShadow_105_1543"/>
<feBlend mode="normal" in="SourceGraphic" in2="effect2_dropShadow_105_1543" result="shape"/>
</filter>
<clipPath id="clip0_105_1543">
<rect width="512" height="512" fill="white" transform="translate(4)"/>
</clipPath>
</defs>
</svg>
