<svg width="520" height="520" viewBox="0 0 520 520" fill="none" xmlns="http://www.w3.org/2000/svg">
<g clip-path="url(#clip0_105_1551)" filter="url(#filter0_dd_105_1551)">
<path d="M19.923 345.044C56.094 442.528 149.929 512.001 260 512.001C370.071 512.001 463.906 442.528 500.077 345.044L260 322.784L19.923 345.044Z" fill="#FFDA44"/>
<path d="M260 0.000976562C149.929 0.000976562 56.094 69.473 19.923 166.958L260 189.218L500.077 166.957C463.906 69.473 370.071 0.000976562 260 0.000976562Z" fill="black"/>
<path d="M19.923 166.958C9.633 194.691 4 224.687 4 256.001C4 287.315 9.633 317.311 19.923 345.044H500.078C510.368 317.311 516 287.315 516 256.001C516 224.687 510.368 194.691 500.077 166.958H19.923Z" fill="#D80027"/>
</g>
<defs>
<filter id="filter0_dd_105_1551" x="0" y="0.000976562" width="520" height="520" filterUnits="userSpaceOnUse" color-interpolation-filters="sRGB">
<feFlood flood-opacity="0" result="BackgroundImageFix"/>
<feColorMatrix in="SourceAlpha" type="matrix" values="0 0 0 0 0 0 0 0 0 0 0 0 0 0 0 0 0 0 127 0" result="hardAlpha"/>
<feOffset dy="4"/>
<feGaussianBlur stdDeviation="2"/>
<feComposite in2="hardAlpha" operator="out"/>
<feColorMatrix type="matrix" values="0 0 0 0 0 0 0 0 0 0 0 0 0 0 0 0 0 0 0.25 0"/>
<feBlend mode="normal" in2="BackgroundImageFix" result="effect1_dropShadow_105_1551"/>
<feColorMatrix in="SourceAlpha" type="matrix" values="0 0 0 0 0 0 0 0 0 0 0 0 0 0 0 0 0 0 127 0" result="hardAlpha"/>
<feOffset dy="4"/>
<feGaussianBlur stdDeviation="2"/>
<feComposite in2="hardAlpha" operator="out"/>
<feColorMatrix type="matrix" values="0 0 0 0 0 0 0 0 0 0 0 0 0 0 0 0 0 0 0.25 0"/>
<feBlend mode="normal" in2="effect1_dropShadow_105_1551" result="effect2_dropShadow_105_1551"/>
<feBlend mode="normal" in="SourceGraphic" in2="effect2_dropShadow_105_1551" result="shape"/>
</filter>
<clipPath id="clip0_105_1551">
<rect width="512" height="512" fill="white" transform="translate(4 0.000976562)"/>
</clipPath>
</defs>
</svg>
