<svg width="520" height="520" viewBox="0 0 520 520" fill="none" xmlns="http://www.w3.org/2000/svg">
<g clip-path="url(#clip0_105_1613)" filter="url(#filter0_dd_105_1613)">
<path d="M260 512C401.385 512 516 397.385 516 256C516 114.615 401.385 0 260 0C118.615 0 4 114.615 4 256C4 397.385 118.615 512 260 512Z" fill="#F0F0F0"/>
<path d="M516 256C516 154.506 456.935 66.8101 371.304 25.4021V486.597C456.935 445.19 516 357.493 516 256Z" fill="#338AF3"/>
<path d="M4 256C4 357.493 63.065 445.19 148.696 486.598V25.4021C63.065 66.8101 4 154.506 4 256Z" fill="#338AF3"/>
<path d="M326.898 299.288L283.612 256.002L324.815 214.797L322.948 193.035L311.152 181.237L260 232.389L208.848 181.237L197.052 193.035L195.185 214.797L236.388 256.002L193.101 299.288L216.713 322.898L260 279.613L303.287 322.898L326.898 299.288Z" fill="#ACABB1"/>
<path d="M322.963 193.037L299.352 216.648C309.423 226.719 315.653 240.632 315.653 256C315.653 286.736 290.736 311.652 260.001 311.652C229.266 311.652 204.348 286.736 204.348 256C204.348 240.632 210.578 226.719 220.649 216.648L197.038 193.037C180.923 209.149 170.957 231.41 170.957 256C170.957 305.178 210.823 345.043 260 345.043C309.177 345.043 349.043 305.177 349.043 256C349.043 231.411 339.077 209.15 322.963 193.037Z" fill="#6DA544"/>
</g>
<defs>
<filter id="filter0_dd_105_1613" x="0" y="0" width="520" height="520" filterUnits="userSpaceOnUse" color-interpolation-filters="sRGB">
<feFlood flood-opacity="0" result="BackgroundImageFix"/>
<feColorMatrix in="SourceAlpha" type="matrix" values="0 0 0 0 0 0 0 0 0 0 0 0 0 0 0 0 0 0 127 0" result="hardAlpha"/>
<feOffset dy="4"/>
<feGaussianBlur stdDeviation="2"/>
<feComposite in2="hardAlpha" operator="out"/>
<feColorMatrix type="matrix" values="0 0 0 0 0 0 0 0 0 0 0 0 0 0 0 0 0 0 0.25 0"/>
<feBlend mode="normal" in2="BackgroundImageFix" result="effect1_dropShadow_105_1613"/>
<feColorMatrix in="SourceAlpha" type="matrix" values="0 0 0 0 0 0 0 0 0 0 0 0 0 0 0 0 0 0 127 0" result="hardAlpha"/>
<feOffset dy="4"/>
<feGaussianBlur stdDeviation="2"/>
<feComposite in2="hardAlpha" operator="out"/>
<feColorMatrix type="matrix" values="0 0 0 0 0 0 0 0 0 0 0 0 0 0 0 0 0 0 0.25 0"/>
<feBlend mode="normal" in2="effect1_dropShadow_105_1613" result="effect2_dropShadow_105_1613"/>
<feBlend mode="normal" in="SourceGraphic" in2="effect2_dropShadow_105_1613" result="shape"/>
</filter>
<clipPath id="clip0_105_1613">
<rect width="512" height="512" fill="white" transform="translate(4)"/>
</clipPath>
</defs>
</svg>
