<svg width="520" height="520" viewBox="0 0 520 520" fill="none" xmlns="http://www.w3.org/2000/svg">
<g clip-path="url(#clip0_105_1635)" filter="url(#filter0_dd_105_1635)">
<path d="M260 512C401.385 512 516 397.385 516 256C516 114.615 401.385 0 260 0C118.615 0 4 114.615 4 256C4 397.385 118.615 512 260 512Z" fill="#F0F0F0"/>
<path d="M260 0C214.739 0 172.231 11.762 135.339 32.372V479.628C172.232 500.238 214.739 512 260 512C401.384 512 516 397.384 516 256C516 114.616 401.384 0 260 0Z" fill="#6DA544"/>
<path d="M136.092 31.9509C119.987 40.8759 104.949 51.4839 91.21 63.5439C92.599 62.3259 94.002 61.1219 95.416 59.9339L291.481 256L95.415 452.066C94 450.878 92.598 449.674 91.209 448.456C104.948 460.516 119.987 471.123 136.091 480.049L516 256L136.092 31.9509Z" fill="#F0F0F0"/>
<path d="M114.47 45.3821C106.663 50.7881 99.165 56.6051 92.02 62.8221L260 256L92.019 449.178C99.164 455.395 106.662 461.213 114.469 466.618L472.178 256L114.47 45.3821Z" fill="#FFDA44"/>
<path d="M95.415 59.9341C89.724 64.7161 84.232 69.7291 78.98 74.9801L237.739 256L78.98 437.02C84.232 442.272 89.723 447.286 95.415 452.066L291.481 256L95.415 59.9341Z" fill="black"/>
<path d="M78.98 74.98C-20.994 174.954 -20.994 337.045 78.98 437.02C120.293 395.707 160.026 355.974 260 256L78.98 74.98Z" fill="#D80027"/>
</g>
<defs>
<filter id="filter0_dd_105_1635" x="0" y="0" width="520" height="520" filterUnits="userSpaceOnUse" color-interpolation-filters="sRGB">
<feFlood flood-opacity="0" result="BackgroundImageFix"/>
<feColorMatrix in="SourceAlpha" type="matrix" values="0 0 0 0 0 0 0 0 0 0 0 0 0 0 0 0 0 0 127 0" result="hardAlpha"/>
<feOffset dy="4"/>
<feGaussianBlur stdDeviation="2"/>
<feComposite in2="hardAlpha" operator="out"/>
<feColorMatrix type="matrix" values="0 0 0 0 0 0 0 0 0 0 0 0 0 0 0 0 0 0 0.25 0"/>
<feBlend mode="normal" in2="BackgroundImageFix" result="effect1_dropShadow_105_1635"/>
<feColorMatrix in="SourceAlpha" type="matrix" values="0 0 0 0 0 0 0 0 0 0 0 0 0 0 0 0 0 0 127 0" result="hardAlpha"/>
<feOffset dy="4"/>
<feGaussianBlur stdDeviation="2"/>
<feComposite in2="hardAlpha" operator="out"/>
<feColorMatrix type="matrix" values="0 0 0 0 0 0 0 0 0 0 0 0 0 0 0 0 0 0 0.25 0"/>
<feBlend mode="normal" in2="effect1_dropShadow_105_1635" result="effect2_dropShadow_105_1635"/>
<feBlend mode="normal" in="SourceGraphic" in2="effect2_dropShadow_105_1635" result="shape"/>
</filter>
<clipPath id="clip0_105_1635">
<rect width="512" height="512" fill="white" transform="translate(4)"/>
</clipPath>
</defs>
</svg>
