<svg width="520" height="520" viewBox="0 0 520 520" fill="none" xmlns="http://www.w3.org/2000/svg">
<g clip-path="url(#clip0_105_1733)" filter="url(#filter0_dd_105_1733)">
<path d="M260 512C401.385 512 516 397.385 516 256C516 114.615 401.385 0 260 0C118.615 0 4 114.615 4 256C4 397.385 118.615 512 260 512Z" fill="#FFDA44"/>
<path d="M415.856 52.92C372.689 19.739 318.654 0 260 0C201.346 0 147.31 19.74 104.143 52.92L260 208.776L415.856 52.92Z" fill="#6DA544"/>
<path d="M56.919 100.144C23.74 143.311 4 197.346 4 256C4 314.654 23.74 368.69 56.92 411.858L212.777 256L56.919 100.144Z" fill="black"/>
<path d="M104.143 459.08C147.311 492.261 201.346 512 260 512C318.654 512 372.689 492.26 415.857 459.08L260 303.224L104.143 459.08Z" fill="#6DA544"/>
<path d="M463.08 411.856C496.261 368.689 516 314.654 516 256C516 197.346 496.261 143.311 463.08 100.144L307.224 256L463.08 411.856Z" fill="black"/>
</g>
<defs>
<filter id="filter0_dd_105_1733" x="0" y="0" width="520" height="520" filterUnits="userSpaceOnUse" color-interpolation-filters="sRGB">
<feFlood flood-opacity="0" result="BackgroundImageFix"/>
<feColorMatrix in="SourceAlpha" type="matrix" values="0 0 0 0 0 0 0 0 0 0 0 0 0 0 0 0 0 0 127 0" result="hardAlpha"/>
<feOffset dy="4"/>
<feGaussianBlur stdDeviation="2"/>
<feComposite in2="hardAlpha" operator="out"/>
<feColorMatrix type="matrix" values="0 0 0 0 0 0 0 0 0 0 0 0 0 0 0 0 0 0 0.25 0"/>
<feBlend mode="normal" in2="BackgroundImageFix" result="effect1_dropShadow_105_1733"/>
<feColorMatrix in="SourceAlpha" type="matrix" values="0 0 0 0 0 0 0 0 0 0 0 0 0 0 0 0 0 0 127 0" result="hardAlpha"/>
<feOffset dy="4"/>
<feGaussianBlur stdDeviation="2"/>
<feComposite in2="hardAlpha" operator="out"/>
<feColorMatrix type="matrix" values="0 0 0 0 0 0 0 0 0 0 0 0 0 0 0 0 0 0 0.25 0"/>
<feBlend mode="normal" in2="effect1_dropShadow_105_1733" result="effect2_dropShadow_105_1733"/>
<feBlend mode="normal" in="SourceGraphic" in2="effect2_dropShadow_105_1733" result="shape"/>
</filter>
<clipPath id="clip0_105_1733">
<rect width="512" height="512" fill="white" transform="translate(4)"/>
</clipPath>
</defs>
</svg>
