<svg width="520" height="520" viewBox="0 0 520 520" fill="none" xmlns="http://www.w3.org/2000/svg">
<g clip-path="url(#clip0_105_1771)" filter="url(#filter0_dd_105_1771)">
<path d="M4 256C4 114.616 118.616 0 260 0C401.384 0 516 114.616 516 256" fill="#D80027"/>
<path d="M349.043 238.078L312.658 255.191L332.034 290.43L292.525 282.871L287.519 322.783L260 293.428L232.48 322.783L227.475 282.871L187.966 290.428L207.341 255.191L170.957 238.078L207.341 220.962L187.966 185.727L227.474 193.283L232.481 153.373L260 182.726L287.52 153.373L292.525 193.283L332.035 185.727L312.661 220.965L349.043 238.078Z" fill="#FFDA44"/>
<path d="M326.783 83.4782H276.696C276.696 74.2592 269.22 66.7822 260 66.7822C250.78 66.7822 243.304 74.2582 243.304 83.4782H193.217C193.217 92.6982 201.249 100.174 210.469 100.174H209.912C209.912 109.394 217.386 116.87 226.608 116.87C226.608 126.09 234.082 133.566 243.304 133.566H276.695C285.914 133.566 293.391 126.091 293.391 116.87C302.61 116.87 310.087 109.395 310.087 100.174H309.53C318.751 100.174 326.783 92.6992 326.783 83.4782Z" fill="#FFDA44"/>
<path d="M516 256C516 397.384 401.384 512 260 512C118.616 512 4 397.384 4 256H516Z" fill="#F0F0F0"/>
<path d="M260 512C340.022 512 411.456 475.276 458.402 417.772C449.958 412.015 445.399 402.709 430.663 402.709C409.33 402.709 409.33 422.215 387.998 422.215C366.666 422.215 366.665 402.709 345.333 402.709C324 402.709 324 422.215 302.666 422.215C281.332 422.215 281.331 402.709 259.996 402.709C238.663 402.709 238.663 422.215 217.331 422.215C196.001 422.215 196.001 402.709 174.668 402.709C153.333 402.709 153.333 422.215 131.998 422.215C110.663 422.215 110.663 402.709 89.3282 402.709C74.5942 402.709 70.0352 412.013 61.5952 417.77C108.539 475.276 179.977 512 260 512Z" fill="#0052B4"/>
<path d="M473.33 288.65C451.997 288.65 451.997 269.144 430.663 269.144C409.33 269.144 409.33 288.65 387.998 288.65C366.666 288.65 366.665 269.144 345.333 269.144C324 269.144 324 288.65 302.666 288.65C281.332 288.65 281.331 269.144 259.996 269.144C238.663 269.144 238.663 288.65 217.331 288.65C196.001 288.65 196.001 269.144 174.668 269.144C153.333 269.144 153.333 288.65 131.998 288.65C110.663 288.65 110.663 269.144 89.328 269.144C67.998 269.144 67.998 288.65 46.665 288.65C25.447 288.65 25.324 269.359 4.33301 269.153C4.92401 280.863 6.32201 292.359 8.43601 303.601C25.44 306.1 26.929 322.783 46.666 322.783C67.999 322.783 67.999 303.279 89.329 303.279C110.664 303.279 110.664 322.783 131.999 322.783C153.334 322.783 153.334 303.279 174.669 303.279C196.002 303.279 196.002 322.783 217.332 322.783C238.665 322.783 238.665 303.279 259.997 303.279C281.332 303.279 281.332 322.783 302.667 322.783C324.002 322.783 324.002 303.279 345.334 303.279C366.667 303.279 366.667 322.783 387.999 322.783C409.331 322.783 409.332 303.279 430.664 303.279C451.999 303.279 451.999 322.783 473.331 322.783C493.07 322.783 494.559 306.101 511.564 303.602C513.679 292.359 515.075 280.864 515.669 269.154C494.674 269.361 494.549 288.65 473.33 288.65Z" fill="#0052B4"/>
<path d="M430.663 335.927C409.33 335.927 409.33 355.433 387.998 355.433C366.666 355.433 366.665 335.927 345.333 335.927C324 335.927 324 355.433 302.666 355.433C281.331 355.433 281.331 335.927 259.996 335.927C238.663 335.927 238.663 355.433 217.331 355.433C196.001 355.433 196.001 335.927 174.668 335.927C153.333 335.927 153.333 355.433 131.998 355.433C110.663 355.433 110.663 335.927 89.328 335.927C67.998 335.927 67.998 355.433 46.665 355.433C31.422 355.433 27.068 345.477 18.043 339.789C24.051 357.148 31.867 373.661 41.28 389.097C42.917 389.399 44.699 389.566 46.665 389.566C67.998 389.566 67.998 370.062 89.328 370.062C110.663 370.062 110.663 389.566 131.998 389.566C153.333 389.566 153.333 370.062 174.668 370.062C196.001 370.062 196.001 389.566 217.331 389.566C238.664 389.566 238.664 370.062 259.996 370.062C281.331 370.062 281.331 389.566 302.666 389.566C324.001 389.566 324.001 370.062 345.333 370.062C366.666 370.062 366.666 389.566 387.998 389.566C409.33 389.566 409.331 370.062 430.663 370.062C451.998 370.062 451.998 389.566 473.33 389.566C475.298 389.566 477.08 389.399 478.717 389.096C488.13 373.661 495.945 357.148 501.956 339.79C492.93 345.475 488.575 355.433 473.33 355.433C451.998 355.433 451.998 335.927 430.663 335.927Z" fill="#0052B4"/>
<path d="M515.206 235.775C494.676 236.26 494.393 255.259 473.33 255.259C451.997 255.259 451.997 235.753 430.663 235.753C409.33 235.753 409.33 255.259 387.998 255.259C366.666 255.259 366.665 235.753 345.333 235.753C324 235.753 324 255.259 302.666 255.259C281.332 255.259 281.331 235.753 259.996 235.753C238.663 235.753 238.663 255.259 217.331 255.259C196.001 255.259 196.001 235.753 174.668 235.753C153.333 235.753 153.333 255.259 131.998 255.259C110.663 255.259 110.663 235.753 89.328 235.753C67.998 235.753 67.998 255.259 46.665 255.259C25.606 255.259 25.321 236.262 4.793 235.775C4.272 242.449 4 249.193 4 256C4 260.663 4.132 265.296 4.381 269.897C25.324 270.132 25.463 289.391 46.666 289.391C67.999 289.391 67.999 269.887 89.329 269.887C110.664 269.887 110.664 289.391 131.999 289.391C153.334 289.391 153.334 269.887 174.669 269.887C196.002 269.887 196.002 289.391 217.332 289.391C238.665 289.391 238.665 269.887 259.997 269.887C281.332 269.887 281.332 289.391 302.667 289.391C324.002 289.391 324.002 269.887 345.334 269.887C366.667 269.887 366.667 289.391 387.999 289.391C409.331 289.391 409.332 269.887 430.664 269.887C451.999 269.887 451.999 289.391 473.331 289.391C494.536 289.391 494.675 270.132 515.622 269.897C515.868 265.295 516 260.663 516 256C516 249.193 515.728 242.449 515.206 235.775Z" fill="#F0F0F0"/>
</g>
<defs>
<filter id="filter0_dd_105_1771" x="0" y="0" width="520" height="520" filterUnits="userSpaceOnUse" color-interpolation-filters="sRGB">
<feFlood flood-opacity="0" result="BackgroundImageFix"/>
<feColorMatrix in="SourceAlpha" type="matrix" values="0 0 0 0 0 0 0 0 0 0 0 0 0 0 0 0 0 0 127 0" result="hardAlpha"/>
<feOffset dy="4"/>
<feGaussianBlur stdDeviation="2"/>
<feComposite in2="hardAlpha" operator="out"/>
<feColorMatrix type="matrix" values="0 0 0 0 0 0 0 0 0 0 0 0 0 0 0 0 0 0 0.25 0"/>
<feBlend mode="normal" in2="BackgroundImageFix" result="effect1_dropShadow_105_1771"/>
<feColorMatrix in="SourceAlpha" type="matrix" values="0 0 0 0 0 0 0 0 0 0 0 0 0 0 0 0 0 0 127 0" result="hardAlpha"/>
<feOffset dy="4"/>
<feGaussianBlur stdDeviation="2"/>
<feComposite in2="hardAlpha" operator="out"/>
<feColorMatrix type="matrix" values="0 0 0 0 0 0 0 0 0 0 0 0 0 0 0 0 0 0 0.25 0"/>
<feBlend mode="normal" in2="effect1_dropShadow_105_1771" result="effect2_dropShadow_105_1771"/>
<feBlend mode="normal" in="SourceGraphic" in2="effect2_dropShadow_105_1771" result="shape"/>
</filter>
<clipPath id="clip0_105_1771">
<rect width="512" height="512" fill="white" transform="translate(4)"/>
</clipPath>
</defs>
</svg>
