<svg width="520" height="520" viewBox="0 0 520 520" fill="none" xmlns="http://www.w3.org/2000/svg">
<g clip-path="url(#clip0_105_1920)" filter="url(#filter0_dd_105_1920)">
<path d="M260 512C401.385 512 516 397.385 516 256C516 114.615 401.385 0 260 0C118.615 0 4 114.615 4 256C4 397.385 118.615 512 260 512Z" fill="#F0F0F0"/>
<path d="M513.806 222.608C506.744 168.622 482.494 116.456 441.019 74.9809C399.544 33.5059 347.377 9.25487 293.391 2.19287L293.392 222.608H513.806Z" fill="#0052B4"/>
<path d="M226.608 2.19287C172.622 9.25487 120.455 33.5049 78.9799 74.9799C37.5059 116.456 13.2549 168.623 6.19287 222.61L226.609 222.609L226.608 2.19287Z" fill="#0052B4"/>
<path d="M6.19287 289.392C13.2549 343.378 37.5059 395.546 78.9799 437.02C120.455 478.494 172.621 502.744 226.609 509.809L226.608 289.394L6.19287 289.392Z" fill="#0052B4"/>
<path d="M293.392 509.806C347.378 502.744 399.544 478.494 441.019 437.019C482.494 395.544 506.744 343.378 513.806 289.392H293.392V509.806Z" fill="#0052B4"/>
<path d="M347.389 162.438C347.389 159.034 350.156 156.267 353.561 156.267H366.785C387.689 156.267 404.696 139.261 404.696 118.358C404.696 97.4552 387.69 80.4482 366.785 80.4482H354.227C350.128 77.3692 344.629 75.4702 338.563 75.4702C325.91 75.4702 315.653 83.6752 315.653 93.7972C315.653 103.821 325.714 111.953 338.198 112.111L338.192 112.184H366.785C370.19 112.184 372.957 114.952 372.957 118.356C372.957 121.76 370.19 124.527 366.785 124.527H353.561C332.657 124.527 315.652 141.533 315.652 162.436C315.652 183.339 332.656 200.346 353.561 200.346H404.695V168.608H353.561C350.156 168.609 347.389 165.842 347.389 162.438Z" fill="#F0F0F0"/>
<path d="M147.042 162.438C147.042 159.034 149.809 156.267 153.214 156.267H166.438C187.342 156.267 204.349 139.261 204.349 118.358C204.349 97.4552 187.343 80.4482 166.438 80.4482H153.88C149.781 77.3692 144.282 75.4702 138.216 75.4702C125.563 75.4702 115.306 83.6752 115.306 93.7972C115.306 103.821 125.367 111.953 137.851 112.111L137.845 112.184H166.439C169.844 112.184 172.611 114.952 172.611 118.356C172.611 121.76 169.844 124.527 166.439 124.527H153.215C132.311 124.527 115.306 141.533 115.306 162.436C115.306 183.339 132.31 200.346 153.215 200.346H204.348V168.608H153.214C149.809 168.609 147.042 165.842 147.042 162.438Z" fill="#F0F0F0"/>
<path d="M347.389 398.62C347.389 395.216 350.156 392.449 353.561 392.449H366.785C387.689 392.449 404.696 375.443 404.696 354.54C404.696 333.637 387.69 316.63 366.785 316.63H354.227C350.128 313.551 344.629 311.652 338.563 311.652C325.909 311.652 315.652 319.858 315.652 329.979C315.652 340.003 325.713 348.135 338.197 348.293L338.191 348.366H366.784C370.189 348.366 372.956 351.134 372.956 354.538C372.956 357.942 370.189 360.709 366.784 360.709H353.56C332.656 360.709 315.651 377.715 315.651 398.618C315.651 419.521 332.655 436.528 353.56 436.528H404.695V404.791H353.561C350.156 404.792 347.389 402.023 347.389 398.62Z" fill="#F0F0F0"/>
<path d="M147.042 398.62C147.042 395.216 149.809 392.449 153.214 392.449H166.438C187.342 392.449 204.349 375.443 204.349 354.54C204.349 333.637 187.343 316.63 166.438 316.63H153.88C149.781 313.551 144.282 311.652 138.216 311.652C125.562 311.652 115.305 319.858 115.305 329.979C115.305 340.003 125.366 348.135 137.85 348.293L137.844 348.366H166.438C169.843 348.366 172.61 351.134 172.61 354.538C172.61 357.942 169.843 360.709 166.438 360.709H153.214C132.31 360.709 115.305 377.715 115.305 398.618C115.305 419.521 132.309 436.528 153.214 436.528H204.348V404.791H153.214C149.809 404.792 147.042 402.023 147.042 398.62Z" fill="#F0F0F0"/>
</g>
<defs>
<filter id="filter0_dd_105_1920" x="0" y="0" width="520" height="520" filterUnits="userSpaceOnUse" color-interpolation-filters="sRGB">
<feFlood flood-opacity="0" result="BackgroundImageFix"/>
<feColorMatrix in="SourceAlpha" type="matrix" values="0 0 0 0 0 0 0 0 0 0 0 0 0 0 0 0 0 0 127 0" result="hardAlpha"/>
<feOffset dy="4"/>
<feGaussianBlur stdDeviation="2"/>
<feComposite in2="hardAlpha" operator="out"/>
<feColorMatrix type="matrix" values="0 0 0 0 0 0 0 0 0 0 0 0 0 0 0 0 0 0 0.25 0"/>
<feBlend mode="normal" in2="BackgroundImageFix" result="effect1_dropShadow_105_1920"/>
<feColorMatrix in="SourceAlpha" type="matrix" values="0 0 0 0 0 0 0 0 0 0 0 0 0 0 0 0 0 0 127 0" result="hardAlpha"/>
<feOffset dy="4"/>
<feGaussianBlur stdDeviation="2"/>
<feComposite in2="hardAlpha" operator="out"/>
<feColorMatrix type="matrix" values="0 0 0 0 0 0 0 0 0 0 0 0 0 0 0 0 0 0 0.25 0"/>
<feBlend mode="normal" in2="effect1_dropShadow_105_1920" result="effect2_dropShadow_105_1920"/>
<feBlend mode="normal" in="SourceGraphic" in2="effect2_dropShadow_105_1920" result="shape"/>
</filter>
<clipPath id="clip0_105_1920">
<rect width="512" height="512" fill="white" transform="translate(4)"/>
</clipPath>
</defs>
</svg>
