<svg width="520" height="520" viewBox="0 0 520 520" fill="none" xmlns="http://www.w3.org/2000/svg">
<g clip-path="url(#clip0_105_1932)" filter="url(#filter0_dd_105_1932)">
<path d="M260 512C401.385 512 516 397.385 516 256C516 114.615 401.385 0 260 0C118.615 0 4 114.615 4 256C4 397.385 118.615 512 260 512Z" fill="#496E2D"/>
<path d="M260 295.751C217.374 295.751 181.764 265.793 173.027 225.788C171.685 231.938 170.957 238.315 170.957 244.869C170.957 294.048 210.822 333.912 260 333.912C309.178 333.912 349.043 294.047 349.043 244.869C349.043 238.315 348.315 231.938 346.973 225.787C338.236 265.794 302.626 295.751 260 295.751Z" fill="#FFDA44"/>
<path d="M259.999 178.087L268.287 203.596H295.11L273.411 219.361L281.699 244.87L259.999 229.104L238.3 244.87L246.589 219.361L224.89 203.596H251.711L259.999 178.087Z" fill="#FFDA44"/>
</g>
<defs>
<filter id="filter0_dd_105_1932" x="0" y="0" width="520" height="520" filterUnits="userSpaceOnUse" color-interpolation-filters="sRGB">
<feFlood flood-opacity="0" result="BackgroundImageFix"/>
<feColorMatrix in="SourceAlpha" type="matrix" values="0 0 0 0 0 0 0 0 0 0 0 0 0 0 0 0 0 0 127 0" result="hardAlpha"/>
<feOffset dy="4"/>
<feGaussianBlur stdDeviation="2"/>
<feComposite in2="hardAlpha" operator="out"/>
<feColorMatrix type="matrix" values="0 0 0 0 0 0 0 0 0 0 0 0 0 0 0 0 0 0 0.25 0"/>
<feBlend mode="normal" in2="BackgroundImageFix" result="effect1_dropShadow_105_1932"/>
<feColorMatrix in="SourceAlpha" type="matrix" values="0 0 0 0 0 0 0 0 0 0 0 0 0 0 0 0 0 0 127 0" result="hardAlpha"/>
<feOffset dy="4"/>
<feGaussianBlur stdDeviation="2"/>
<feComposite in2="hardAlpha" operator="out"/>
<feColorMatrix type="matrix" values="0 0 0 0 0 0 0 0 0 0 0 0 0 0 0 0 0 0 0.25 0"/>
<feBlend mode="normal" in2="effect1_dropShadow_105_1932" result="effect2_dropShadow_105_1932"/>
<feBlend mode="normal" in="SourceGraphic" in2="effect2_dropShadow_105_1932" result="shape"/>
</filter>
<clipPath id="clip0_105_1932">
<rect width="512" height="512" fill="white" transform="translate(4)"/>
</clipPath>
</defs>
</svg>
