<svg width="520" height="520" viewBox="0 0 520 520" fill="none" xmlns="http://www.w3.org/2000/svg">
<g clip-path="url(#clip0_105_2146)" filter="url(#filter0_dd_105_2146)">
<path d="M260 512C401.385 512 516 397.385 516 256C516 114.615 401.385 0 260 0C118.615 0 4 114.615 4 256C4 397.385 118.615 512 260 512Z" fill="#338AF3"/>
<path d="M251.93 417.19C245.029 416.856 239.319 412.371 237.082 406.282C233.131 411.435 226.341 414.029 219.652 412.304C212.951 410.579 208.266 405.036 207.297 398.602C202.377 402.853 195.209 404.01 189.01 400.973C182.799 397.923 179.327 391.544 179.683 385.055C174.018 388.238 166.761 387.927 161.296 383.697C155.842 379.467 153.716 372.533 155.363 366.244C149.174 368.225 142.14 366.467 137.632 361.224C133.124 355.993 132.433 348.769 135.306 342.948C128.85 343.637 122.306 340.499 118.944 334.467C115.571 328.434 116.351 321.211 120.346 316.078C113.879 315.455 108.091 311.058 106.021 304.469C103.94 297.88 106.166 290.957 111.119 286.738C104.908 284.822 100.144 279.346 99.4429 272.48C98.7419 265.613 102.304 259.302 107.991 256.163C102.303 253.046 98.7189 246.736 99.3979 239.879H99.4089C100.088 233 104.852 227.514 111.051 225.576C106.098 221.369 103.85 214.457 105.909 207.867C107.968 201.267 113.744 196.859 120.212 196.213C116.216 191.093 115.415 183.868 118.765 177.826C122.115 171.793 128.66 168.643 135.127 169.322C132.233 163.501 132.912 156.277 137.409 151.024C141.895 145.782 148.929 144.012 155.129 145.971C153.459 139.693 155.574 132.748 161.028 128.508C166.471 124.266 173.728 123.943 179.393 127.104C179.026 120.616 182.487 114.237 188.687 111.176C194.876 108.126 202.055 109.262 206.985 113.513C207.931 107.081 212.617 101.516 219.306 99.778C225.984 98.042 232.774 100.613 236.736 105.755C238.973 99.667 244.672 95.17 251.573 94.825C258.463 94.47 264.584 98.342 267.434 104.165C270.84 98.644 277.318 95.372 284.141 96.407C290.975 97.431 296.218 102.461 297.843 108.751C302.295 104.008 309.307 102.128 315.785 104.509C322.274 106.902 326.392 112.89 326.704 119.39C332.013 115.651 339.27 115.216 345.136 118.867C351.002 122.507 353.818 129.196 352.816 135.618C358.771 133.025 365.961 134.06 370.97 138.801C375.979 143.554 377.403 150.666 375.133 156.754C381.488 155.407 388.323 157.856 392.285 163.521C396.247 169.175 396.214 176.432 392.775 181.942C399.264 181.897 405.464 185.682 408.213 192.015C410.951 198.359 409.448 205.472 404.963 210.18C411.341 211.449 416.65 216.402 418.052 223.169C419.443 229.936 416.538 236.581 411.207 240.288C417.173 242.816 421.38 248.725 421.391 255.626V255.849V255.994C421.391 262.894 417.206 268.816 411.24 271.365C416.583 275.05 419.51 281.694 418.119 288.461C416.739 295.228 411.441 300.193 405.063 301.484C409.56 306.181 411.085 313.282 408.358 319.638C405.631 325.982 399.431 329.778 392.931 329.744C396.381 335.254 396.437 342.511 392.486 348.176C388.535 353.843 381.712 356.313 375.356 354.977C377.638 361.054 376.224 368.178 371.227 372.942C366.218 377.696 359.039 378.741 353.084 376.17C354.097 382.581 351.292 389.282 345.437 392.944C339.582 396.606 332.325 396.182 327.005 392.454C326.704 398.954 322.608 404.954 316.131 407.358C309.654 409.762 316.131 407.358 316.12 407.358C309.642 409.751 302.63 407.882 298.167 403.152C296.564 409.452 291.333 414.493 284.499 415.54C277.676 416.575 271.187 413.325 267.77 407.804C265.054 413.403 259.311 417.209 252.766 417.209C252.487 417.213 252.209 417.202 251.93 417.19Z" fill="#F3F3F3"/>
<path d="M260 367.304C321.472 367.304 371.304 317.472 371.304 256C371.304 194.529 321.472 144.696 260 144.696C198.529 144.696 148.696 194.529 148.696 256C148.696 317.472 198.529 367.304 260 367.304Z" fill="#338AF3"/>
<path d="M284.363 218.219C289.831 214.163 293.391 207.68 293.391 200.348V189.218C293.391 176.923 283.425 166.957 271.13 166.957H248.87C236.575 166.957 226.609 176.923 226.609 189.218V200.348C226.609 207.68 230.169 214.163 235.637 218.219L215.479 422.956C215.479 422.956 226.609 434.088 260.001 434.088C293.393 434.088 304.523 422.956 304.523 422.956L284.363 218.219Z" fill="#BDBCC1"/>
<path d="M259.999 166.957L279.337 226.475H341.922L291.292 263.263L310.629 322.783L259.999 285.998L209.367 322.783L228.708 263.263L178.077 226.475H240.66L259.999 166.957Z" fill="#F0F0F0"/>
</g>
<defs>
<filter id="filter0_dd_105_2146" x="0" y="0" width="520" height="520" filterUnits="userSpaceOnUse" color-interpolation-filters="sRGB">
<feFlood flood-opacity="0" result="BackgroundImageFix"/>
<feColorMatrix in="SourceAlpha" type="matrix" values="0 0 0 0 0 0 0 0 0 0 0 0 0 0 0 0 0 0 127 0" result="hardAlpha"/>
<feOffset dy="4"/>
<feGaussianBlur stdDeviation="2"/>
<feComposite in2="hardAlpha" operator="out"/>
<feColorMatrix type="matrix" values="0 0 0 0 0 0 0 0 0 0 0 0 0 0 0 0 0 0 0.25 0"/>
<feBlend mode="normal" in2="BackgroundImageFix" result="effect1_dropShadow_105_2146"/>
<feColorMatrix in="SourceAlpha" type="matrix" values="0 0 0 0 0 0 0 0 0 0 0 0 0 0 0 0 0 0 127 0" result="hardAlpha"/>
<feOffset dy="4"/>
<feGaussianBlur stdDeviation="2"/>
<feComposite in2="hardAlpha" operator="out"/>
<feColorMatrix type="matrix" values="0 0 0 0 0 0 0 0 0 0 0 0 0 0 0 0 0 0 0.25 0"/>
<feBlend mode="normal" in2="effect1_dropShadow_105_2146" result="effect2_dropShadow_105_2146"/>
<feBlend mode="normal" in="SourceGraphic" in2="effect2_dropShadow_105_2146" result="shape"/>
</filter>
<clipPath id="clip0_105_2146">
<rect width="512" height="512" fill="white" transform="translate(4)"/>
</clipPath>
</defs>
</svg>
