<svg width="520" height="520" viewBox="0 0 520 520" fill="none" xmlns="http://www.w3.org/2000/svg">
<g clip-path="url(#clip0_105_2191)" filter="url(#filter0_dd_105_2191)">
<path d="M260 512C401.385 512 516 397.385 516 256C516 114.615 401.385 0 260 0C118.615 0 4 114.615 4 256C4 397.385 118.615 512 260 512Z" fill="#F0F0F0"/>
<path d="M159.826 166.957H500.076C463.906 69.472 370.07 0 260 0C189.306 0 125.313 28.659 78.9893 74.989L159.826 166.957Z" fill="black"/>
<path d="M159.826 345.043H500.076C463.906 442.528 370.07 512 260 512C189.306 512 125.313 483.341 78.9893 437.011L159.826 345.043Z" fill="#6DA544"/>
<path d="M78.9795 74.98C-20.9945 174.954 -20.9945 337.045 78.9795 437.02C120.293 395.707 160.026 355.974 260 256L78.9795 74.98Z" fill="#D80027"/>
</g>
<defs>
<filter id="filter0_dd_105_2191" x="0" y="0" width="520" height="520" filterUnits="userSpaceOnUse" color-interpolation-filters="sRGB">
<feFlood flood-opacity="0" result="BackgroundImageFix"/>
<feColorMatrix in="SourceAlpha" type="matrix" values="0 0 0 0 0 0 0 0 0 0 0 0 0 0 0 0 0 0 127 0" result="hardAlpha"/>
<feOffset dy="4"/>
<feGaussianBlur stdDeviation="2"/>
<feComposite in2="hardAlpha" operator="out"/>
<feColorMatrix type="matrix" values="0 0 0 0 0 0 0 0 0 0 0 0 0 0 0 0 0 0 0.25 0"/>
<feBlend mode="normal" in2="BackgroundImageFix" result="effect1_dropShadow_105_2191"/>
<feColorMatrix in="SourceAlpha" type="matrix" values="0 0 0 0 0 0 0 0 0 0 0 0 0 0 0 0 0 0 127 0" result="hardAlpha"/>
<feOffset dy="4"/>
<feGaussianBlur stdDeviation="2"/>
<feComposite in2="hardAlpha" operator="out"/>
<feColorMatrix type="matrix" values="0 0 0 0 0 0 0 0 0 0 0 0 0 0 0 0 0 0 0.25 0"/>
<feBlend mode="normal" in2="effect1_dropShadow_105_2191" result="effect2_dropShadow_105_2191"/>
<feBlend mode="normal" in="SourceGraphic" in2="effect2_dropShadow_105_2191" result="shape"/>
</filter>
<clipPath id="clip0_105_2191">
<rect width="512" height="512" fill="white" transform="translate(4)"/>
</clipPath>
</defs>
</svg>
