<svg width="520" height="520" viewBox="0 0 520 520" fill="none" xmlns="http://www.w3.org/2000/svg">
<g clip-path="url(#clip0_105_2254)" filter="url(#filter0_dd_105_2254)">
<path d="M260 512C401.385 512 516 397.385 516 256C516 114.615 401.385 0 260 0C118.615 0 4 114.615 4 256C4 397.385 118.615 512 260 512Z" fill="#F0F0F0"/>
<path d="M260 0C176.248 0 101.893 40.223 55.189 102.4H464.811C418.107 40.223 343.752 0 260 0Z" fill="#D80027"/>
<path d="M260 512C343.752 512 418.107 471.777 464.811 409.6H55.189C101.893 471.777 176.248 512 260 512Z" fill="#D80027"/>
<path d="M4 256C4 273.535 5.768 290.657 9.127 307.2H510.875C514.234 290.657 516 273.535 516 256C516 238.465 514.232 221.343 510.874 204.8H9.127C5.768 221.343 4 238.465 4 256H4Z" fill="#D80027"/>
<path d="M78.98 74.98C-20.994 174.954 -20.994 337.045 78.98 437.02C120.293 395.707 160.026 355.974 260 256L78.98 74.98Z" fill="#0052B4"/>
<path d="M107.61 189.217L124.185 240.233H177.831L134.433 271.765L151.007 322.783L107.61 291.252L64.2111 322.783L80.7891 271.765L37.3911 240.233H91.0331L107.61 189.217Z" fill="#F0F0F0"/>
</g>
<defs>
<filter id="filter0_dd_105_2254" x="0" y="0" width="520" height="520" filterUnits="userSpaceOnUse" color-interpolation-filters="sRGB">
<feFlood flood-opacity="0" result="BackgroundImageFix"/>
<feColorMatrix in="SourceAlpha" type="matrix" values="0 0 0 0 0 0 0 0 0 0 0 0 0 0 0 0 0 0 127 0" result="hardAlpha"/>
<feOffset dy="4"/>
<feGaussianBlur stdDeviation="2"/>
<feComposite in2="hardAlpha" operator="out"/>
<feColorMatrix type="matrix" values="0 0 0 0 0 0 0 0 0 0 0 0 0 0 0 0 0 0 0.25 0"/>
<feBlend mode="normal" in2="BackgroundImageFix" result="effect1_dropShadow_105_2254"/>
<feColorMatrix in="SourceAlpha" type="matrix" values="0 0 0 0 0 0 0 0 0 0 0 0 0 0 0 0 0 0 127 0" result="hardAlpha"/>
<feOffset dy="4"/>
<feGaussianBlur stdDeviation="2"/>
<feComposite in2="hardAlpha" operator="out"/>
<feColorMatrix type="matrix" values="0 0 0 0 0 0 0 0 0 0 0 0 0 0 0 0 0 0 0.25 0"/>
<feBlend mode="normal" in2="effect1_dropShadow_105_2254" result="effect2_dropShadow_105_2254"/>
<feBlend mode="normal" in="SourceGraphic" in2="effect2_dropShadow_105_2254" result="shape"/>
</filter>
<clipPath id="clip0_105_2254">
<rect width="512" height="512" fill="white" transform="translate(4)"/>
</clipPath>
</defs>
</svg>
