<svg width="520" height="520" viewBox="0 0 520 520" fill="none" xmlns="http://www.w3.org/2000/svg">
<g clip-path="url(#clip0_105_2387)" filter="url(#filter0_dd_105_2387)">
<path d="M260 512C401.385 512 516 397.385 516 256C516 114.615 401.385 0 260 0C118.615 0 4 114.615 4 256C4 397.385 118.615 512 260 512Z" fill="#F0F0F0"/>
<path d="M432.809 67.137C387.269 25.445 326.608 0 260 0C249.096 0 238.351 0.687 227.805 2.01L104.174 144.696L12.1011 320.131C18.0491 343.192 27.1431 364.986 38.8761 385.048L260 256L432.809 67.137Z" fill="#FFDA44"/>
<path d="M473.131 397.838L114.963 466.958C156.192 495.359 206.15 512 260 512C348.921 512 427.24 466.657 473.131 397.838Z" fill="#6DA544"/>
<path d="M432.845 67.171L39.022 385.296C49.323 402.864 61.656 419.095 75.703 433.664L516 256C516 181.241 483.949 113.973 432.845 67.171Z" fill="#D80027"/>
<path d="M4 256C4 278.147 6.814 299.636 12.101 320.131L227.805 2.01001C101.618 17.844 4 125.52 4 256Z" fill="#0052B4"/>
</g>
<defs>
<filter id="filter0_dd_105_2387" x="0" y="0" width="520" height="520" filterUnits="userSpaceOnUse" color-interpolation-filters="sRGB">
<feFlood flood-opacity="0" result="BackgroundImageFix"/>
<feColorMatrix in="SourceAlpha" type="matrix" values="0 0 0 0 0 0 0 0 0 0 0 0 0 0 0 0 0 0 127 0" result="hardAlpha"/>
<feOffset dy="4"/>
<feGaussianBlur stdDeviation="2"/>
<feComposite in2="hardAlpha" operator="out"/>
<feColorMatrix type="matrix" values="0 0 0 0 0 0 0 0 0 0 0 0 0 0 0 0 0 0 0.25 0"/>
<feBlend mode="normal" in2="BackgroundImageFix" result="effect1_dropShadow_105_2387"/>
<feColorMatrix in="SourceAlpha" type="matrix" values="0 0 0 0 0 0 0 0 0 0 0 0 0 0 0 0 0 0 127 0" result="hardAlpha"/>
<feOffset dy="4"/>
<feGaussianBlur stdDeviation="2"/>
<feComposite in2="hardAlpha" operator="out"/>
<feColorMatrix type="matrix" values="0 0 0 0 0 0 0 0 0 0 0 0 0 0 0 0 0 0 0.25 0"/>
<feBlend mode="normal" in2="effect1_dropShadow_105_2387" result="effect2_dropShadow_105_2387"/>
<feBlend mode="normal" in="SourceGraphic" in2="effect2_dropShadow_105_2387" result="shape"/>
</filter>
<clipPath id="clip0_105_2387">
<rect width="512" height="512" fill="white" transform="translate(4)"/>
</clipPath>
</defs>
</svg>
