<svg width="520" height="520" viewBox="0 0 520 520" fill="none" xmlns="http://www.w3.org/2000/svg">
<g clip-path="url(#clip0_105_2432)" filter="url(#filter0_dd_105_2432)">
<path d="M260 512.001C401.385 512.001 516 397.386 516 256.001C516 114.616 401.385 0.000976562 260 0.000976562C118.615 0.000976562 4 114.616 4 256.001C4 397.386 118.615 512.001 260 512.001Z" fill="#F0F0F0"/>
<path d="M260 512.001C401.384 512.001 516 397.385 516 256.001C516 224.687 510.368 194.69 500.077 166.958H19.923C9.633 194.69 4 224.687 4 256.001C4 397.385 118.616 512.001 260 512.001Z" fill="#0052B4"/>
<path d="M260 512.001C370.071 512.001 463.906 442.529 500.077 345.044H19.923C56.094 442.529 149.929 512.001 260 512.001Z" fill="#D80027"/>
<path d="M70.198 144.697V272.403C70.198 345.047 165.099 367.306 165.099 367.306C165.099 367.306 259.999 345.047 259.999 272.403V144.697H70.198Z" fill="#F0F0F0"/>
<path d="M92.459 144.697V272.403C92.459 280.931 94.353 288.985 98.105 296.536H232.092C235.844 288.986 237.738 280.931 237.738 272.403V144.697H92.459Z" fill="#D80027"/>
<path d="M209.62 233.74H176.23V211.479H198.491V189.218H176.23V166.958H153.969V189.218H131.709V211.479H153.969V233.74H120.577V256.001H153.969V278.262H176.23V256.001H209.62V233.74Z" fill="#F0F0F0"/>
<path d="M128.471 327.611C142.816 336.626 157.554 341.86 165.099 344.188C172.644 341.861 187.382 336.626 201.727 327.611C216.193 318.519 226.334 308.121 232.092 296.536C225.741 292.043 217.992 289.393 209.621 289.393C206.573 289.393 203.612 289.754 200.765 290.417C194.732 276.709 181.037 267.132 165.1 267.132C149.163 267.132 135.467 276.709 129.435 290.417C126.588 289.754 123.626 289.393 120.579 289.393C112.208 289.393 104.459 292.043 98.1079 296.536C103.863 308.12 114.004 318.518 128.471 327.611Z" fill="#0052B4"/>
</g>
<defs>
<filter id="filter0_dd_105_2432" x="0" y="0.000976562" width="520" height="520" filterUnits="userSpaceOnUse" color-interpolation-filters="sRGB">
<feFlood flood-opacity="0" result="BackgroundImageFix"/>
<feColorMatrix in="SourceAlpha" type="matrix" values="0 0 0 0 0 0 0 0 0 0 0 0 0 0 0 0 0 0 127 0" result="hardAlpha"/>
<feOffset dy="4"/>
<feGaussianBlur stdDeviation="2"/>
<feComposite in2="hardAlpha" operator="out"/>
<feColorMatrix type="matrix" values="0 0 0 0 0 0 0 0 0 0 0 0 0 0 0 0 0 0 0.25 0"/>
<feBlend mode="normal" in2="BackgroundImageFix" result="effect1_dropShadow_105_2432"/>
<feColorMatrix in="SourceAlpha" type="matrix" values="0 0 0 0 0 0 0 0 0 0 0 0 0 0 0 0 0 0 127 0" result="hardAlpha"/>
<feOffset dy="4"/>
<feGaussianBlur stdDeviation="2"/>
<feComposite in2="hardAlpha" operator="out"/>
<feColorMatrix type="matrix" values="0 0 0 0 0 0 0 0 0 0 0 0 0 0 0 0 0 0 0.25 0"/>
<feBlend mode="normal" in2="effect1_dropShadow_105_2432" result="effect2_dropShadow_105_2432"/>
<feBlend mode="normal" in="SourceGraphic" in2="effect2_dropShadow_105_2432" result="shape"/>
</filter>
<clipPath id="clip0_105_2432">
<rect width="512" height="512" fill="white" transform="translate(4 0.000976562)"/>
</clipPath>
</defs>
</svg>
