<svg width="520" height="520" viewBox="0 0 520 520" fill="none" xmlns="http://www.w3.org/2000/svg">
<g clip-path="url(#clip0_105_2505)" filter="url(#filter0_dd_105_2505)">
<path d="M4 256C4 287.314 9.633 317.31 19.923 345.043L260 367.304L500.077 345.043C510.367 317.31 516 287.314 516 256C516 224.686 510.367 194.69 500.077 166.957L260 144.696L19.923 166.957C9.633 194.69 4 224.686 4 256H4Z" fill="#FFDA44"/>
<path d="M500.077 166.957C463.906 69.473 370.071 0 260 0C149.929 0 56.0939 69.473 19.9229 166.957H500.077Z" fill="#D80027"/>
<path d="M19.9229 345.043C56.0939 442.527 149.929 512 260 512C370.071 512 463.906 442.527 500.077 345.043H19.9229Z" fill="#D80027"/>
</g>
<defs>
<filter id="filter0_dd_105_2505" x="0" y="0" width="520" height="520" filterUnits="userSpaceOnUse" color-interpolation-filters="sRGB">
<feFlood flood-opacity="0" result="BackgroundImageFix"/>
<feColorMatrix in="SourceAlpha" type="matrix" values="0 0 0 0 0 0 0 0 0 0 0 0 0 0 0 0 0 0 127 0" result="hardAlpha"/>
<feOffset dy="4"/>
<feGaussianBlur stdDeviation="2"/>
<feComposite in2="hardAlpha" operator="out"/>
<feColorMatrix type="matrix" values="0 0 0 0 0 0 0 0 0 0 0 0 0 0 0 0 0 0 0.25 0"/>
<feBlend mode="normal" in2="BackgroundImageFix" result="effect1_dropShadow_105_2505"/>
<feColorMatrix in="SourceAlpha" type="matrix" values="0 0 0 0 0 0 0 0 0 0 0 0 0 0 0 0 0 0 127 0" result="hardAlpha"/>
<feOffset dy="4"/>
<feGaussianBlur stdDeviation="2"/>
<feComposite in2="hardAlpha" operator="out"/>
<feColorMatrix type="matrix" values="0 0 0 0 0 0 0 0 0 0 0 0 0 0 0 0 0 0 0.25 0"/>
<feBlend mode="normal" in2="effect1_dropShadow_105_2505" result="effect2_dropShadow_105_2505"/>
<feBlend mode="normal" in="SourceGraphic" in2="effect2_dropShadow_105_2505" result="shape"/>
</filter>
<clipPath id="clip0_105_2505">
<rect width="512" height="512" fill="white" transform="translate(4)"/>
</clipPath>
</defs>
</svg>
