<svg width="521" height="520" viewBox="0 0 521 520" fill="none" xmlns="http://www.w3.org/2000/svg">
<g clip-path="url(#clip0_105_2576)" filter="url(#filter0_dd_105_2576)">
<path d="M260.578 512C401.963 512 516.578 397.385 516.578 256C516.578 114.615 401.963 0 260.578 0C119.193 0 4.57812 114.615 4.57812 256C4.57812 397.385 119.193 512 260.578 512Z" fill="#F0F0F0"/>
<path d="M260.578 0C150.507 0 56.672 69.472 20.501 166.957H500.656C464.484 69.472 370.649 0 260.578 0Z" fill="#D80027"/>
<path d="M260.578 512C370.649 512 464.484 442.528 500.655 345.043H20.501C56.672 442.528 150.507 512 260.578 512Z" fill="black"/>
<path d="M157.54 194.783L171.353 237.295H216.056L179.891 263.573L193.705 306.087L157.54 279.812L121.375 306.087L135.189 263.573L99.0244 237.295H143.727L157.54 194.783Z" fill="#6DA544"/>
<path d="M363.617 194.783L377.43 237.295H422.134L385.968 263.573L399.782 306.087L363.617 279.812L327.452 306.087L341.266 263.573L305.101 237.295H349.804L363.617 194.783Z" fill="#6DA544"/>
</g>
<defs>
<filter id="filter0_dd_105_2576" x="0.578125" y="0" width="520" height="520" filterUnits="userSpaceOnUse" color-interpolation-filters="sRGB">
<feFlood flood-opacity="0" result="BackgroundImageFix"/>
<feColorMatrix in="SourceAlpha" type="matrix" values="0 0 0 0 0 0 0 0 0 0 0 0 0 0 0 0 0 0 127 0" result="hardAlpha"/>
<feOffset dy="4"/>
<feGaussianBlur stdDeviation="2"/>
<feComposite in2="hardAlpha" operator="out"/>
<feColorMatrix type="matrix" values="0 0 0 0 0 0 0 0 0 0 0 0 0 0 0 0 0 0 0.25 0"/>
<feBlend mode="normal" in2="BackgroundImageFix" result="effect1_dropShadow_105_2576"/>
<feColorMatrix in="SourceAlpha" type="matrix" values="0 0 0 0 0 0 0 0 0 0 0 0 0 0 0 0 0 0 127 0" result="hardAlpha"/>
<feOffset dy="4"/>
<feGaussianBlur stdDeviation="2"/>
<feComposite in2="hardAlpha" operator="out"/>
<feColorMatrix type="matrix" values="0 0 0 0 0 0 0 0 0 0 0 0 0 0 0 0 0 0 0.25 0"/>
<feBlend mode="normal" in2="effect1_dropShadow_105_2576" result="effect2_dropShadow_105_2576"/>
<feBlend mode="normal" in="SourceGraphic" in2="effect2_dropShadow_105_2576" result="shape"/>
</filter>
<clipPath id="clip0_105_2576">
<rect width="512" height="512" fill="white" transform="translate(4.57812)"/>
</clipPath>
</defs>
</svg>
