<svg width="520" height="520" viewBox="0 0 520 520" fill="none" xmlns="http://www.w3.org/2000/svg">
<g clip-path="url(#clip0_105_2714)" filter="url(#filter0_dd_105_2714)">
<path d="M516 256C516 397.384 401.384 512 260.001 512C118.616 512 4 397.384 4 256C4 256.061 260.001 0.028 260.001 0C401.384 0 516 114.616 516 256Z" fill="#338AF3"/>
<path d="M126.435 256H212.777L137.565 166.957L126.435 200.348V256Z" fill="#0052B4"/>
<path d="M260.001 208.778L170.957 122.435H260L260.001 208.778Z" fill="#0052B4"/>
<path d="M259.315 256H260C260 255.77 260 255.546 260 255.315C259.772 255.544 259.544 255.772 259.315 256Z" fill="#F0F0F0"/>
<path d="M260.001 133.565C260.001 88.52 260.001 59.004 260.001 0H259.958C118.592 0.024 4 114.629 4 256H137.566V180.789L212.777 256H259.317C259.545 255.772 259.773 255.544 260.002 255.315C260.002 238.068 260.002 222.679 260.002 208.778L184.788 133.565H260.001Z" fill="#F0F0F0"/>
<path d="M133.515 33.3911C93.4761 56.1901 60.1901 89.4761 37.3911 129.515V256H104.174V100.176V100.174H260C260 79.1111 260 59.0451 260 33.3911H133.515Z" fill="#D80027"/>
<path d="M260.001 224.519L169.046 133.566H137.566V133.568L259.999 256H260.001C260.001 256 260.001 234.293 260.001 224.519Z" fill="#D80027"/>
<path d="M283.406 422.957L288.932 439.963H306.813L292.348 450.473L297.874 467.478L283.406 456.969L268.941 467.478L274.467 450.473L260 439.963H277.88L283.406 422.957Z" fill="#FFDA44"/>
<path d="M425.811 311.652L431.336 328.658H449.217L434.752 339.169L440.279 356.174L425.811 345.665L411.346 356.174L416.872 339.169L402.404 328.658H420.285L425.811 311.652Z" fill="#FFDA44"/>
<path d="M461.493 144.696L467.019 161.702H484.9L470.435 172.212L475.96 189.217L461.493 178.708L447.028 189.217L452.554 172.212L438.087 161.702H455.968L461.493 144.696Z" fill="#FFDA44"/>
<path d="M470.333 267.13L475.858 284.137H493.739L479.274 294.647L484.8 311.652L470.333 301.143L455.868 311.652L461.394 294.647L446.926 284.137H464.807L470.333 267.13Z" fill="#FFDA44"/>
<path d="M309.046 382.959L324.981 391.078L337.624 378.435L334.828 396.094L350.759 404.212L333.097 407.01L330.3 424.671L322.184 408.738L304.522 411.537L317.165 398.894L309.046 382.959Z" fill="#FFDA44"/>
<path d="M309.046 316.177L324.981 324.295L337.624 311.652L334.828 329.312L350.759 337.429L333.097 340.227L330.3 357.888L322.184 341.956L304.522 344.754L317.165 332.111L309.046 316.177Z" fill="#FFDA44"/>
<path d="M364.698 358.984L380.633 367.103L393.276 354.46L390.48 372.119L406.411 380.237L388.749 383.035L385.952 400.696L377.836 384.762L360.174 387.562L372.817 374.919L364.698 358.984Z" fill="#FFDA44"/>
<path d="M364.698 216.003L380.633 224.121L393.276 211.478L390.48 229.138L406.411 237.255L388.749 240.053L385.952 257.714L377.836 241.782L360.174 244.58L372.817 231.937L364.698 216.003Z" fill="#FFDA44"/>
<path d="M418.635 214.289L434.57 222.407L447.213 209.764L444.416 227.424L460.348 235.541L442.686 238.339L439.889 256L431.773 240.068L414.111 242.866L426.754 230.223L418.635 214.289Z" fill="#FFDA44"/>
</g>
<defs>
<filter id="filter0_dd_105_2714" x="0" y="0" width="520" height="520" filterUnits="userSpaceOnUse" color-interpolation-filters="sRGB">
<feFlood flood-opacity="0" result="BackgroundImageFix"/>
<feColorMatrix in="SourceAlpha" type="matrix" values="0 0 0 0 0 0 0 0 0 0 0 0 0 0 0 0 0 0 127 0" result="hardAlpha"/>
<feOffset dy="4"/>
<feGaussianBlur stdDeviation="2"/>
<feComposite in2="hardAlpha" operator="out"/>
<feColorMatrix type="matrix" values="0 0 0 0 0 0 0 0 0 0 0 0 0 0 0 0 0 0 0.25 0"/>
<feBlend mode="normal" in2="BackgroundImageFix" result="effect1_dropShadow_105_2714"/>
<feColorMatrix in="SourceAlpha" type="matrix" values="0 0 0 0 0 0 0 0 0 0 0 0 0 0 0 0 0 0 127 0" result="hardAlpha"/>
<feOffset dy="4"/>
<feGaussianBlur stdDeviation="2"/>
<feComposite in2="hardAlpha" operator="out"/>
<feColorMatrix type="matrix" values="0 0 0 0 0 0 0 0 0 0 0 0 0 0 0 0 0 0 0.25 0"/>
<feBlend mode="normal" in2="effect1_dropShadow_105_2714" result="effect2_dropShadow_105_2714"/>
<feBlend mode="normal" in="SourceGraphic" in2="effect2_dropShadow_105_2714" result="shape"/>
</filter>
<clipPath id="clip0_105_2714">
<rect width="512" height="512" fill="white" transform="translate(4)"/>
</clipPath>
</defs>
</svg>
